<svg xmlns="http://www.w3.org/2000/svg" viewBox="0 0 596.93 344.28"><defs><style>.cls-1{fill:#b2e9ed;}.cls-2{fill:#60b0d8;}.cls-10,.cls-19,.cls-20,.cls-3,.cls-31,.cls-32,.cls-40,.cls-44,.cls-8,.cls-9{fill:none;stroke-miterlimit:10;}.cls-10,.cls-3,.cls-9{stroke:#177d74;}.cls-3{stroke-width:2.95px;}.cls-4{fill:#1c9585;}.cls-5{fill:#177d74;}.cls-6{fill:#828291;}.cls-7{fill:#695a6e;}.cls-19,.cls-20,.cls-44,.cls-8{stroke:#32285f;}.cls-8{stroke-width:2.53px;}.cls-9{stroke-width:1.07px;}.cls-10{stroke-width:2.14px;}.cls-11{fill:#f0e1d3;}.cls-12{fill:#d8c5b6;}.cls-13{fill:#e2d0c5;}.cls-14{fill:#ff9669;}.cls-15{fill:#fff;}.cls-16{fill:#fa503c;}.cls-17{fill:#0073aa;}.cls-18{fill:#a96adb;}.cls-19{stroke-width:4.56px;}.cls-20{stroke-width:5.51px;}.cls-21{fill:#db372a;}.cls-22{fill:#32285f;}.cls-23{fill:#e69632;}.cls-24{fill:#50374b;}.cls-25{fill:#3560c1;}.cls-26{opacity:0.2;}.cls-27{fill:#ff640a;}.cls-28{fill:#1e1632;}.cls-29{fill:#69280f;}.cls-30{fill:#0f1446;}.cls-31,.cls-40{stroke:#50374b;}.cls-31{stroke-width:0.47px;}.cls-32{stroke:#1e1632;stroke-width:0.76px;}.cls-33{fill:#41378c;}.cls-34{fill:#fac855;}.cls-35{fill:#a5a0aa;}.cls-36{fill:#e6dcdc;}.cls-37{fill:#c8e6eb;}.cls-38{fill:#d77d14;}.cls-39{fill:#965028;}.cls-40{stroke-linecap:round;stroke-width:0.84px;}.cls-41{opacity:0.1;}.cls-42{fill:#373c41;}.cls-43{fill:#c8462d;}.cls-44{stroke-width:5.33px;}</style></defs><g id="Layer_2" data-name="Layer 2"><g id="OBJECTS"><path class="cls-1" d="M92.79,139a50.55,50.55,0,0,1,20.71,58.06,37.25,37.25,0,0,0-1.84,14.55c2.39,31.78,45.93,54.42,97.27,50.58a147.46,147.46,0,0,0,26.87-4.51,205.28,205.28,0,0,1,69.21-6,281.72,281.72,0,0,0,43.2,0c97.56-7.31,173-62.19,168.45-122.58-4.56-60.84-85-99.91-174.11-96.68-22.82.83-45.3-4.86-65.58-15.35C252.43,4.43,219.43-2.08,183.72.59,112.09,6,56.72,46.26,60,90.59,61.47,109.76,73.65,126.54,92.79,139Z"/><ellipse class="cls-2" cx="301.35" cy="313.54" rx="287.85" ry="30.74"/><path class="cls-3" d="M66.59,161.78s-5.11,12.89-2.44,35.76"/><path class="cls-4" d="M130.08,90.67A57.71,57.71,0,0,1,108.44,95a33.78,33.78,0,0,0-13,2.52C83.8,102.31,77.2,120.62,77.2,120.62l51.25-3.45s28.54,2.56,41.77-6.23c4.66-3.1,9.51-9.73,9.51-9.73S154.16,81,130.08,90.67Z"/><path class="cls-5" d="M58.32,107.29S30.1,79.56,52.25,50.87C67.77,30.76,71,24.65,75.77,16.77,89.38-5.57,103.45,3.7,103.45,3.7S87.67,28.55,86.94,50.54C85.64,89.3,58.32,107.29,58.32,107.29Z"/><path class="cls-5" d="M79.6,110.57c6.93-5.23,13.67-5.85,30.29,1.1,4.76,2,10.11,4.94,19.94,5.35,0,0-53,5.35-60.81,16.06v-.54A27.41,27.41,0,0,1,79.6,110.57Z"/><path class="cls-4" d="M45.5,155.13s-.65-21.73-18.48-22A35.73,35.73,0,0,1,.09,120.62s-2,23.39,12.33,32.24C30.26,163.89,45.5,155.13,45.5,155.13Z"/><path class="cls-4" d="M88.64,13.72Q84,25.21,80,36.9T72.14,60.38c-5,15.72-9.29,31.64-12.87,47.7-1.8,8-3.41,16.11-4.77,24.22s-2.4,16.27-3.26,24.44-1.28,16.39-1.37,24.6a234.81,234.81,0,0,0,1,24.59l-2,.25a208.59,208.59,0,0,1-1.73-24.85c0-8.3.41-16.6,1.1-24.87S50.15,140,51.5,131.8s3-16.3,4.89-24.37,4-16.07,6.33-24,4.75-15.86,7.47-23.67,5.58-15.58,8.6-23.27S85.07,21.17,88.64,13.72Z"/><path class="cls-5" d="M83.05,125.22a25.69,25.69,0,0,0-4.65,1.9,35.77,35.77,0,0,0-4.34,2.66,40.08,40.08,0,0,0-7.43,6.94,51.41,51.41,0,0,0-9.44,18A82.77,82.77,0,0,0,54,174.94a131.36,131.36,0,0,0,1,20.59l-2.63.3a135.08,135.08,0,0,1-.68-21,84.63,84.63,0,0,1,3.61-20.74,53.33,53.33,0,0,1,10.05-18.51,41.8,41.8,0,0,1,7.85-7.12,36.94,36.94,0,0,1,4.57-2.72,26.72,26.72,0,0,1,5-1.95Z"/><path class="cls-5" d="M3.82,128.94a33.06,33.06,0,0,0,19.26,13.82,112.53,112.53,0,0,1,11.78,3.61,43.64,43.64,0,0,1,5.69,2.55,14.46,14.46,0,0,1,5,4.15l.45.75c.12.27.23.55.34.83a11.32,11.32,0,0,1,.31,1.74c0,1.05.07,2.12,0,3.14,0,2.07-.17,4.12-.3,6.17-.29,4.08-.63,8.16-1.07,12.22s-.9,8.13-1.38,12.19-1,8.1-1.64,12.15l-1.46-.19,1.26-12.17c.44-4.06.87-8.12,1.25-12.17s.81-8.12,1.1-12.17c.15-2,.29-4.06.34-6.07,0-1,0-2,0-3a10.85,10.85,0,0,0-.21-1.27l-.22-.59-.33-.57a12.79,12.79,0,0,0-4.28-3.69,43.5,43.5,0,0,0-5.42-2.58c-3.74-1.51-7.64-2.69-11.53-3.89A32.36,32.36,0,0,1,3.82,128.94Z"/><path class="cls-5" d="M170.46,102.18c-6.5,2-13.06,3.73-19.64,5.4s-13.21,3.19-19.88,4.52-13.36,2.53-20.12,3.4A169.19,169.19,0,0,1,90.41,117l0-1.88a167,167,0,0,0,20.22-1c6.73-.71,13.43-1.76,20.11-2.92s13.32-2.57,19.94-4.06S163.92,104,170.46,102.18Z"/><path class="cls-4" d="M73.6,153.26S61,147.43,54.18,155s4.62,19,12.16,24.57,13.87,22.62,26,26.52c0,0,7.06-13.63,1.95-27.22-2.11-5.63.27-21.8-9.78-28C80.21,148.16,73.6,153.26,73.6,153.26Z"/><path class="cls-5" d="M75.24,152.18a17.85,17.85,0,0,0-1.54,1c8.71,9.37,14,36.35,14.94,40C88.38,191.89,84.36,163.28,75.24,152.18Z"/><rect class="cls-6" x="30.02" y="189.11" width="44.15" height="60.24"/><rect class="cls-7" x="35.57" y="189.11" width="12.93" height="46.05"/><polyline class="cls-8" points="30.02 310.08 30.02 221.62 74.17 221.62 74.17 310.08"/><path class="cls-4" d="M527.07,162c-2.93,0-3.63-9.43-3.64-18.16a143.23,143.23,0,0,0-20.75-3.9s-9,37.44,2.42,54c7.92-2.49,23.11-6.53,25.48-1.69,1.88,3.86-7.08,7.68-14.84,10.18,14.46,6.66,34.62,4.38,34.62,4.38s14.44-30.33,2.76-46.71c-3.91-5.48-10.86-9.55-18.38-12.53C532.63,154.75,529.83,162,527.07,162Zm-10.73,12.74c-.23,1.4-2.79,2.14-5.71,1.65s-5.1-2-4.87-3.42,2.8-2.14,5.72-1.65S516.58,173.33,516.34,174.73Zm29.36-7.87c-.52,5.31-3,9.41-5.55,9.16S536,171.26,536.49,166s3-9.41,5.55-9.16S546.22,161.55,545.7,166.86Z"/><path class="cls-5" d="M505.67,143.21c3.91,3.91,7.68,7.91,11.36,12s7.23,8.32,10.69,12.61a194.4,194.4,0,0,1,18.69,27.31,98.31,98.31,0,0,1,6.81,15.24,48.77,48.77,0,0,1,2.9,16.68l-.28,8.33c-.06,2.75-.11,5.5-.11,8.26,0,5.51.11,11,.57,16.55l-8.34-.58c1.23-5.44,2.11-10.9,2.88-16.36.38-2.73.71-5.47,1-8.2l.44-4.11.21-2,.16-2a45.56,45.56,0,0,0-2-15.77,87.79,87.79,0,0,0-6-15.1,141.3,141.3,0,0,0-8.22-14.19q-4.5-6.87-9.58-13.37c-3.35-4.34-6.89-8.54-10.55-12.63s-7.42-8.11-11.38-11.89Z"/><path class="cls-9" d="M503.41,186.22s25.93-3.65,36.73,0"/><path class="cls-9" d="M502.54,158.66s13.48.32,18.06,3.21"/><path class="cls-9" d="M550.49,169.4s2.12,19.6-3.1,31.7"/><path class="cls-9" d="M534.14,155.15s1.39,11.48-2.49,18.7"/><path class="cls-4" d="M518,254.6s-2.78-26.21,5.37-29.92,21.07,2.37,25.76,8.09c0,0-3.78,14.5-11.28,14.39A28,28,0,0,0,518,254.6Z"/><path class="cls-5" d="M520.16,248A40.77,40.77,0,0,1,532,234.59a20.16,20.16,0,0,1,8.31-3.42,16.91,16.91,0,0,1,4.55,0,20.33,20.33,0,0,1,4.42,1.12,33.39,33.39,0,0,1,7.92,4.33,15.47,15.47,0,0,1,5.43,7.44,12.24,12.24,0,0,1,.43,4.75,10.21,10.21,0,0,1-.55,2.39c-.23.7-.45,1.41-.64,2.12a25.9,25.9,0,0,0-1,9.09L554.54,260a26.47,26.47,0,0,0,5.18-7.57q.48-1,.9-2a7.53,7.53,0,0,0,.53-1.9,10.64,10.64,0,0,0-.19-4,13.73,13.73,0,0,0-4.64-6.87,31.92,31.92,0,0,0-7.48-4.38,17.78,17.78,0,0,0-4.15-1.15,15.88,15.88,0,0,0-4.3,0,18.68,18.68,0,0,0-8,3.21,31.46,31.46,0,0,0-6.41,5.95,40,40,0,0,0-4.86,7.28Z"/><path class="cls-9" d="M537.87,243.09s-.24-8.84,3.23-11.59"/><path class="cls-9" d="M522.86,228.14s10-2.1,16.62,3.59"/><path class="cls-9" d="M531.17,235.62a87.4,87.4,0,0,0-.81,10"/><path class="cls-9" d="M533.63,234a16.92,16.92,0,0,0-13,7"/><path class="cls-5" d="M557.33,260.11a10.05,10.05,0,0,1-1.47-1.16,13.31,13.31,0,0,1-1.16-1.22,18.46,18.46,0,0,1-1.93-2.67,25.63,25.63,0,0,1-2.6-5.85,43.18,43.18,0,0,1-1.75-12.36l0-3.09.25-3.07c0-.51.07-1,.13-1.53l.21-1.52.43-3a46.93,46.93,0,0,1,1.56-6c.6-1.94,1.26-3.85,1.9-5.75,2.6-7.6,5.15-15.17,7-22.91a103.11,103.11,0,0,0,3.32-23.52h2.14a105.51,105.51,0,0,1-3.05,24.1c-1.82,7.89-4.3,15.59-6.79,23.22-.62,1.9-1.24,3.81-1.8,5.7a45.13,45.13,0,0,0-1.39,5.65l-.37,2.93-.19,1.47c-.05.49-.07,1-.1,1.47l-.19,2.93v2.93a39.67,39.67,0,0,0,1.75,11.38,22.37,22.37,0,0,0,2.34,5.08,15,15,0,0,0,1.62,2.19,10.23,10.23,0,0,0,.92.94,7.55,7.55,0,0,0,.89.71Z"/><path class="cls-4" d="M571.28,185c-5.44,2.16-10.47,5.1-13.31,9.08-8.46,11.85,2,33.82,2,33.82s14.59,1.65,25.06-3.17c-5.62-1.82-12.11-4.58-10.74-7.38,1.71-3.5,12.71-.58,18.44,1.23,8.25-12,1.76-39.08,1.76-39.08a104.49,104.49,0,0,0-15,2.83c0,6.32-.51,13.13-2.63,13.15S572.81,190.2,571.28,185Zm16.85,17.23c2.11-.35,4,.18,4.14,1.19s-1.41,2.13-3.53,2.48-4-.18-4.14-1.19S586,202.55,588.13,202.2ZM566,191.69c1.84-.18,3.64,2.79,4,6.63s-.81,7.11-2.66,7.29-3.64-2.79-4-6.64S564.16,191.87,566,191.69Z"/><path class="cls-5" d="M593,182.49c-5,5.75-9.76,11.71-14.39,17.76a210.06,210.06,0,0,0-12.9,18.81,98.22,98.22,0,0,0-5.3,10c-.77,1.72-1.51,3.45-2.13,5.22a20.94,20.94,0,0,0-1.24,5.44,8.35,8.35,0,0,0,1.13,5.23c1.05,1.53,2.12,3.16,3.24,4.7a102.37,102.37,0,0,0,7.16,9.06l-3.78,2.32A102.32,102.32,0,0,0,560,250.59c-.87-1.72-1.78-3.35-2.73-5.07a9.14,9.14,0,0,1-1-2.85,15.55,15.55,0,0,1-.19-3,32.32,32.32,0,0,1,2.84-11.27,91.12,91.12,0,0,1,5.43-10.19,212.39,212.39,0,0,1,13.14-18.86q7-9.1,14.71-17.62Z"/><path class="cls-9" d="M594,213s-17.13-3.25-25-.61"/><path class="cls-9" d="M594.6,193s-9.76.23-13.08,2.32"/><path class="cls-9" d="M559.88,200.81s-1.54,14.2,2.24,22.95"/><path class="cls-9" d="M571.72,190.5s-.34,9.24,2.47,14.47"/><path class="cls-10" d="M563.28,213.89s3.58,33.51-1.1,46"/><rect class="cls-11" x="535.8" y="258.41" width="41" height="13.51"/><path class="cls-12" d="M548.68,307.23h15.23c10.34-5.88,17.84-23.41,17.84-44.11H530.84C530.84,283.82,538.34,301.35,548.68,307.23Z"/><path class="cls-13" d="M546,298.22h5.3c4.83-4.68,8.34-18.63,8.34-35.1H535.8C535.8,279.59,541.13,293.54,546,298.22Z"/><path class="cls-14" d="M144.51,76.14s16.65,15.13,34.72,11.72c9.54-5.21,35.36-16.92,35.36-16.92l2.8,4.68s-25.84,24.66-36.55,27.12-34.59-.5-46.77-9.87S139.55,72.71,144.51,76.14Z"/><path class="cls-15" d="M143.33,74.5a151.06,151.06,0,0,0,21,10.33c-1.34,4.91-2.83,13.4-9.79,18.7a76,76,0,0,1-20.69-8.71c-4.89-3.09-13.53-12.09-12.22-15.51C126,68.13,140.17,72.32,143.33,74.5Z"/><path class="cls-14" d="M213.56,72.58s2.2-6.7,5.46-8.52,4.9-1.74,4.77-1.26c-.25.89-1.81,1.21-2.8,2-.58.49-.83,1-.77,1.09.16.27,4.35-1.25,4.72-.48.55,1.12-2.28,2.18-1.63,2.52s2.84-.84,3.23.26-2.08,1.64-2,2.17,2.4-.38,2.52.88-2.19,1.26-2.25,2.08c0,.32,1.23-.24,1.35,1s-2.8,1.12-3.25,1.11-5.83,2.06-8.79-2.06Z"/><rect class="cls-6" x="241.95" y="30.64" width="7.49" height="259.92"/><rect class="cls-15" x="194.05" y="36.22" width="103.3" height="154.61" rx="3.18"/><rect class="cls-1" x="203.95" y="115.8" width="1.38" height="68.72"/><rect class="cls-1" x="215.7" y="115.8" width="1.38" height="68.72"/><rect class="cls-1" x="227.46" y="115.8" width="1.38" height="68.72"/><rect class="cls-1" x="239.22" y="115.8" width="1.38" height="68.72"/><rect class="cls-1" x="250.97" y="115.8" width="1.37" height="68.72"/><rect class="cls-1" x="262.73" y="115.8" width="1.38" height="68.72"/><rect class="cls-1" x="274.49" y="115.8" width="1.38" height="68.72"/><rect class="cls-1" x="286.24" y="115.8" width="1.38" height="68.72"/><polygon class="cls-16" points="205.13 180.42 204.14 179.37 219.87 161.21 234.88 172.02 253.4 149.92 258.11 154.97 284.3 125.68 285.28 126.75 258.13 157.11 253.45 152.1 235.1 174 220.07 163.17 205.13 180.42"/><polygon class="cls-16" points="286.54 124.29 283.05 125.32 285.6 128.14 286.54 124.29"/><polygon class="cls-17" points="286.06 179.27 247.97 172.48 222.54 151 204.53 153.81 204.34 152.31 222.91 149.4 248.53 171.04 286.28 177.77 286.06 179.27"/><polygon class="cls-17" points="288.55 179 285.7 176.54 285.2 180.5 288.55 179"/><rect class="cls-18" x="203.95" y="50.77" width="14.2" height="54.8"/><rect class="cls-18" x="221.88" y="72.81" width="14.2" height="32.76"/><rect class="cls-18" x="239.81" y="85.96" width="14.2" height="19.61"/><rect class="cls-18" x="257.74" y="81.86" width="14.2" height="23.71"/><rect class="cls-18" x="275.68" y="73.34" width="14.2" height="32.22"/><path class="cls-19" d="M226.17,303.58v-5a6.48,6.48,0,0,1,6.48-6.48h26.1a6.48,6.48,0,0,1,6.48,6.48v5"/><polyline class="cls-20" points="350.18 298.07 319.65 282.81 289.12 298.07"/><line class="cls-20" x1="319.65" y1="282.81" x2="319.65" y2="233.14"/><path class="cls-21" d="M289.82,236.51h76.69l11.72-100.09a13.57,13.57,0,0,0-13.48-15.15H326.81a13.57,13.57,0,0,0-13.23,10.57Z"/><rect class="cls-6" x="300.09" y="236.51" width="37.87" height="6.66" transform="translate(638.04 479.69) rotate(180)"/><circle class="cls-22" cx="345.6" cy="297.96" r="8.22"/><circle class="cls-6" cx="345.6" cy="297.96" r="4.03"/><circle class="cls-22" cx="294.02" cy="297.96" r="8.22"/><circle class="cls-6" cx="294.02" cy="297.96" r="4.03"/><path class="cls-23" d="M274.85,221.62h78.41a13.34,13.34,0,0,1,13.25,14.89H262.27V234.2A12.58,12.58,0,0,1,274.85,221.62Z"/><path class="cls-22" d="M277.65,306.59H259.78a1.81,1.81,0,0,1-1.66-2.54,7.07,7.07,0,0,1,3.25-3.7c3.09-1.33,10.89-4,10.89-4l6.59.18c1.64,1.26,1.78,4.32,1.14,8.57C279.86,306,278.52,306.59,277.65,306.59Z"/><path class="cls-15" d="M257.58,307.13h22.2a1,1,0,0,0,1-1h0a1,1,0,0,0-1-1h-22.2a1,1,0,0,0-1,1h0A1,1,0,0,0,257.58,307.13Z"/><path class="cls-14" d="M273.53,298a3.82,3.82,0,0,0,4.27,0,1.25,1.25,0,0,0,.6-1.06v-4.83h-5.47v4.83A1.28,1.28,0,0,0,273.53,298Z"/><polygon class="cls-23" points="274.11 305.14 270.25 299.44 270.95 298.97 275.12 305.14 274.11 305.14"/><polygon class="cls-23" points="270.94 305.14 267.92 300.68 268.62 300.2 271.95 305.14 270.94 305.14"/><polygon class="cls-23" points="267.77 305.14 265.58 301.91 266.28 301.43 268.79 305.14 267.77 305.14"/><path class="cls-24" d="M266.48,292.42c-6.31-28.35-8.9-67.06-8.9-67.06,5.24-2.58,19.08,7.59,19.08,7.59,8.33,10.4,4.27,34.61,3.5,59.47C277.08,293.36,269.92,293.26,266.48,292.42Z"/><path class="cls-24" d="M277.47,235.16s34.78-9.72,35.66-21.64-.68-16.93-.68-16.93l-16.66.67A42.08,42.08,0,0,0,257.71,225c0,.12-.08.25-.13.37Z"/><path class="cls-25" d="M284.42,117.79c-6.71,11.3-10,33.09-24.2,42.82-10.6,2.45-37.66,10.88-37.66,10.88l1.5,7.86s34.64-2.49,44.85-6.55c16.43-6.53,30.52-30.82,33.38-45.91S287.5,112.61,284.42,117.79Z"/><path class="cls-22" d="M304.67,306.59H286.8a1.81,1.81,0,0,1-1.66-2.54,7.13,7.13,0,0,1,3.26-3.7c3.08-1.33,10.89-4,10.89-4l6.59.18c1.64,1.26,1.78,4.32,1.14,8.57C306.89,306,305.55,306.59,304.67,306.59Z"/><path class="cls-15" d="M284.61,307.13H306.8a1,1,0,0,0,1-1h0a1,1,0,0,0-1-1H284.61a1,1,0,0,0-1,1h0A1,1,0,0,0,284.61,307.13Z"/><path class="cls-14" d="M300.56,298a3.82,3.82,0,0,0,4.27,0,1.25,1.25,0,0,0,.6-1.06v-4.83H300v4.83A1.25,1.25,0,0,0,300.56,298Z"/><polygon class="cls-23" points="301.13 305.14 297.28 299.44 297.98 298.97 302.15 305.14 301.13 305.14"/><polygon class="cls-23" points="297.96 305.14 294.94 300.68 295.64 300.2 298.98 305.14 297.96 305.14"/><polygon class="cls-23" points="294.8 305.14 292.61 301.91 293.31 301.43 295.81 305.14 294.8 305.14"/><path class="cls-7" d="M293.51,292.42c-6.31-28.35-8.9-67.06-8.9-67.06,5.24-2.58,19.07,7.59,19.07,7.59,8.33,10.4,4.28,34.61,3.51,59.47C304.11,293.36,297,293.26,293.51,292.42Z"/><path class="cls-7" d="M305.66,235.16s30.56-3.19,34.5-21.64c2.5-11.69-.68-16.93-.68-16.93l-33.27,1.34a51.9,51.9,0,0,0-21.6,27.43Z"/><path class="cls-24" d="M330.15,205.86s-.7,5.52,6.07,8.91Z"/><path class="cls-26" d="M340.43,198.58s-18.12,8-34.39,7.28-13.41-10.67-13.41-10.67S333.49,195.35,340.43,198.58Z"/><path class="cls-24" d="M284.2,119.61a5.53,5.53,0,0,1,5.18-5.19c10.87-.68,39.83-1.54,45.4,2.89s10.06,81.27,10.06,81.27-32.41,5.2-51.92-2C292.92,196.59,282.5,147.91,284.2,119.61Z"/><path class="cls-14" d="M306.69,120.47h0a7.12,7.12,0,0,0,6.58-7.64l-.78-10.47-14.22,1.06.78,10.47A7.13,7.13,0,0,0,306.69,120.47Z"/><path class="cls-27" d="M299.09,114.4c6,0,10.11-2.75,13.85-6l-.45-6-14.22,1.06Z"/><path class="cls-14" d="M299.05,111.07l3.83-.29a6.82,6.82,0,0,0,3.53-1.28l3.27-2.4a15.26,15.26,0,0,0,6.46-13.4l-1.21-16.13L287,79.66l1.56,20.87a3.68,3.68,0,0,0,.47,1.55C290.38,104.43,294.65,111.4,299.05,111.07Z"/><path class="cls-28" d="M302.58,92.82c.14,1.38.82,2.43,1.53,2.37s1.17-1.25,1-2.62-.82-2.43-1.52-2.36S302.45,91.45,302.58,92.82Z"/><path class="cls-15" d="M302.87,93.33c0,.53.3.94.58.92s.48-.46.44-1-.3-1-.58-.92S302.83,92.8,302.87,93.33Z"/><path class="cls-28" d="M291.54,93.65c.14,1.37.82,2.43,1.52,2.36s1.17-1.24,1-2.61S293.28,91,292.57,91,291.4,92.27,291.54,93.65Z"/><path class="cls-15" d="M291.84,94.16c0,.53.3.94.58.92s.48-.47.44-1-.3-.94-.58-.92S291.8,93.63,291.84,94.16Z"/><path class="cls-27" d="M295.93,96h0a4.93,4.93,0,0,0,1.38-4s1.48,3-1.36,4.29a2.33,2.33,0,0,0,0,.46,2,2,0,0,0,2.1,1.8,1.91,1.91,0,0,0,1.11-.46,1.95,1.95,0,0,1-3.76-.57A1.93,1.93,0,0,1,295.93,96Z"/><path class="cls-27" d="M289.49,98.49a2.22,2.22,0,1,0,2-1.88A2,2,0,0,0,289.49,98.49Z"/><path class="cls-27" d="M304.69,97.35a2.22,2.22,0,1,0,2-1.88A2,2,0,0,0,304.69,97.35Z"/><path class="cls-29" d="M302.2,89.79l5.17-.39-.08-1.17-7.5-.52h0A2.25,2.25,0,0,0,302.2,89.79Z"/><path class="cls-29" d="M289.2,90.76l5.18-.39-.09-1.16-7.5-.53h0A2.25,2.25,0,0,0,289.2,90.76Z"/><path class="cls-15" d="M296.22,101.12a3.2,3.2,0,0,0,6.38-.48Z"/><path class="cls-29" d="M314.67,100.87l1.36-.1a4,4,0,0,0,3.69-4.29L318.1,74.92A5.35,5.35,0,0,0,312.36,70h0Z"/><path class="cls-14" d="M312.65,92.6a4.26,4.26,0,1,0,3.86-5.06A4.52,4.52,0,0,0,312.65,92.6Z"/><path class="cls-27" d="M315.31,92.4A1.67,1.67,0,0,0,317,94c-.64-1.19-1-2.25-.26-3.52A1.67,1.67,0,0,0,315.31,92.4Z"/><rect class="cls-29" x="310.75" y="74.15" width="3.17" height="23.8" transform="translate(630.22 148.51) rotate(175.71)"/><path class="cls-29" d="M310.88,80.9s-16.64,5.32-20,4.92-.67-1.62-.67-1.62-9.95,1.39-10.46-5.18,4-9.67,9.35-9.71,8.14,1.8,8.14,1.8-1.74-3.74,1.08-3.4S310.56,69,313.91,70.5,310.88,80.9,310.88,80.9Z"/><path class="cls-14" d="M265.67,175.73s-5.31-3.62-8.95-2.79-5.62,2.1-5.2,2.36c.79.5,2.16-.19,3.45-.35,1.6-.2,1.63.89,1.65,1,.06.3-7.73,2.56-7.5,3.39.35,1.2,6.47-1.21,6.21-.52s-7.1,2.1-6.66,3.18,7.08-1,7.41-.59-6.39,1.3-5.63,2.32,6.55-.88,7.13-.31c.24.23-5.6.59-4.83,1.62s7.64-.61,8-.91,5.71-2.37,5.16-7.41Z"/><path class="cls-25" d="M323.89,119.45c-6.11,10.9-7.11,32.47-22.82,42-10.59,2.5-36.81,13.14-36.81,13.14l1.66,8.46s34.4,0,44.7-7.37c8.94-6.39,29.33-26.29,32-41.42C346.31,113.07,326.83,114.19,323.89,119.45Z"/><polygon class="cls-15" points="307.85 184.26 297.36 184.26 295.84 162.5 309.37 162.5 307.85 184.26"/><rect class="cls-28" x="294.44" y="162.13" width="16.34" height="4.86"/><path class="cls-14" d="M214.42,166.05c-.22.8,1,1.84,2.77,2.33s3.36.24,3.58-.56-1-1.84-2.77-2.33S214.65,165.25,214.42,166.05Z"/><path class="cls-1" d="M224.75,182H244.7c-5.94-9.88-9.7-19.39-11.08-30.15h-20A60.94,60.94,0,0,0,224.75,182Z"/><path class="cls-14" d="M216.2,170.69c0,.73,1.3,1.32,2.91,1.32s2.91-.59,2.91-1.32-1.3-1.31-2.91-1.31S216.2,170,216.2,170.69Z"/><ellipse class="cls-14" cx="219.81" cy="173.13" rx="2.91" ry="1.31"/><path class="cls-14" d="M217.6,175.57c0,.72,1.3,1.31,2.9,1.31s2.91-.59,2.91-1.31-1.3-1.32-2.91-1.32S217.6,174.84,217.6,175.57Z"/><ellipse class="cls-14" cx="221.6" cy="177.79" rx="2.91" ry="1.31"/><polyline class="cls-20" points="498.52 297.84 467.99 282.58 437.45 297.84"/><line class="cls-20" x1="467.99" y1="282.58" x2="467.99" y2="232.91"/><path class="cls-16" d="M438.15,236.29h76.69l11.73-100.1A13.58,13.58,0,0,0,513.09,121H475.15a13.58,13.58,0,0,0-13.24,10.57Z"/><rect class="cls-6" x="448.42" y="236.29" width="37.87" height="6.66" transform="translate(934.71 479.23) rotate(180)"/><circle class="cls-22" cx="493.94" cy="297.73" r="8.22" transform="translate(-55.34 121.91) rotate(-13.33)"/><circle class="cls-6" cx="493.94" cy="297.73" r="4.03"/><circle class="cls-22" cx="442.35" cy="297.73" r="8.22" transform="translate(-80.97 399.99) rotate(-45)"/><circle class="cls-6" cx="442.35" cy="297.73" r="4.03"/><path class="cls-21" d="M423.19,221.39h78.4a13.34,13.34,0,0,1,13.25,14.9H410.61V234A12.58,12.58,0,0,1,423.19,221.39Z"/><path class="cls-28" d="M500.67,99.29a11.5,11.5,0,0,1-11.5,11.5c-6.35,0-18.93-6.49-18.93-12.84S482.82,87.8,489.17,87.8A11.49,11.49,0,0,1,500.67,99.29Z"/><circle class="cls-28" cx="456.53" cy="88.75" r="21.54"/><path class="cls-23" d="M429.09,306.59H411.22a1.81,1.81,0,0,1-1.65-2.54,7.07,7.07,0,0,1,3.25-3.7c3.08-1.33,10.89-4,10.89-4l6.59.18c1.64,1.26,1.78,4.32,1.14,8.57C431.31,306,430,306.59,429.09,306.59Z"/><path class="cls-15" d="M409,307.13h22.2a1,1,0,0,0,1-1h0a1,1,0,0,0-1-1H409a1,1,0,0,0-1,1h0A1,1,0,0,0,409,307.13Z"/><path class="cls-15" d="M425,298a3.82,3.82,0,0,0,4.27,0,1.25,1.25,0,0,0,.6-1.06v-4.83h-5.47v4.83A1.25,1.25,0,0,0,425,298Z"/><path class="cls-24" d="M430.08,235.16s33.62-9.72,34.5-21.64-.68-16.93-.68-16.93l-16.66.67A42.08,42.08,0,0,0,409.16,225c0,.12-.08.25-.13.37Z"/><path class="cls-12" d="M435.87,117.79c-6.71,11.3-10,33.09-24.2,42.82-10.6,2.45-37.66,10.88-37.66,10.88l1.49,7.86s34.65-2.49,44.86-6.55c16.43-6.53,30.52-30.82,33.38-45.91S438.94,112.61,435.87,117.79Z"/><path class="cls-14" d="M375.87,173.06s-6.1-3.54-9.75-2.73-4.81,2-4.4,2.23c.79.51,2.16-.29,3.45-.33.76,0,1.28.19,1.3.3.06.3-4.08,2-3.85,2.78.34,1.2,3.16.11,2.9.8s-2.68,1.26-2.24,2.34,2.65-.16,3,.25S364.2,180,365,181s2.47-.51,3.06.05c.23.24-1.08.65-.31,1.69s2.84-1,3.17-1.34,5.73-2.33,5.19-7.38Z"/><path class="cls-23" d="M456.12,306.59H438.25a1.81,1.81,0,0,1-1.66-2.54,7.09,7.09,0,0,1,3.26-3.7c3.08-1.33,10.89-4,10.89-4l6.59.18c1.63,1.26,1.78,4.32,1.14,8.57C458.34,306,457,306.59,456.12,306.59Z"/><path class="cls-15" d="M436.05,307.13h22.2a1,1,0,0,0,1-1h0a1,1,0,0,0-1-1h-22.2a1,1,0,0,0-1,1h0A1,1,0,0,0,436.05,307.13Z"/><path class="cls-15" d="M452,298a3.82,3.82,0,0,0,4.27,0,1.25,1.25,0,0,0,.6-1.06v-4.83h-5.47v4.83A1.25,1.25,0,0,0,452,298Z"/><polygon class="cls-15" points="452.58 305.14 448.73 299.44 449.42 298.97 453.6 305.14 452.58 305.14"/><polygon class="cls-15" points="449.41 305.14 446.39 300.68 447.09 300.2 450.43 305.14 449.41 305.14"/><polygon class="cls-15" points="446.25 305.14 444.06 301.91 444.76 301.43 447.26 305.14 446.25 305.14"/><path class="cls-14" d="M430.29,283.58c1.47-21.79,5.23-41.38-2.19-50.63,0,0-13.83-10.17-19.07-7.59,0,0,6.56,31.32,12.42,58.22l4.85.32Z"/><path class="cls-14" d="M455.13,233s-13.83-10.17-19.07-7.59c0,0,6.68,31.92,12.55,58.84a9.67,9.67,0,0,1,2,.32h6.77C458.84,262.75,462.46,242.1,455.13,233Z"/><path class="cls-7" d="M457.11,235.16s35.31-11,36.2-22.89.63-15.68.63-15.68l-36.29,1.34a51.93,51.93,0,0,0-21.59,27.43Z"/><path class="cls-30" d="M481.59,205.86s-.69,5.52,6.08,8.91Z"/><path class="cls-31" d="M473.7,204.88c0,9.89,17.22,6.68,20.27-6"/><path class="cls-26" d="M491.88,198.58s-18.12,8-34.4,7.28-13.4-10.67-13.4-10.67S484.94,195.35,491.88,198.58Z"/><path class="cls-11" d="M435.65,119.61c-.39-2.77,2.39-5,5.18-5.19,10.86-.68,39.83-1.54,45.4,2.89s10.06,81.27,10.06,81.27-32.41,5.2-51.92-2c0,0,0-19.49-2-42.9a7,7,0,0,0-3.28-5.17,7.11,7.11,0,0,1-3.19-7.53C437.08,135.07,436.36,124.71,435.65,119.61Z"/><path class="cls-12" d="M443.8,153l23.18.11S454.16,148.08,443.8,153Z"/><path class="cls-14" d="M458.14,120.47h0a7.13,7.13,0,0,0,6.58-7.64l-.79-10.47-14.21,1.06.78,10.47A7.12,7.12,0,0,0,458.14,120.47Z"/><path class="cls-27" d="M450.54,114.4c6,0,10.11-2.75,13.85-6l-.46-6-14.21,1.06Z"/><path class="cls-14" d="M450.5,111.07l3.83-.29a6.85,6.85,0,0,0,3.53-1.28l3.27-2.4a15.29,15.29,0,0,0,6.46-13.4l-1.21-22.16-27.89,2.09,1.56,26.9a3.68,3.68,0,0,0,.47,1.55C441.83,104.43,446.1,111.4,450.5,111.07Z"/><path class="cls-32" d="M456.59,94.09c-.14-1.38-.82-2.44-1.53-2.37s-1.16,1.24-1,2.62"/><path class="cls-32" d="M445.54,94.91c-.13-1.37-.81-2.43-1.52-2.36s-1.17,1.24-1,2.62"/><path class="cls-27" d="M447.38,96h0a4.93,4.93,0,0,0,1.38-4s1.48,3-1.36,4.29a2.33,2.33,0,0,0,0,.46,2,2,0,0,0,2.1,1.8,1.94,1.94,0,0,0,1.11-.46A1.95,1.95,0,1,1,447.38,96Z"/><path class="cls-27" d="M440.93,98.49a2.22,2.22,0,1,0,2-1.88A2,2,0,0,0,440.93,98.49Z"/><path class="cls-27" d="M456.14,97.35a2.22,2.22,0,1,0,2-1.88A2,2,0,0,0,456.14,97.35Z"/><path class="cls-28" d="M453.65,89.79l5.17-.39-.08-1.17-7.51-.52h0A2.27,2.27,0,0,0,453.65,89.79Z"/><path class="cls-28" d="M440.65,90.76l5.18-.39-.09-1.16-7.5-.53h0A2.25,2.25,0,0,0,440.65,90.76Z"/><path class="cls-15" d="M447.67,101.12a3.2,3.2,0,1,0,6.38-.48Z"/><path class="cls-14" d="M464.1,92.6A4.26,4.26,0,1,0,468,87.54,4.51,4.51,0,0,0,464.1,92.6Z"/><path class="cls-27" d="M466.75,92.4a1.68,1.68,0,0,0,1.7,1.64c-.64-1.19-1-2.25-.26-3.52A1.69,1.69,0,0,0,466.75,92.4Z"/><path class="cls-28" d="M462.05,70.51S454.06,87,435.46,87c0,0-2.56-11,1.93-14.07C447.67,65.77,462.05,70.51,462.05,70.51Z"/><path class="cls-28" d="M461.28,72.11s-10.07,11.47-8.06,13S461.28,74,461.28,74s-3.36,9.76-1.45,10.23S462.83,76,461.28,72.11Z"/><path class="cls-28" d="M468,87.54c-.87-.11-1.91.56-3,1.69a1.39,1.39,0,0,1-2.37-1,64.19,64.19,0,0,0-2.1-16.65h7.15Z"/><path class="cls-33" d="M359.73,152.72l53.61,31.94,2.89-1.59-7.08-30.18a6.9,6.9,0,0,0-6.74-5.4H364.85a4.58,4.58,0,0,0-4.31,3Z"/><path class="cls-28" d="M367,184.66h46.3L406,154.9a5.58,5.58,0,0,0-5.45-4.37h-37.8a3.22,3.22,0,0,0-3.15,3.93Z"/><path class="cls-12" d="M475.34,119.45c-6.11,10.9-6,31.08-18.81,41.16-9.09,2.15-30.73,10.5-36.64,12.81a2.25,2.25,0,0,0-1.43,2.22l.2,4.18A2.27,2.27,0,0,0,420.9,182c7.46.1,32.45,0,41.17-6.28,8.94-6.39,29.33-26.29,32-41.42C497.76,113.07,478.28,114.19,475.34,119.45Z"/><path class="cls-14" d="M421.24,176.29c-.83-2.27-5.17-4.81-8.9-4.83s-5.13.85-4.78,1.2c.65.66,2.16.19,3.43.44.74.15,1.21.46,1.2.58,0,.31-4.41,1-4.37,1.86.07,1.24,3.05.81,2.65,1.42s-2.89.63-2.7,1.78,2.62.44,2.84.91-2.29.83-1.78,2,2.52.05,3,.74c.18.27-1.19.39-.67,1.57s3-.37,3.39-.6S422.94,181,421.24,176.29Z"/><polygon class="cls-33" points="384.1 171.46 380.44 171.46 378.79 164.94 382.45 164.94 384.1 171.46"/><polygon class="cls-33" points="389.4 171.46 385.74 171.46 384.09 164.94 387.75 164.94 389.4 171.46"/><line class="cls-31" x1="482.47" y1="210.39" x2="458.43" y2="227.46"/><path class="cls-15" d="M421.45,283.58c1,4.64,2,9.14,2.93,13.32,3.44.85,2.4-3.89,5.47-4.83.09-2.85.25-5.69.44-8.49Z"/><path class="cls-34" d="M430.09,286.94c0-.57.07-1.15.1-1.71h-8.38c.13.57.25,1.14.38,1.71Z"/><path class="cls-34" d="M429.94,290.11c0-.64.05-1.27.08-1.91h-7.56c.14.65.28,1.27.42,1.91Z"/><path class="cls-15" d="M448.61,284.2c1,4.42,1.91,8.71,2.8,12.7,3.44.85,2.39-2.5,5.47-3.45.1-3.08.27-6.18.48-9.25Z"/><path class="cls-34" d="M457.15,287.74c0-.74.08-1.49.13-2.23H448.9c.16.75.33,1.49.49,2.23Z"/><path class="cls-34" d="M457,290.8c0-.6,0-1.2.07-1.8h-7.4l.39,1.8Z"/><polygon class="cls-35" points="160 305.54 206.22 194.78 198.17 193.16 157.73 305.54 160 305.54"/><polygon class="cls-35" points="196.17 305.54 242.39 194.78 234.34 193.16 193.9 305.54 196.17 305.54"/><polygon class="cls-35" points="518.68 305.54 476.26 194.78 480.51 193.16 520.95 305.54 518.68 305.54"/><polygon class="cls-35" points="482.51 305.54 440.09 194.78 444.34 193.16 484.78 305.54 482.51 305.54"/><rect class="cls-15" x="185.54" y="184.04" width="306.34" height="16.51" transform="translate(677.42 384.59) rotate(180)"/><rect class="cls-36" x="185.54" y="200.55" width="306.34" height="5.36" transform="translate(677.42 406.46) rotate(180)"/><path class="cls-37" d="M139.71,77a5.55,5.55,0,0,0-5.18-5.2c-10.87-.68-39.84-1.54-45.4,2.89S92.3,156,92.3,156s32.41,5.19,51.92-2C144.22,154,141.41,105.31,139.71,77Z"/><path class="cls-38" d="M128.67,305.08h17.87a1.81,1.81,0,0,0,1.66-2.54,7.13,7.13,0,0,0-3.26-3.7c-3.08-1.33-10.89-4-10.89-4l-6.59.18c-1.64,1.26-1.78,4.32-1.14,8.57C126.45,304.45,127.79,305.08,128.67,305.08Z"/><path class="cls-39" d="M148.73,305.62H126.54a1,1,0,0,1-1-1h0a1,1,0,0,1,1-1h22.19a1,1,0,0,1,1,1h0A1,1,0,0,1,148.73,305.62Z"/><path class="cls-14" d="M132.78,296.45a3.82,3.82,0,0,1-4.27,0,1.25,1.25,0,0,1-.6-1.06v-4.83h5.47v4.83A1.25,1.25,0,0,1,132.78,296.45Z"/><path class="cls-39" d="M92.07,309.21H98.3a5.87,5.87,0,0,0,5.18-3.06,6,6,0,0,0,.84-2.77c0-3.85-2.43-7.83-2.43-7.83l-4.14.09s-6.42,4.78-7.83,10.87A2.21,2.21,0,0,0,92.07,309.21Z"/><path class="cls-38" d="M92.07,306.81H98.3a6,6,0,0,0,5.18-2.82,5.31,5.31,0,0,0,.84-2.56,58.32,58.32,0,0,0-.36-6,1.45,1.45,0,0,0-1.46-1.28l-4.75.09s-6.42,4.42-7.83,10A2.09,2.09,0,0,0,92.07,306.81Z"/><path class="cls-14" d="M102.45,295.19a3.78,3.78,0,0,1-4.27,0,1.25,1.25,0,0,1-.6-1.05V289.3h5.47v4.84A1.23,1.23,0,0,1,102.45,295.19Z"/><path class="cls-7" d="M136,290.91c6.3-28.36,8.89-67.06,8.89-67.06-5.24-2.58-15.19,7.59-15.19,7.59-8.33,10.39-4.28,34.61-3.51,59.47A18.34,18.34,0,0,0,136,290.91Z"/><path class="cls-7" d="M128.37,235.41s-8.88-50.2-10.24-62.07,0-18.24,0-18.24L144,152.31l2.71,22.9a32.11,32.11,0,0,1,.45,8.86l-2.33,40.24Z"/><path class="cls-24" d="M138.49,155.1H118.13s-1.37,6.37,0,18.24c.73,6.35,4,24.63,7.31,39.65C123.76,190.81,125.24,162.6,138.49,155.1Z"/><path class="cls-7" d="M95.24,290.87c.14-24.6-2.94-35.86,2.91-61.32,0,0,13.76-9.89,18.89-7.09,0,0-5.14,40.43-11.9,68.59A14.59,14.59,0,0,1,95.24,290.87Z"/><path class="cls-7" d="M98.15,229.55s-4.69-46.72-5.58-58.63.68-16.93.68-16.93l33.27,1.34L117,222.91Z"/><path class="cls-24" d="M102.58,163.26s.7,5.51-6.07,8.9Z"/><path class="cls-31" d="M104.47,157.79s5.24,14.07-9.47,22.53"/><line class="cls-31" x1="98.72" y1="177.66" x2="98.15" y2="229.55"/><rect class="cls-7" x="114.55" y="155.1" width="24.83" height="24.83"/><path class="cls-26" d="M92.3,156s18,5.86,34.22,5.14,17.5-8.81,17.5-8.81S99.24,152.75,92.3,156Z"/><path class="cls-40" d="M129.3,157.63s1.27,21.81-3.21,22.69"/><path class="cls-15" d="M124.2,90.26c-6.87-4.43-13.11-10.18-16-15.77V70.94c0-.17,1.55-1.25,1.75-2,1.37-5.18,14.55,0,14.55,0A4.3,4.3,0,0,1,126,71.05,33.8,33.8,0,0,1,124.2,90.26Z"/><path class="cls-14" d="M122.61,84.69c-2.68,0-12.67-9.25-12.67-13.19V61H124.2V71.5C124.2,75.44,124.2,84.69,122.61,84.69Z"/><path class="cls-27" d="M124.2,72c-6,.49-10.29-2-14.26-5V61H124.2Z"/><path class="cls-14" d="M124,68.69h-3.84a6.91,6.91,0,0,1-3.62-1l-3.44-2.15a15.24,15.24,0,0,1-7.44-12.88V36.47h28V57.4a3.74,3.74,0,0,1-.35,1.57C132.14,61.41,128.4,68.69,124,68.69Z"/><path class="cls-28" d="M119.1,50.75c0,1.38-.63,2.49-1.34,2.47s-1.26-1.15-1.23-2.53.64-2.49,1.35-2.47S119.13,49.37,119.1,50.75Z"/><path class="cls-15" d="M117.82,50.24c0,.53-.23,1-.52,1s-.51-.43-.51-1,.23-1,.51-1S117.82,49.71,117.82,50.24Z"/><path class="cls-28" d="M130.18,50.75c0,1.38-.64,2.49-1.35,2.47s-1.26-1.15-1.22-2.53.63-2.49,1.34-2.47S130.21,49.37,130.18,50.75Z"/><path class="cls-15" d="M128.89,50.24c0,.53-.23,1-.51,1s-.51-.43-.51-1,.23-1,.51-1S128.89,49.71,128.89,50.24Z"/><path class="cls-27" d="M126,53.89h0a4.94,4.94,0,0,1-1.67-3.9s-1.25,3.07,1.67,4.18a1.61,1.61,0,0,1,.06.44,2,2,0,0,1-2,2,1.91,1.91,0,0,1-1.15-.38,2,2,0,0,0,3.71-.84A1.92,1.92,0,0,0,126,53.89Z"/><path class="cls-27" d="M132.44,56a2.22,2.22,0,1,1-2.17-1.72A2,2,0,0,1,132.44,56Z"/><path class="cls-27" d="M117.63,56a2.22,2.22,0,1,1-2.16-1.72A2,2,0,0,1,117.63,56Z"/><path class="cls-28" d="M119.26,47.69h-5.19V46.53l7.44-1.08h0A2.24,2.24,0,0,1,119.26,47.69Z"/><path class="cls-28" d="M132.29,47.69H127.1V46.53l7.44-1.08h0A2.24,2.24,0,0,1,132.29,47.69Z"/><path class="cls-15" d="M126,58.08a3.2,3.2,0,1,1-6.39,0Z"/><path class="cls-28" d="M107.65,59.68h-1.37a4,4,0,0,1-4-4V34.06a5.36,5.36,0,0,1,5.36-5.36h0Z"/><path class="cls-14" d="M109.05,51.28a4.26,4.26,0,1,1-4.24-4.75A4.52,4.52,0,0,1,109.05,51.28Z"/><path class="cls-27" d="M106.38,51.28a1.68,1.68,0,0,1-1.57,1.77c.56-1.24.84-2.33,0-3.53A1.67,1.67,0,0,1,106.38,51.28Z"/><rect class="cls-28" x="107.29" y="32.82" width="3.17" height="20.14"/><path class="cls-28" d="M109.77,28.7h28.62a0,0,0,0,1,0,0v8.73a3.45,3.45,0,0,1-3.45,3.45H104.63a0,0,0,0,1,0,0v-7A5.14,5.14,0,0,1,109.77,28.7Z" transform="translate(243.02 69.59) rotate(180)"/><polygon class="cls-16" points="122.61 84.69 119.1 88.77 125.75 94.9 127.78 87.25 122.61 84.69"/><path class="cls-16" d="M122.27,90.26c5.32,10.43,5.56,26.23,3.22,50.63a19.09,19.09,0,0,0,8.13,9.59c-.61-4,0-7.36,1.84-10-.87-19-3.58-33.64-8.94-49Z"/><polygon class="cls-15" points="122.61 84.69 117.07 90.92 105.65 78.73 104.81 70.94 109.94 68.93 109.94 74.49 122.61 84.69"/><polygon class="cls-15" points="122.61 84.69 128.38 89.8 130.82 76.76 128.89 70.94 124.49 68.92 124.82 79.62 122.61 84.69"/><path class="cls-14" d="M124.83,151.72s6.48-4.79,10.72-4.34,5.71,1.61,5.27,2c-.83.67-2.48-.06-3.95.06-.87.07-1.43.37-1.44.5,0,.36,11.47,2.72,11.35,3.69-.25,2.08-10.19-.5-9.81.25s10.52,2.51,10.16,3.79-10.35-1.26-10.66-.75,8.5,2.11,7.77,3.37-8.88-1.15-9.47-.43c-.24.29,5.53,1.26,4.8,2.54s-7.59-1.48-8-1.78-6.79-1.92-6.83-7.72Z"/><path class="cls-14" d="M92.3,131.92S90.11,120.34,91,114.53l-4.25-1.75c-4.8-2-9.67-3.8-14.4-5.9-.29,11.84,3.72,28.41,7.1,34.8C84.65,151.39,95,145.92,92.3,131.92Z"/><path class="cls-41" d="M98.55,95.24s-2.87,13.52-5.27,24.68c-5.06-.59-15.43-3.13-21.72-9.2A75.71,75.71,0,0,1,77,89c2.31-5.3,9.91-15.24,13.49-14.42C96.83,76,100.24,91.79,98.55,95.24Z"/><path class="cls-15" d="M98.55,95.24a151.27,151.27,0,0,0-7,22.33c-5-.58-13.67-.78-20-6.85A75.71,75.71,0,0,1,77,89c2.31-5.3,9.9-15.2,13.49-14.42C102.23,77.1,100.24,91.79,98.55,95.24Z"/><path class="cls-14" d="M127.77,150.16c-10.48-3-26.3-16.14-38.35-19.11,0,0-10.49,9.35-9.93,10.63,6.32,14.3,48.65,16.91,48.65,16.91S128.84,152,127.77,150.16Z"/><path class="cls-28" d="M378.23,93.81a21.41,21.41,0,0,1,18.76-10c4.12.13,8.22,1,10.63,3.28,7.58,7.3,25.24,6,24.29,19.22-.72,10.07-11.8,15.16,2.75,21,15.4,6.13,25.17,34.12,2.89,46.09s-66.44,3.19-71-14.75c-7.49-29.5,11.54-29,12.06-37.16S374.28,100,374.28,100Z"/><path class="cls-15" d="M311.74,160.33S331.26,184,340,184.26s4.74-17.5,4.74-17.5l-33-14.85Z"/><path class="cls-42" d="M333.13,325.55H346.4l11.79-11.44h0a5.62,5.62,0,0,1-1,7l-3.77,3.49A16.27,16.27,0,0,1,341.29,328l-6.41-.39a2.05,2.05,0,0,1-1.75-2Z"/><path class="cls-15" d="M365.55,140.06c-5.07,5.49-23.64,25.3-28.56,36.28-1.44,3.23,1,6.67,2,7.54,4.14,3.83,35.05-22.83,41.62-29.93s8.53-16,4.38-19.8S372.12,133,365.55,140.06Z"/><path class="cls-11" d="M346.05,180.06l-27.11-5.57a4.73,4.73,0,0,1-3.53-3.14L301.29,129a1.16,1.16,0,0,1,1.33-1.5l27.11,5.58a4.72,4.72,0,0,1,3.53,3.13l14.12,42.35A1.15,1.15,0,0,1,346.05,180.06Z"/><path class="cls-15" d="M324.17,151.88c.48,1.63.07,3.18-.92,3.47s-2.18-.79-2.66-2.41-.07-3.17.92-3.47S323.69,150.26,324.17,151.88Z"/><path class="cls-14" d="M368.36,194.76c-12-1-53.1-5.75-54.06,6.29S357.12,236.65,374,238c22.76,1.78,31.81-16,32.76-28.08S380.33,195.71,368.36,194.76Z"/><path class="cls-11" d="M417.26,132.39H379.12c-6.4,0-10.51,14.22-10.51,14.22l-6.26,18.46a9.59,9.59,0,0,0,9.08,12.66h.38L376,218.37l25.64-4.07,5.6-18.05,18-52.68A8.45,8.45,0,0,0,417.26,132.39Z"/><path class="cls-15" d="M402.54,143.18c-5.79,8.7-26,47.95-20.91,51.34s33.52-30.38,39.32-39.08,6.38-18.51,1.3-21.89S408.34,134.47,402.54,143.18Z"/><path class="cls-14" d="M354.8,309.39c-10.22-8.93-23.43-69.61-27.32-76.17-5.34-9-13.92-13.76-19.17-10.64s-5.19,12.93.15,21.93c4.07,6.86,24.81,44,35.55,60.08,4.63,7.22,1.22,16.59-4.35,16.87s-8,3.78-6.53,4.09c1,.2,6.91.52,10.79.72a9.5,9.5,0,0,0,6.11-1.84c2.06-1.52,4.53-4,6.91-6.18C360.13,315.37,357.11,311.41,354.8,309.39Z"/><path class="cls-14" d="M395.71,243.36c15.06-7.84,18.34-22.48,16.62-32.05-2.13-11.89-33.63-7.33-47.48-4.85s-62.11,10.72-60,22.6c1,5.38,12.72,11.4,27.57,14C348.58,245.91,395.71,243.36,395.71,243.36Z"/><path class="cls-27" d="M327.48,233.22c-3.92-6.6-9.59-10.91-14.41-11.51v30.82c2.73,4.76,6.28,11,10.1,17.58,3-8.11,5.83-16.32,8.47-24.54C329.84,239.36,328.4,234.78,327.48,233.22Z"/><path class="cls-27" d="M313.07,220v16.52a98.59,98.59,0,0,0,19.37,6.56c3.16-10.14,5.62-20.62,5.82-31.27C329,214,319.56,216.76,313.07,220Z"/><path class="cls-24" d="M344.54,243.36h51.17c15.06-7.84,18.34-22.48,16.62-32.05-.56-3.13-6.3-7.81-6.3-7.81s-9-6.3-37.22-9.82c-8.12-1-33.86-3-48.72.59,11.22,3.84,24,30.13,24.56,43.52A49.13,49.13,0,0,1,344.54,243.36Z"/><path class="cls-14" d="M316.62,293a24.54,24.54,0,0,1,.75-12c6.88-21.5,17.24-60.49,17.55-67.4.44-9.61-7.5-18.84-13.32-19.32s-10.9,6.9-11.34,16.51c-.3,6.76,3.52,65.08-4.06,81.77-2.15,4.52-15.24,17.87-9.12,19,0,0,14.89-8.29,18.26-11.38C317.42,298.28,317.17,296,316.62,293Z"/><path class="cls-43" d="M354.8,309.39a4.94,4.94,0,0,1-.5-.45,16,16,0,0,1-12.1,11.67,5.23,5.23,0,0,1-2.54.85c-5.57.28-8,3.78-6.53,4.09,1,.2,6.91.52,10.79.72a9.5,9.5,0,0,0,6.11-1.84c2.06-1.52,4.53-4,6.91-6.18C360.13,315.37,357.23,311.25,354.8,309.39Z"/><path class="cls-43" d="M300.7,300.35c-3.8,5.09-7.43,10.52-3.62,11.22,0,0,14.89-8.29,18.26-11.38,2.82-2.59,1.57-6.09.88-10.84A16.51,16.51,0,0,1,300.7,300.35Z"/><path class="cls-14" d="M349.48,167.4s-1.43-7.66-4.74-10.13-5.11-2.62-5-2.08c.14,1,1.8,1.59,2.76,2.65.56.62.77,1.2.69,1.3-.21.27-9.93-5.62-10.48-4.86-1.19,1.64,7.56,6.36,6.79,6.64s-9.11-5.15-9.69-4,8.16,5.93,8.05,6.5-7.42-4.1-7.73-2.73,7,5,7,5.92c0,.37-4.76-2.74-5.08-1.36s6.35,4,6.85,4,6.08,3.11,9.92-1Z"/><path class="cls-15" d="M384.78,178.34c-3.76-2.5-24.58-10.8-36.59-16.69a28.88,28.88,0,0,1-3.47,9.47,347.81,347.81,0,0,0,29.38,23.29c5.68,3.78,11.69,1.72,13.78-1.42S390.46,182.13,384.78,178.34Z"/><path class="cls-42" d="M297.08,311.57h0a2.14,2.14,0,0,0,2.93.68l15.28-9.41a6,6,0,0,0,2.44-7.29l-.86-2.2s.73,5.18-1.84,7.11S297.08,311.57,297.08,311.57Z"/><ellipse class="cls-14" cx="309.22" cy="149.35" rx="1.35" ry="4.79" transform="translate(87.46 411.54) rotate(-75.56)"/><path class="cls-14" d="M314.74,155.74c-.19.72-2.42.77-5,.11s-4.49-1.78-4.3-2.5,2.41-.78,5-.12S314.92,155,314.74,155.74Z"/><path class="cls-14" d="M314.65,158c-.16.61-2,.65-4.17.09s-3.77-1.49-3.61-2.09,2-.65,4.17-.1S314.8,157.36,314.65,158Z"/><ellipse class="cls-14" cx="309.81" cy="151.91" rx="1.35" ry="5.4" transform="translate(85.42 414.03) rotate(-75.56)"/><path class="cls-14" d="M396.11,140.36h0a6.87,6.87,0,0,0,6.35-7.37l-.76-10.11-13.72,1,.76,10.1A6.87,6.87,0,0,0,396.11,140.36Z"/><path class="cls-27" d="M388.77,134.51c5.83,0,9.77-2.66,13.37-5.83l-.44-5.8-13.72,1Z"/><path class="cls-14" d="M388.73,131.29l3.7-.28a6.57,6.57,0,0,0,3.41-1.24l3.16-2.32a14.73,14.73,0,0,0,6.23-12.92L404.06,99l-26.92,2,1.51,20.15a3.59,3.59,0,0,0,.45,1.49C380.36,124.88,384.49,131.61,388.73,131.29Z"/><path class="cls-28" d="M392.15,113.67c.13,1.33.79,2.35,1.47,2.28s1.13-1.19,1-2.52-.79-2.35-1.47-2.28S392,112.35,392.15,113.67Z"/><path class="cls-15" d="M392.42,114.17c0,.51.29.91.57.88s.46-.45.42-1-.29-.91-.56-.89S392.38,113.66,392.42,114.17Z"/><path class="cls-28" d="M381.48,114.47c.14,1.33.79,2.35,1.48,2.28s1.12-1.19,1-2.52-.79-2.35-1.47-2.28S381.35,113.14,381.48,114.47Z"/><path class="cls-15" d="M381.77,115c0,.52.29.91.56.89s.47-.45.43-1-.29-.91-.56-.89S381.73,114.45,381.77,115Z"/><path class="cls-27" d="M385.73,116.73h0a4.74,4.74,0,0,0,1.32-3.87s1.43,2.87-1.3,4.14a1.53,1.53,0,0,0,0,.43,1.89,1.89,0,0,0,2,1.74,1.84,1.84,0,0,0,1.07-.44,1.88,1.88,0,1,1-3.09-2Z"/><path class="cls-27" d="M379.5,119.14a2.15,2.15,0,1,0,2-1.81A1.92,1.92,0,0,0,379.5,119.14Z"/><path class="cls-27" d="M394.18,118a2.15,2.15,0,1,0,2-1.81A1.92,1.92,0,0,0,394.18,118Z"/><path class="cls-28" d="M391.77,110.74l5-.37-.08-1.13-7.25-.5h0A2.18,2.18,0,0,0,391.77,110.74Z"/><path class="cls-28" d="M379.23,111.68l5-.37-.08-1.13-7.24-.5h0A2.17,2.17,0,0,0,379.23,111.68Z"/><path class="cls-15" d="M386,121.68a3.09,3.09,0,0,0,6.16-.46Z"/><path class="cls-14" d="M401.86,113.46a4.11,4.11,0,1,0,3.73-4.88A4.36,4.36,0,0,0,401.86,113.46Z"/><path class="cls-27" d="M404.43,113.27a1.62,1.62,0,0,0,1.63,1.58c-.62-1.15-1-2.18-.25-3.39A1.61,1.61,0,0,0,404.43,113.27Z"/><path class="cls-28" d="M372.56,107.3l21.16-1.59a6.2,6.2,0,0,0,5.74-6.47h0a8.6,8.6,0,0,0-9.23-7.94l-10,.75a8.6,8.6,0,0,0-7.94,9.23Z"/><path class="cls-28" d="M399.46,99.24s1.39,9.53,4.45,11.44l1.33-2.06,1.26-12.29Z"/><path class="cls-21" d="M344.47,230.45h71.15a0,0,0,0,1,0,0v2.24a12.17,12.17,0,0,1-12.17,12.17h-59a0,0,0,0,1,0,0V230.45A0,0,0,0,1,344.47,230.45Z" transform="translate(760.1 475.31) rotate(180)"/><polyline class="cls-44" points="429.52 320.34 399.98 305.57 370.45 320.34"/><line class="cls-44" x1="399.98" y1="305.57" x2="399.98" y2="241.59"/><path class="cls-16" d="M371.12,244.86h57.37a18.9,18.9,0,0,0,18.78-16.71L456.66,148a13.13,13.13,0,0,0-13-14.65H406.91a13.13,13.13,0,0,0-12.8,10.22Z"/><rect class="cls-6" x="381.06" y="244.86" width="36.64" height="6.44" transform="translate(798.75 496.16) rotate(180)"/><circle class="cls-22" cx="425.09" cy="320.23" r="7.95"/><circle class="cls-6" cx="425.09" cy="320.23" r="3.9"/><circle class="cls-22" cx="375.18" cy="320.23" r="7.95"/><circle class="cls-6" cx="375.18" cy="320.23" r="3.9"/><path class="cls-21" d="M173.33,221.62h61a12.58,12.58,0,0,1,12.58,12.58v2.31a0,0,0,0,1,0,0H173.33a0,0,0,0,1,0,0v-14.9A0,0,0,0,1,173.33,221.62Z"/><polyline class="cls-20" points="158.97 314.53 189.5 299.27 220.03 314.53"/><line class="cls-20" x1="189.5" y1="299.27" x2="189.5" y2="233.14"/><path class="cls-16" d="M219.33,236.51H160.11a19.63,19.63,0,0,1-19.5-17.35l-9.69-82.74a13.57,13.57,0,0,1,13.48-15.15h37.93a13.58,13.58,0,0,1,13.24,10.57Z"/><rect class="cls-6" x="171.19" y="236.51" width="37.87" height="6.66"/><circle class="cls-22" cx="163.55" cy="314.42" r="8.22"/><circle class="cls-6" cx="163.55" cy="314.42" r="4.03"/><circle class="cls-22" cx="215.13" cy="314.42" r="8.22"/><circle class="cls-6" cx="215.13" cy="314.42" r="4.03"/></g></g></svg>