<svg xmlns="http://www.w3.org/2000/svg" viewBox="0 0 634.47 384"><defs><style>.cls-1{opacity:0.4;}.cls-2{fill:#c8baae;}.cls-3{fill:#dbccc1;}.cls-4{fill:#fff;}.cls-5{fill:#f0e8e0;}.cls-6{opacity:0.2;}.cls-7{fill:#171612;}.cls-8{fill:#e59f3f;}.cls-9{opacity:0.5;}.cls-10{fill:#467b6c;}.cls-11{fill:#c04d3a;}.cls-12{fill:#314fa5;}.cls-13{fill:#cabeb0;}.cls-14{fill:#5a554d;}.cls-15{fill:#5880eb;}.cls-16{fill:#eaad8f;}.cls-17{fill:#c6695d;}.cls-18{fill:#1e1d12;}.cls-19{fill:#3560c1;}.cls-20{fill:#b56d25;}.cls-21{fill:#eec66a;}.cls-22{fill:#253f3d;}.cls-23{fill:#1c2b74;}</style></defs><g id="Layer_2" data-name="Layer 2"><g id="OBJECTS"><g class="cls-1"><path class="cls-2" d="M209.4,288.61a151.34,151.34,0,0,1-75.54-34.17c-27.71-23.57-52.55-62-33.46-119.14C136.56,27.07,300.67,9.1,375.38,34.08c118.75,39.69,173.16,200.33,10,252.38C344.77,299.4,253.6,295.27,209.4,288.61Z"/></g><path class="cls-2" d="M88.42,140.38l-.14,0a.47.47,0,0,1-.31-.59c.28-.9.56-1.8.85-2.68a.46.46,0,0,1,.59-.3.47.47,0,0,1,.3.59c-.29.88-.57,1.77-.85,2.67A.47.47,0,0,1,88.42,140.38Zm2-6a.4.4,0,0,1-.15,0,.45.45,0,0,1-.29-.59c.3-.88.62-1.77.94-2.65a.47.47,0,0,1,.88.32c-.32.87-.63,1.76-.94,2.63A.46.46,0,0,1,90.38,134.38Zm2.17-5.92a.32.32,0,0,1-.16,0,.45.45,0,0,1-.27-.6c.34-.87.68-1.75,1-2.61a.47.47,0,1,1,.87.35c-.35.85-.69,1.73-1,2.6A.48.48,0,0,1,92.55,128.46Zm2.39-5.85a.63.63,0,0,1-.19,0,.48.48,0,0,1-.24-.62c.37-.86.75-1.72,1.13-2.57a.47.47,0,1,1,.85.38c-.38.84-.76,1.71-1.12,2.56A.47.47,0,0,1,94.94,122.61Zm2.59-5.75a.51.51,0,0,1-.2,0,.47.47,0,0,1-.22-.62c.4-.84.81-1.69,1.23-2.53a.47.47,0,0,1,.84.41c-.42.84-.83,1.68-1.22,2.52A.46.46,0,0,1,97.53,116.86Zm2.82-5.64a.43.43,0,0,1-.22-.06.47.47,0,0,1-.2-.63c.44-.83.88-1.66,1.33-2.48a.47.47,0,0,1,.82.45c-.44.81-.89,1.64-1.32,2.47A.45.45,0,0,1,100.35,111.22Zm3-5.54a.53.53,0,0,1-.24-.06A.47.47,0,0,1,103,105c.47-.81,1-1.63,1.42-2.42a.47.47,0,0,1,.8.48c-.47.78-.94,1.6-1.41,2.41A.45.45,0,0,1,103.38,105.68Zm3.24-5.41a.47.47,0,0,1-.25-.07.46.46,0,0,1-.14-.64c.49-.79,1-1.59,1.51-2.37a.47.47,0,0,1,.79.51c-.51.78-1,1.57-1.51,2.36A.46.46,0,0,1,106.62,100.27ZM110.09,95a.5.5,0,0,1-.27-.08.47.47,0,0,1-.12-.65c.53-.77,1.07-1.55,1.61-2.31a.47.47,0,0,1,.76.55c-.53.75-1.07,1.52-1.6,2.29A.47.47,0,0,1,110.09,95Zm3.67-5.13a.49.49,0,0,1-.28-.09.45.45,0,0,1-.09-.65c.55-.75,1.13-1.5,1.7-2.24a.47.47,0,0,1,.74.57c-.57.74-1.14,1.49-1.69,2.23A.49.49,0,0,1,113.76,89.87Zm3.89-5a.46.46,0,0,1-.37-.76c.6-.73,1.2-1.46,1.8-2.17a.47.47,0,0,1,.66,0,.46.46,0,0,1,.05.66c-.59.7-1.19,1.43-1.78,2.15A.48.48,0,0,1,117.65,84.9Zm4.08-4.8a.47.47,0,0,1-.31-.12.47.47,0,0,1,0-.66c.62-.7,1.26-1.4,1.89-2.09a.47.47,0,1,1,.69.63c-.63.69-1.26,1.38-1.88,2.08A.48.48,0,0,1,121.73,80.1ZM126,75.46a.44.44,0,0,1-.32-.13.46.46,0,0,1,0-.66c.65-.67,1.32-1.35,2-2a.46.46,0,0,1,.66,0,.47.47,0,0,1,0,.66c-.66.65-1.32,1.32-2,2A.47.47,0,0,1,126,75.46ZM130.5,71a.44.44,0,0,1-.34-.14.47.47,0,0,1,0-.66c.68-.65,1.37-1.29,2.06-1.92a.46.46,0,0,1,.66,0,.47.47,0,0,1,0,.66c-.68.63-1.37,1.28-2,1.92A.49.49,0,0,1,130.5,71Zm4.65-4.25a.48.48,0,0,1-.35-.16.47.47,0,0,1,0-.66L137,64.1a.46.46,0,0,1,.66.06.47.47,0,0,1-.06.66l-2.12,1.82A.47.47,0,0,1,135.15,66.76ZM140,62.69a.47.47,0,0,1-.29-.83c.72-.58,1.47-1.17,2.21-1.74a.45.45,0,0,1,.65.08.46.46,0,0,1-.08.65l-2.19,1.74A.47.47,0,0,1,140,62.69Zm5-3.86a.45.45,0,0,1-.38-.19.46.46,0,0,1,.1-.65c.74-.55,1.51-1.11,2.27-1.65a.47.47,0,1,1,.55.76c-.76.54-1.52,1.09-2.26,1.64A.51.51,0,0,1,145,58.83Zm5.14-3.65a.44.44,0,0,1-.38-.21.45.45,0,0,1,.12-.64c.77-.53,1.56-1,2.34-1.57a.47.47,0,1,1,.51.79c-.77.51-1.56,1-2.32,1.55A.53.53,0,0,1,150.12,55.18Zm5.3-3.44a.47.47,0,0,1-.25-.87c.79-.49,1.6-1,2.4-1.46a.45.45,0,0,1,.64.16.47.47,0,0,1-.16.64c-.8.47-1.6,1-2.39,1.46A.51.51,0,0,1,155.42,51.74Zm5.42-3.23a.47.47,0,0,1-.23-.88l2.46-1.37a.46.46,0,0,1,.63.19.46.46,0,0,1-.18.63l-2.45,1.37A.46.46,0,0,1,160.84,48.51Zm5.55-3a.46.46,0,0,1-.21-.88c.83-.43,1.67-.86,2.51-1.27a.46.46,0,0,1,.62.21.47.47,0,0,1-.21.63l-2.49,1.26A.44.44,0,0,1,166.39,45.49Zm5.67-2.79a.47.47,0,0,1-.43-.27.46.46,0,0,1,.23-.62c.84-.39,1.7-.79,2.56-1.17a.48.48,0,0,1,.62.24.47.47,0,0,1-.24.61c-.85.38-1.71.78-2.55,1.17A.43.43,0,0,1,172.06,42.7Zm5.77-2.56a.47.47,0,0,1-.18-.9c.86-.37,1.74-.72,2.6-1.07a.47.47,0,0,1,.35.87c-.86.34-1.73.7-2.59,1.06A.39.39,0,0,1,177.83,40.14Zm5.87-2.34a.46.46,0,0,1-.16-.9c.88-.33,1.78-.66,2.64-1a.47.47,0,1,1,.32.88c-.87.3-1.75.62-2.64,1A.45.45,0,0,1,183.7,37.8Zm6-2.09a.46.46,0,0,1-.44-.32.47.47,0,0,1,.3-.59c.9-.29,1.8-.58,2.69-.85a.47.47,0,0,1,.58.31.47.47,0,0,1-.31.59c-.88.26-1.78.55-2.67.84A.39.39,0,0,1,189.66,35.71Zm6.06-1.83a.46.46,0,0,1-.13-.91c.93-.26,1.84-.5,2.73-.73a.47.47,0,0,1,.23.91c-.88.22-1.79.46-2.71.72Zm6.15-1.52a.47.47,0,0,1-.46-.37.46.46,0,0,1,.36-.55c1.79-.39,2.77-.54,2.81-.55a.47.47,0,0,1,.53.39.46.46,0,0,1-.39.53s-1,.16-2.76.54Z"/><g class="cls-1"><path class="cls-2" d="M541.76,38c-21.31-20.1-57.61-23.33-76.24-.08-9.41,11.75-10,28.64-6.72,37.89,10.13,28.78,58.84,73.59,94.56,41.21C576.47,96.08,565.26,60.16,541.76,38Z"/></g><path class="cls-2" d="M82,165.55a9.2,9.2,0,0,1-2.1-.24.48.48,0,0,1-.35-.57.46.46,0,0,1,.56-.34,8.37,8.37,0,0,0,2.64.18.48.48,0,0,1,.51.42.47.47,0,0,1-.43.51A7.56,7.56,0,0,1,82,165.55Zm4.12-1.06a.44.44,0,0,1-.41-.24.46.46,0,0,1,.18-.63A8,8,0,0,0,87.94,162a.47.47,0,0,1,.66,0,.46.46,0,0,1,0,.66,8.9,8.9,0,0,1-2.32,1.82A.43.43,0,0,1,86.1,164.49Zm-9.26-.66a.47.47,0,0,1-.28-.09,9,9,0,0,1-2-2.13.47.47,0,0,1,.78-.53A8.05,8.05,0,0,0,77.12,163a.47.47,0,0,1,.09.66A.46.46,0,0,1,76.84,163.83Zm13.22-4.06-.15,0a.47.47,0,0,1-.29-.59,8.21,8.21,0,0,0,.43-2.61.57.57,0,0,1,0-.18.48.48,0,0,1,0-.18,8.14,8.14,0,0,0-.54-2.58.45.45,0,0,1,.26-.6.47.47,0,0,1,.61.26,8.87,8.87,0,0,1,.6,2.88.59.59,0,0,0,0,.4,8.92,8.92,0,0,1-.48,2.91A.46.46,0,0,1,90.06,159.77ZM73.58,158.6a.47.47,0,0,1-.46-.39,9.26,9.26,0,0,1-.15-1.67,9,9,0,0,1,.09-1.27.46.46,0,1,1,.92.13,8.74,8.74,0,0,0-.08,1.14A8.29,8.29,0,0,0,74,158a.47.47,0,0,1-.37.55Zm1.12-6.07a.44.44,0,0,1-.24-.07.46.46,0,0,1-.15-.64,9.1,9.1,0,0,1,1.93-2.22.46.46,0,0,1,.66.06.47.47,0,0,1-.06.66,7.89,7.89,0,0,0-1.74,2A.47.47,0,0,1,74.7,152.53ZM88,151a.47.47,0,0,1-.33-.14,8,8,0,0,0-2.15-1.54.48.48,0,0,1-.21-.63.47.47,0,0,1,.63-.21,9,9,0,0,1,2.39,1.72.47.47,0,0,1-.33.8Zm-8.41-2.19a.46.46,0,0,1-.45-.34.47.47,0,0,1,.32-.58,9,9,0,0,1,2.48-.34h.44a.47.47,0,0,1,.45.49.47.47,0,0,1-.49.44H82a8.32,8.32,0,0,0-2.22.31A.32.32,0,0,1,79.62,148.8Z"/><path class="cls-2" d="M587.66,157.27h0a8.68,8.68,0,0,1-2.1-.25.47.47,0,0,1-.35-.56.47.47,0,0,1,.57-.35,7.86,7.86,0,0,0,1.88.22,6.27,6.27,0,0,0,.75,0,.47.47,0,1,1,.08.93A7.56,7.56,0,0,1,587.66,157.27Zm4.12-1.06a.46.46,0,0,1-.41-.24.47.47,0,0,1,.18-.64,8,8,0,0,0,2.07-1.63.47.47,0,0,1,.7.63,9.11,9.11,0,0,1-2.32,1.82A.43.43,0,0,1,591.78,156.21Zm-9.26-.66a.47.47,0,0,1-.28-.09,9,9,0,0,1-2-2.14.45.45,0,0,1,.12-.64.46.46,0,0,1,.65.12,8.25,8.25,0,0,0,1.82,1.91.46.46,0,0,1,.09.65A.44.44,0,0,1,582.52,155.55Zm13.22-4.07a.39.39,0,0,1-.15,0,.47.47,0,0,1-.29-.59,8.25,8.25,0,0,0,.43-2.61.39.39,0,0,1,0-.18.37.37,0,0,1,0-.18,8.08,8.08,0,0,0-.54-2.58.47.47,0,0,1,.26-.61.48.48,0,0,1,.61.27,9.15,9.15,0,0,1,.61,2.88.52.52,0,0,0,0,.4,9.24,9.24,0,0,1-.47,2.91A.48.48,0,0,1,595.74,151.48Zm-16.48-1.17a.47.47,0,0,1-.46-.38,9.34,9.34,0,0,1-.15-1.67,9,9,0,0,1,.09-1.27.46.46,0,0,1,.53-.4.46.46,0,0,1,.39.53,8.62,8.62,0,0,0-.08,1.14,8.37,8.37,0,0,0,.14,1.5.46.46,0,0,1-.37.54Zm1.12-6.06a.44.44,0,0,1-.24-.07.47.47,0,0,1-.15-.65,9.29,9.29,0,0,1,1.93-2.22.47.47,0,0,1,.6.73,7.89,7.89,0,0,0-1.74,2A.47.47,0,0,1,580.38,144.25Zm13.33-1.55a.43.43,0,0,1-.33-.14,8.21,8.21,0,0,0-2.15-1.54.46.46,0,0,1-.21-.62.47.47,0,0,1,.63-.22A9.2,9.2,0,0,1,594,141.9a.48.48,0,0,1,0,.67A.46.46,0,0,1,593.71,142.7Zm-8.41-2.18a.47.47,0,0,1-.13-.92,9,9,0,0,1,2.48-.35h.44a.48.48,0,0,1,.45.49.48.48,0,0,1-.49.45h-.4a7.94,7.94,0,0,0-2.22.31Z"/><path class="cls-2" d="M563.22,121.89a.45.45,0,0,1-.31-.11.47.47,0,0,1,0-.66c.58-.68,1.15-1.39,1.69-2.09a.45.45,0,0,1,.65-.09.47.47,0,0,1,.09.66c-.54.71-1.12,1.43-1.72,2.13A.44.44,0,0,1,563.22,121.89Zm3.72-5a.48.48,0,0,1-.26-.07.47.47,0,0,1-.13-.65c.5-.77,1-1.57,1.44-2.37a.47.47,0,1,1,.81.46c-.46.82-1,1.63-1.47,2.42A.46.46,0,0,1,566.94,116.91ZM570,111.4a.51.51,0,0,1-.2,0,.47.47,0,0,1-.22-.62c.39-.83.76-1.69,1.09-2.55a.47.47,0,1,1,.88.34c-.35.88-.73,1.75-1.12,2.6A.47.47,0,0,1,570,111.4Zm2.27-5.88-.14,0a.47.47,0,0,1-.31-.59c.27-.87.52-1.77.73-2.67a.48.48,0,0,1,.57-.35.47.47,0,0,1,.34.57c-.22.91-.47,1.83-.75,2.73A.46.46,0,0,1,572.27,105.52Zm1.44-6.14h-.08a.48.48,0,0,1-.39-.54c.15-.91.28-1.83.38-2.75a.48.48,0,0,1,.52-.42.47.47,0,0,1,.41.52c-.1.94-.23,1.88-.38,2.8A.47.47,0,0,1,573.71,99.38Zm.64-6.27h0a.47.47,0,0,1-.45-.49c0-.76,0-1.54,0-2.32v-.46a.45.45,0,0,1,.46-.47h0a.47.47,0,0,1,.47.47v.46c0,.79,0,1.58-.05,2.36A.46.46,0,0,1,574.35,93.11Zm-.09-6.31a.46.46,0,0,1-.46-.43c-.07-.91-.15-1.85-.25-2.78a.47.47,0,0,1,.93-.1c.1.94.19,1.89.25,2.82a.46.46,0,0,1-.44.49Zm-.73-6.26a.48.48,0,0,1-.46-.4c-.14-.9-.31-1.82-.5-2.74a.47.47,0,0,1,.37-.55.47.47,0,0,1,.55.36c.18.93.36,1.87.51,2.78a.47.47,0,0,1-.39.54Zm-1.28-6.19a.46.46,0,0,1-.45-.35c-.22-.89-.47-1.8-.72-2.7a.46.46,0,1,1,.89-.25c.26.9.51,1.82.74,2.72a.47.47,0,0,1-.34.57Zm-1.76-6.06a.47.47,0,0,1-.44-.32c-.29-.87-.6-1.76-.92-2.64a.48.48,0,0,1,.28-.6.47.47,0,0,1,.6.28c.33.89.64,1.79.93,2.67a.48.48,0,0,1-.3.59Zm-2.17-5.93a.48.48,0,0,1-.44-.29c-.34-.86-.71-1.73-1.08-2.58a.48.48,0,0,1,.24-.62.47.47,0,0,1,.62.25c.38.86.74,1.73,1.09,2.6a.47.47,0,0,1-.26.61A.51.51,0,0,1,568.32,62.36Zm-2.54-5.78a.46.46,0,0,1-.42-.27c-.4-.84-.82-1.69-1.24-2.51a.48.48,0,0,1,.21-.63.46.46,0,0,1,.63.21c.42.83.84,1.68,1.24,2.53a.47.47,0,0,1-.22.62A.49.49,0,0,1,565.78,56.58ZM562.91,51a.48.48,0,0,1-.42-.25c-.45-.82-.91-1.64-1.37-2.43a.47.47,0,0,1,.17-.64.46.46,0,0,1,.64.17c.46.8.93,1.63,1.39,2.46a.46.46,0,0,1-.19.63A.46.46,0,0,1,562.91,51ZM559.7,45.5a.47.47,0,0,1-.39-.22c-.94-1.49-1.53-2.32-1.54-2.33a.47.47,0,0,1,.76-.54s.61.86,1.57,2.37a.46.46,0,0,1-.15.64A.44.44,0,0,1,559.7,45.5Z"/><g class="cls-1"><path class="cls-2" d="M539.6,275.36a47,47,0,0,0-7-65c-6.9-5.69-20-2.71-27.66.88C481,222.45,444.41,266,473.22,296.07,496.51,320.37,522.56,297.44,539.6,275.36Z"/></g><ellipse class="cls-2" cx="316.59" cy="372.55" rx="307.7" ry="11.45"/><path class="cls-3" d="M317.54,361.74h-.32c-.14-.52-.3-1.08-.46-1.66.3.59.55,1.13.76,1.61C317.52,361.71,317.53,361.72,317.54,361.74Z"/><path class="cls-3" d="M479.71,363.67H480c.14-.52.3-1.08.46-1.66-.3.59-.55,1.13-.75,1.61Z"/><path class="cls-3" d="M20.87,307.6s-11.08-16-6.92-26.52c4.46-11.34,13.26-4.94,11.72,9.31A56.11,56.11,0,0,1,20.87,307.6Z"/><path class="cls-2" d="M45.75,368a163.32,163.32,0,0,1-13.26-22.74,125.41,125.41,0,0,1-10.27-33.47,177.44,177.44,0,0,1-2-21.2c-.05-1.06-1.7-1.1-1.66,0,.52,12.35,2,24.71,5.4,36.62a134,134,0,0,0,15,33.39c1.57,2.57,3.22,5.09,4.92,7.58Z"/><path class="cls-3" d="M25.11,328.22S5.94,325,1.28,314.68c-5-11.11,5.71-12.95,14.84-1.9A55.89,55.89,0,0,1,25.11,328.22Z"/><path class="cls-3" d="M29.4,339.8s15-12.42,13.76-23.7c-1.27-12.12-11.46-8.31-13.78,5.83A55.9,55.9,0,0,0,29.4,339.8Z"/><path class="cls-3" d="M38.79,357.77s15-12.43,13.77-23.7c-1.28-12.12-11.47-8.32-13.79,5.83A55.9,55.9,0,0,0,38.79,357.77Z"/><path class="cls-3" d="M34.3,351.13S15,353,7.79,344.19c-7.7-9.45,2.18-14,13.85-5.67A55.91,55.91,0,0,1,34.3,351.13Z"/><path class="cls-3" d="M603.05,306.78s9.76-16.81,4.77-27c-5.36-10.94-13.62-3.87-10.93,10.22A55.9,55.9,0,0,0,603.05,306.78Z"/><path class="cls-2" d="M583.09,369a163.14,163.14,0,0,0,11.39-23.73A125.3,125.3,0,0,0,602,311.05a178.11,178.11,0,0,0,.32-21.3c0-1.06,1.61-1.23,1.65-.16a156.6,156.6,0,0,1-2.44,36.94A134.71,134.71,0,0,1,589.29,361q-2.06,4-4.31,8Z"/><path class="cls-3" d="M600.47,327.67s18.86-4.73,22.68-15.4c4.1-11.48-6.74-12.46-14.95-.71A55.83,55.83,0,0,0,600.47,327.67Z"/><path class="cls-3" d="M597.13,339.56s-15.9-11.19-15.62-22.52c.29-12.19,10.76-9.21,14.2,4.71A55.75,55.75,0,0,1,597.13,339.56Z"/><path class="cls-3" d="M589.21,358.22S573.31,347,573.59,335.7c.29-12.19,10.75-9.21,14.2,4.71A55.75,55.75,0,0,1,589.21,358.22Z"/><path class="cls-3" d="M593.15,351.24s19.44.29,25.87-9c6.92-10-3.29-13.77-14.26-4.54A55.81,55.81,0,0,0,593.15,351.24Z"/><path class="cls-4" d="M252.29,29.7H298v94.63H252.29a5.87,5.87,0,0,1-5.87-5.86V35.56A5.87,5.87,0,0,1,252.29,29.7Z"/><rect class="cls-4" x="299.44" y="29.7" width="65.78" height="94.63"/><path class="cls-5" d="M348.74,108.93H318.32a1,1,0,0,1-1-1h0a1,1,0,0,1,1-1h30.42a1,1,0,0,1,1,1h0A1,1,0,0,1,348.74,108.93Z"/><path class="cls-5" d="M348.74,114.46H318.32a1,1,0,0,1-1-1h0a1,1,0,0,1,1-1h30.42a1,1,0,0,1,1,1h0A1,1,0,0,1,348.74,114.46Z"/><path class="cls-4" d="M420.29,35.56v82.91a5.86,5.86,0,0,1-5.86,5.86H366.7V29.7h47.73A5.86,5.86,0,0,1,420.29,35.56Z"/><g class="cls-6"><rect class="cls-7" x="311.97" y="42.09" width="17.73" height="16.74" transform="translate(243.07 365.79) rotate(-85.08)"/></g><rect class="cls-8" x="311.65" y="41.12" width="16.73" height="16.74" transform="translate(243.28 364.08) rotate(-85.08)"/><g class="cls-9"><rect class="cls-2" x="319.44" y="37.09" width="2.8" height="5.7" transform="translate(4.61 -27.36) rotate(4.92)"/></g><g class="cls-6"><rect class="cls-7" x="339.01" y="70.58" width="16.74" height="17.73" transform="translate(-5.53 30.07) rotate(-4.92)"/></g><rect class="cls-10" x="339.83" y="70.1" width="16.74" height="16.73" transform="translate(-5.45 30.14) rotate(-4.92)"/><rect class="cls-2" x="345.98" y="66.08" width="2.8" height="5.7" transform="translate(699.38 107.83) rotate(175.08)"/><g class="cls-6"><rect class="cls-7" x="392.8" y="44.01" width="17.73" height="16.74" transform="translate(315.04 448.08) rotate(-85.08)"/></g><rect class="cls-11" x="392.48" y="43.04" width="16.73" height="16.74" transform="matrix(0.09, -1, 1, 0.09, 315.26, 446.37)"/><g class="cls-9"><rect class="cls-2" x="400.26" y="39.01" width="2.8" height="5.7" transform="translate(5.07 -34.29) rotate(4.92)"/></g><g class="cls-6"><rect class="cls-7" x="268.98" y="85.41" width="16.74" height="17.73" transform="translate(-7.06 24.12) rotate(-4.92)"/></g><rect class="cls-12" x="269.8" y="84.94" width="16.74" height="16.73" transform="translate(-6.97 24.19) rotate(-4.92)"/><g class="cls-9"><rect class="cls-2" x="275.95" y="80.91" width="2.8" height="5.7" transform="translate(560.86 143.44) rotate(175.08)"/></g><path class="cls-5" d="M288.36,40.57H257.94a1,1,0,0,1-1-1h0a1,1,0,0,1,1-1h30.42a1,1,0,0,1,1,1h0A1,1,0,0,1,288.36,40.57Z"/><path class="cls-5" d="M288.36,46.1H257.94a1,1,0,0,1-1-1h0a1,1,0,0,1,1-1h30.42a1,1,0,0,1,1,1h0A1,1,0,0,1,288.36,46.1Z"/><path class="cls-5" d="M288.36,51.62H257.94a1,1,0,0,1-1-1h0a1,1,0,0,1,1-.95h30.42a1,1,0,0,1,1,.95h0A1,1,0,0,1,288.36,51.62Z"/><path class="cls-5" d="M288.36,57.15H257.94a1,1,0,0,1-1-1h0a1,1,0,0,1,1-1h30.42a1,1,0,0,1,1,1h0A1,1,0,0,1,288.36,57.15Z"/><path class="cls-5" d="M288.36,62.67H257.94a1,1,0,0,1-1-1h0a1,1,0,0,1,1-1h30.42a1,1,0,0,1,1,1h0A1,1,0,0,1,288.36,62.67Z"/><path class="cls-5" d="M288.36,68.19H257.94a1,1,0,0,1-1-1h0a1,1,0,0,1,1-1h30.42a1,1,0,0,1,1,1h0A1,1,0,0,1,288.36,68.19Z"/><path class="cls-5" d="M408.71,79.4H378.28a1,1,0,0,1-.95-1h0a1,1,0,0,1,.95-1h30.43a1,1,0,0,1,1,1h0A1,1,0,0,1,408.71,79.4Z"/><path class="cls-5" d="M408.71,84.92H378.28a1,1,0,0,1-.95-1h0a.94.94,0,0,1,.95-.95h30.43a1,1,0,0,1,1,.95h0A1,1,0,0,1,408.71,84.92Z"/><path class="cls-5" d="M408.71,90.45H378.28a1,1,0,0,1-.95-1h0a1,1,0,0,1,.95-1h30.43a1,1,0,0,1,1,1h0A1,1,0,0,1,408.71,90.45Z"/><path class="cls-5" d="M408.71,96H378.28a1,1,0,0,1-.95-1h0a1,1,0,0,1,.95-1h30.43a1,1,0,0,1,1,1h0A1,1,0,0,1,408.71,96Z"/><path class="cls-5" d="M408.71,101.49H378.28a.94.94,0,0,1-.95-.95h0a1,1,0,0,1,.95-1h30.43a1,1,0,0,1,1,1h0A1,1,0,0,1,408.71,101.49Z"/><path class="cls-5" d="M408.71,107H378.28a1,1,0,0,1-.95-1h0a1,1,0,0,1,.95-1h30.43a1,1,0,0,1,1,1h0A1,1,0,0,1,408.71,107Z"/><path class="cls-13" d="M131.92,32.29h11a.67.67,0,0,0,.67-.67.68.68,0,0,0-.67-.68h-11A6.89,6.89,0,0,1,125,24.06v-4.5a8.24,8.24,0,0,0-8.23-8.23H93.06a.67.67,0,0,0-.68.67.68.68,0,0,0,.68.68H116.8a6.89,6.89,0,0,1,6.88,6.88v4.5A8.25,8.25,0,0,0,131.92,32.29Z"/><path class="cls-4" d="M20.62,117.15V6.31a3.08,3.08,0,0,1,3.07-3.07h56.1a3.07,3.07,0,0,1,3.07,3.07V117.15a6.21,6.21,0,0,1-6.21,6.21H26.83A6.21,6.21,0,0,1,20.62,117.15Z"/><path class="cls-5" d="M29.94,87.42H71.4a1.36,1.36,0,0,0,1.37-1.36h0a1.37,1.37,0,0,0-1.37-1.37H29.94a1.36,1.36,0,0,0-1.36,1.37h0A1.36,1.36,0,0,0,29.94,87.42Z"/><path class="cls-5" d="M29.94,96.09H71.4a1.36,1.36,0,0,0,1.37-1.36h0a1.37,1.37,0,0,0-1.37-1.37H29.94a1.36,1.36,0,0,0-1.36,1.37h0A1.36,1.36,0,0,0,29.94,96.09Z"/><path class="cls-5" d="M29.94,104.77H71.4a1.37,1.37,0,0,0,1.37-1.37h0A1.37,1.37,0,0,0,71.4,102H29.94a1.36,1.36,0,0,0-1.36,1.37h0A1.37,1.37,0,0,0,29.94,104.77Z"/><path class="cls-5" d="M29.94,113.44H71.4a1.37,1.37,0,0,0,1.37-1.37h0a1.37,1.37,0,0,0-1.37-1.37H29.94a1.37,1.37,0,0,0-1.36,1.37h0A1.36,1.36,0,0,0,29.94,113.44Z"/><path class="cls-7" d="M20.62,6.31v8.52H82.86V6.31a3.07,3.07,0,0,0-3.07-3.07H23.69A3.08,3.08,0,0,0,20.62,6.31Z"/><path class="cls-14" d="M74.5,9.29a2,2,0,1,0,2-2A2,2,0,0,0,74.5,9.29Z"/><path class="cls-14" d="M67.94,9.29a2,2,0,1,0,2-2A2,2,0,0,0,67.94,9.29Z"/><path class="cls-14" d="M61.66,9.29a2,2,0,1,0,2-2A2,2,0,0,0,61.66,9.29Z"/><rect class="cls-12" x="63.54" y="62.26" width="7" height="16.91"/><rect class="cls-15" x="53.21" y="50.25" width="7" height="28.93"/><rect class="cls-12" x="41.78" y="41.39" width="7" height="37.79"/><rect class="cls-15" x="30.58" y="30.98" width="7" height="48.19"/><polygon class="cls-12" points="43.48 23.57 38.63 25.36 39.19 19.68 43.48 23.57"/><path class="cls-12" d="M72.46,54.05a.51.51,0,0,0,.49-.34.52.52,0,0,0-.3-.68C72.43,53,51.37,44.88,41.1,23.19a.53.53,0,0,0-.7-.25.51.51,0,0,0-.25.7C50.61,45.73,72.06,53.94,72.28,54Z"/><rect class="cls-12" x="529.57" y="2.91" width="104.91" height="21.68" rx="3.12"/><path class="cls-12" d="M534.07,24.59l1.83,8.49a.55.55,0,0,0,1,.16l5-8.65Z"/><rect class="cls-15" x="616.9" y="7.16" width="12.3" height="12.3" rx="1.5"/><rect class="cls-15" x="536.32" y="7.16" width="71.39" height="2.33" rx="0.28"/><rect class="cls-15" x="536.32" y="12.15" width="71.39" height="2.33" rx="0.28"/><rect class="cls-15" x="536.32" y="17.14" width="71.39" height="2.33" rx="0.28"/><rect class="cls-10" x="538.1" y="46.42" width="17.84" height="17.84" rx="1.69"/><path class="cls-4" d="M552.06,51.67,552,51.3a2.71,2.71,0,0,0-.61-1.16,2.78,2.78,0,0,0-.72-.6.83.83,0,0,0-1.08.21c-.5.6-1,1.2-1.49,1.81a.85.85,0,0,0,.13,1.21c.26.24.54.46.82.68l.11.07a7.92,7.92,0,0,1-3.38,4.13l-.61-.5-.31-.25a.86.86,0,0,0-1-.06,1.24,1.24,0,0,0-.28.28l-1.34,1.63a1.15,1.15,0,0,0-.27.58l0,.24a1.57,1.57,0,0,0,.24.4,3,3,0,0,0,.89.65,2.46,2.46,0,0,0,1.27.26,5.15,5.15,0,0,0,.87-.17,6.92,6.92,0,0,0,2-1,10.07,10.07,0,0,0,1.69-1.43A16.9,16.9,0,0,0,550.79,56a8.85,8.85,0,0,0,1.07-2.1,4.67,4.67,0,0,0,.23-1.17c0-.16,0-.32,0-.48S552.08,51.85,552.06,51.67Z"/><path class="cls-8" d="M565.42,46.1h15.1a1.5,1.5,0,0,1,1.5,1.5V62.7a1.5,1.5,0,0,1-1.5,1.5h-15.1a1.51,1.51,0,0,1-1.51-1.51V47.61A1.51,1.51,0,0,1,565.42,46.1Z"/><path class="cls-4" d="M578.75,54.81c0,2.26-1.26,3.43-2.78,3.43a1.89,1.89,0,0,1-1.86-1,1.85,1.85,0,0,1-1.8,1,2.69,2.69,0,0,1-2.5-2.94,2.66,2.66,0,0,1,2.5-2.93,1.85,1.85,0,0,1,1.45.58v-.48H576v3.38c0,.5.21.65.47.65s.6-.33.6-1.65c0-2.14-1.6-3.65-4-3.65A3.85,3.85,0,0,0,569,55.14a3.8,3.8,0,0,0,4,4,5.68,5.68,0,0,0,2.39-.52l.49,1.46a7.23,7.23,0,0,1-2.88.57c-3.56,0-5.84-2.38-5.84-5.48s2.28-5.45,5.89-5.45C576.47,49.69,578.75,52,578.75,54.81Zm-4.94.49c0-.71-.36-1.08-.85-1.08s-.84.37-.84,1.08.36,1.08.84,1.08S573.81,56,573.81,55.3Z"/><rect class="cls-12" x="588.32" y="46.1" width="18.11" height="18.11" rx="1.51"/><path class="cls-4" d="M598.32,59.33v1.29l-1.64,0V59.37a6.92,6.92,0,0,1-3-.83l.9-2a5.58,5.58,0,0,0,2.68.76c.77,0,1.05-.15,1.06-.43,0-1-4.5-.24-4.47-3.27,0-1.31,1-2.4,2.88-2.66V49.69h1.63v1.24a6.09,6.09,0,0,1,2.36.7l-.84,2a5,5,0,0,0-2.26-.63c-.81,0-1.06.23-1.06.51,0,1,4.49.2,4.46,3.19C601,58,600.12,59,598.32,59.33Z"/><path class="cls-16" d="M147,58.71l-.85,1-.89,1-1.79,2q-1.81,2-3.67,4t-3.71,3.87q-1.87,1.9-3.77,3.74c-1.27,1.21-2.55,2.4-3.83,3.53S126,80,124.68,80.94a30.93,30.93,0,0,1-3.54,2.38c-.51.28-1,.47-1.12.55s0,0,0,0h.37a3.44,3.44,0,0,1,.45,0,4,4,0,0,1,.78.21,3,3,0,0,1,.51.25,2,2,0,0,1,.26.19c.09.1.06.11,0,.06a4.62,4.62,0,0,1-.84-1,14.83,14.83,0,0,1-1.07-1.7q-.54-1-1-2.07c-.69-1.45-1.33-3-1.93-4.64s-1.17-3.29-1.71-5c-1.07-3.39-2-6.87-3-10.39q-.67-2.64-1.31-5.31l-.6-2.66-.3-1.33-.29-1.3,0-.12a5.24,5.24,0,0,0-10.34,1.51l.12,1.47.11,1.43c.09,1,.19,1.91.29,2.86.2,1.9.42,3.79.67,5.69.51,3.8,1.12,7.6,1.9,11.43.39,1.92.82,3.84,1.34,5.78s1.08,3.89,1.78,5.89c.36,1,.75,2,1.2,3.06a34.06,34.06,0,0,0,1.6,3.2,21.12,21.12,0,0,0,2.51,3.5A15.2,15.2,0,0,0,113.51,97a15.63,15.63,0,0,0,1.44.93,13,13,0,0,0,1.8.8,12,12,0,0,0,2.14.52,10.92,10.92,0,0,0,1.15.09H121c.54,0,1-.08,1.52-.14s.91-.16,1.32-.26a21.92,21.92,0,0,0,4.1-1.41,35.45,35.45,0,0,0,3.21-1.65c1-.56,1.92-1.14,2.81-1.73,1.78-1.19,3.44-2.4,5-3.65s3.13-2.5,4.62-3.79c3-2.57,5.83-5.21,8.59-7.91,1.38-1.36,2.73-2.73,4.07-4.11.68-.69,1.34-1.39,2-2.09l1-1.07,1-1.12a8.83,8.83,0,0,0-13.05-11.9l-.09.1Z"/><path class="cls-17" d="M121.84,83.31a10.1,10.1,0,0,1,1.31,5c0,.45-.7.36-.7-.09a9.44,9.44,0,0,0-1.26-4.64c-.22-.4.43-.67.65-.28Z"/><path class="cls-17" d="M122.6,84.58,124.91,86c.39.23,0,.79-.42.56l-2.32-1.37c-.39-.23,0-.79.43-.56Z"/><path class="cls-16" d="M97.22,43.32s.17,7.9,3.71,10.08c3,1.85,9.49-2.2,9.49-2.2,2.68-2.12,3.33-3.57,4.53-6.38s-2.77-6.76-2.77-6.76S110.64,25.92,109,24.71,107.45,35,107.45,35a1.94,1.94,0,0,0-1.73-.73,18.33,18.33,0,0,0-7.67,3.18C96.33,38.86,97.22,43.32,97.22,43.32Z"/><path class="cls-17" d="M113,45.84c-2-1.32-4.73-2.8-5.84-5.07-.41-.86-.6-2.14.29-2.77s1.9-.24,2.76-.11c.45.07.36.77-.08.7-.73-.11-2-.52-2.52.27-.36.61.14,1.61.49,2.12a7.58,7.58,0,0,0,1.07,1.19,30.07,30.07,0,0,0,4.25,3.11c.38.25,0,.81-.42.56Z"/><path class="cls-17" d="M107.32,40.08A19,19,0,0,1,98,42.89c-.45,0-.55-.68-.1-.69a18.34,18.34,0,0,0,9-2.67c.38-.24.82.32.43.55Z"/><path class="cls-17" d="M104.47,43.09a8.1,8.1,0,0,1,.22,7.88c-.2.4-.85.14-.65-.27a7.45,7.45,0,0,0-.22-7.34c-.22-.39.43-.66.65-.27Z"/><path class="cls-17" d="M105.29,40.43a14.6,14.6,0,0,0-1.38-5.36c-.22-.4.43-.67.65-.28A15.33,15.33,0,0,1,106,40.33a.35.35,0,0,1-.7.1Z"/><path class="cls-17" d="M102.48,41.8a18.4,18.4,0,0,0-1.36-5.51c-.17-.42.47-.7.64-.28a19,19,0,0,1,1.42,5.69c0,.45-.66.55-.7.1Z"/><path class="cls-17" d="M99.86,42l0,.17-.7.1a9.6,9.6,0,0,0-1.12-4.35c-.21-.4.44-.68.65-.28a10.1,10.1,0,0,1,1.17,4.53.35.35,0,0,1-.7.1l0-.17c-.1-.44.6-.54.69-.1Z"/><path class="cls-17" d="M108,35.36a8.73,8.73,0,0,1,.25,2.88.35.35,0,0,1-.7-.09,7.87,7.87,0,0,0-.25-2.69c-.1-.44.59-.54.7-.1Z"/><path class="cls-11" d="M199.7,65.16c1-4.14-6.87-10.3-2.21-29.18,2-8.12,4.83-31.27-12-35.15S154.8,7.11,157.28,22.74c2.33,14.65-9.3,39-6.13,43.89Z"/><path class="cls-4" d="M138.5,142.59s18.78,16.6,49.56-2.43c0,0-6.44-3.37-5.35-15.31.15-1.6,3.26-10.33,3.82-12.27C189.6,102,198,87.36,203.09,78.44c1.95-3.44,3.65-6,3.84-7.21.78-4.93,1.11-10.87-9.53-14.65s-12.24-8-12.24-8l-19,2.22s-5.23,3.27-9.35,3.53-7.35.17-8.56,4.83c-.68,2.58-.29,5.43-.14,7.9.13,2,.09,3.72-.78,4.87-1,1.37-2.92,3-4.43,5.29-.17.24-.33.5-.49.76a12.29,12.29,0,0,0-1.68,4.71,6,6,0,0,0-.07.74,10.36,10.36,0,0,0,0,1.37,17.44,17.44,0,0,0,.65,3.83c.06.25.14.5.21.75,1.42,4.61,4.11,9.14,4.65,13.61a32.58,32.58,0,0,1-.46,8.27,125.12,125.12,0,0,1-4.35,17.72C135,148.69,138.5,142.59,138.5,142.59Z"/><path class="cls-3" d="M142.39,77.94a120.79,120.79,0,0,1,49.85,7.77c.44.17.63-.54.19-.71a121.44,121.44,0,0,0-49.55-7.82C142.71,77.42,142.55,77.68,142.39,77.94Z"/><path class="cls-3" d="M140.64,83.39a141.37,141.37,0,0,1,49.64,7.06c.45.15.64-.56.19-.71a142,142,0,0,0-49.76-7.09A6,6,0,0,0,140.64,83.39Z"/><path class="cls-3" d="M141.27,88.59c.06.25.14.5.21.75l2.24,0c4.7.11,9.37,0,14.06.49,10.15,1.05,20.05,3.71,29.93,6.16a.37.37,0,0,0,.2-.72c-4.47-1.1-8.92-2.24-13.41-3.26a118,118,0,0,0-23.56-3.36C147.72,88.64,144.49,88.67,141.27,88.59Z"/><path class="cls-3" d="M151.33,106.59a22.23,22.23,0,0,0,19.6,8.25c.49,0,.5-.82,0-.77-7,.73-14.66-2.2-18.93-7.87-.29-.39-1,0-.67.39Z"/><path class="cls-3" d="M163.21,59.19a3.27,3.27,0,0,0,1.57,3.71c1.82,1.08,4.29.82,6.3.68A39.44,39.44,0,0,0,184.9,60c.45-.21.06-.87-.39-.67a38.63,38.63,0,0,1-10.72,3.19,33.62,33.62,0,0,1-5.49.37c-1.93,0-5.15-.85-4.34-3.49a.39.39,0,0,0-.75-.21Z"/><path class="cls-3" d="M195.62,79.68a136.9,136.9,0,0,0-17.71,46.45c-.09.49.66.7.75.21a136,136,0,0,1,17.63-46.27c.26-.42-.41-.81-.67-.39Z"/><path class="cls-17" d="M161.93,22.82a2.87,2.87,0,0,0-2.69,2.42c-.68,2.49.09,6.87,2.72,6.65S161.93,22.82,161.93,22.82Z"/><path class="cls-4" d="M160.68,36.1a3.51,3.51,0,1,1,3.76-3.25A3.51,3.51,0,0,1,160.68,36.1Zm.43-6a2.49,2.49,0,1,0,2.31,2.66A2.5,2.5,0,0,0,161.11,30.11Z"/><line class="cls-16" x1="166.61" y1="43.31" x2="166.61" y2="43.31"/><path class="cls-16" d="M186.77,52.81s-4.24,6.12-11.78,6.32c-9.57.25-10.17-3.93-10.17-3.93a18.45,18.45,0,0,0,1.2-3.82c.11-.51.19-1,.27-1.58a45.69,45.69,0,0,0,.31-5c0-.45,0-.91,0-1.39v0c6.7-.78,12.38-3,16.6-7.44l1-.47.7-.31.08.39-.27,1.2C183.5,42.32,184.23,47.19,186.77,52.81Z"/><path class="cls-7" d="M164.85,50.85c-1.73,2.87-3.36,5.86-3.2,9.31a8.16,8.16,0,0,0,4,7c6.13,3.23,12.11-1.94,15.76-6.42a39.71,39.71,0,0,0,6.26-10.06c.23-.56-.69-.81-.91-.25a38.92,38.92,0,0,1-6.4,10.1c-2.31,2.78-5.08,5.61-8.74,6.4s-7.6-.83-8.69-4.74.73-7.57,2.74-10.89a.48.48,0,0,0-.82-.48Z"/><path class="cls-18" d="M178.1,40.37c-1.74,3-5.59,8.08-11.81,9.43a45.69,45.69,0,0,0,.31-5c0-.45,0-.91,0-1.39l.39.08C170.52,44.1,174.6,42.72,178.1,40.37Z"/><path class="cls-16" d="M194,26.63c-.19,3.56-3.44,7.76-8.11,7.64h-.12c-.09.2-.19.39-.29.59a2.15,2.15,0,0,1-.14.26,0,0,0,0,1,0,0c-3.23,5.89-12,9-16.71,8.86a10.68,10.68,0,0,1-3.12-.57c-4.89-1.34-5.45-8.07-4.4-13.13a18.46,18.46,0,0,1,.55-2.08l0-.13s-1.27-7.23-1.49-10.37c-.42-6.08,3.37-12,16.68-12.52s16,7.9,16.73,12.31c.12.73-.26,5.05-1,5.71A3.55,3.55,0,0,1,194,26.63Z"/><path class="cls-18" d="M163.19,25.59c.07.86.48,1.53.93,1.49s.75-.75.68-1.61-.48-1.53-.92-1.49S163.12,24.74,163.19,25.59Z"/><path class="cls-18" d="M166.19,25a.21.21,0,0,0,.11-.08.23.23,0,0,0-.06-.32c-.08-.06-2.13-1.45-4-.18a.23.23,0,1,0,.26.37c1.56-1.09,3.42.17,3.43.18A.2.2,0,0,0,166.19,25Z"/><path class="cls-18" d="M170.67,25.14c.06.86.48,1.53.92,1.49s.76-.76.69-1.61-.48-1.53-.93-1.49S170.6,24.29,170.67,25.14Z"/><path class="cls-18" d="M174,24.86a.19.19,0,0,0,.12-.07.22.22,0,0,0,0-.32c-.08-.07-1.94-1.71-3.9-.68a.22.22,0,0,0-.1.31.23.23,0,0,0,.31.09c1.69-.88,3.36.6,3.38.62A.24.24,0,0,0,174,24.86Z"/><path class="cls-17" d="M168.15,38.93a1.83,1.83,0,0,0,1.11-.57.31.31,0,0,0,0-.44.32.32,0,0,0-.45,0,1.28,1.28,0,0,1-1.4.27.31.31,0,0,0-.22.59A2,2,0,0,0,168.15,38.93Z"/><path class="cls-4" d="M170.08,35.22A2.19,2.19,0,1,1,167.9,33,2.19,2.19,0,0,1,170.08,35.22Z"/><g class="cls-9"><path class="cls-17" d="M163.86,29.43c0,.53-1.22.89-2.76.88a18.46,18.46,0,0,1,.55-2.08C163,28.47,163.9,29,163.86,29.43Z"/></g><g class="cls-9"><path class="cls-17" d="M172.09,29.94c-.05.6,1.42,1.2,3.27,1.33s3.39-.25,3.43-.85-1.42-1.2-3.27-1.33S172.13,29.34,172.09,29.94Z"/></g><path class="cls-17" d="M185.89,34.27h-.12c-.09.2-.19.39-.29.59a2.15,2.15,0,0,1-.14.26,0,0,0,0,1,0,0,4.25,4.25,0,0,1-1.76-.81,3.48,3.48,0,0,1-.9-1.08.49.49,0,0,1,.2-.65.48.48,0,0,1,.66.2,2.52,2.52,0,0,0,1.09,1.06,3.49,3.49,0,0,0,.82.31Z"/><path class="cls-4" d="M184.72,34.09a3.74,3.74,0,0,0,1,.22.43.43,0,0,1,0,0,2.49,2.49,0,1,0,3.05-2.24.71.71,0,0,1,.08-1,3.52,3.52,0,1,1-4.15,3.21A1.36,1.36,0,0,1,184.72,34.09Z"/><path class="cls-11" d="M190.29,9.86c-2.69-3.1-6.52-5.67-11.3-5.64-6.69,0-13,2-16.6,5.47a9.43,9.43,0,0,0-3.09,5.87c-.73,6.92.83,5.65.83,5.65a8.92,8.92,0,0,1,.26-1.63h0c.17-.88.46-2.23.94-4.31,1.14-4.95,17.08-4.67,15.88-1.51a6,6,0,0,0-.06,1,6.86,6.86,0,0,0,.52,2.53l.36.08A14.51,14.51,0,0,1,182,18.92h0c.13.11,2.44,2,2,4.51s-1.63,5.94.18,5.39a4.45,4.45,0,0,0,2.51-2.64h0a8.26,8.26,0,0,1,4-2.7C191.44,18.94,191.85,14.28,190.29,9.86Z"/><path class="cls-11" d="M194,23.48a8.23,8.23,0,0,0-3.41,0,8.33,8.33,0,0,0-4,2.7h0a4.48,4.48,0,0,1-2.51,2.64c-1.81.55-.67-2.8-.18-5.39s-1.83-4.4-2-4.51h0A14.51,14.51,0,0,0,178,17.4l-.36-.08a6.86,6.86,0,0,1-.52-2.53c1.29-.65,8.15-3.37,12.86-2.25-.92-1.26-.35-4.79-.35-4.79s5,4.77,5.87,8.51S195.08,23.94,194,23.48Z"/><path class="cls-17" d="M166.89,31.27a.36.36,0,0,1-.22-.07L164.91,30a.38.38,0,0,1-.18-.35.39.39,0,0,1,.22-.34,5.84,5.84,0,0,0,2.94-3.94.4.4,0,0,1,.49-.29.41.41,0,0,1,.29.5,6.75,6.75,0,0,1-2.77,4.11l1.22.8a.41.41,0,0,1,.11.56A.41.41,0,0,1,166.89,31.27Z"/><path class="cls-4" d="M168.45,26.51a4.82,4.82,0,1,1,4.82,4.82A4.82,4.82,0,0,1,168.45,26.51Zm.76,0a4.06,4.06,0,1,0,4.06-4.06A4.06,4.06,0,0,0,169.21,26.51Z"/><path class="cls-4" d="M157,26.51a4.82,4.82,0,1,1,4.82,4.82A4.82,4.82,0,0,1,157,26.51Zm.76,0a4.06,4.06,0,1,0,4.06-4.06A4.06,4.06,0,0,0,157.79,26.51Z"/><path class="cls-4" d="M187.45,25.41l.46-.6A11.57,11.57,0,0,0,177,23.6l.26.7A11,11,0,0,1,187.45,25.41Z"/><path class="cls-4" d="M168.62,26.45l.46-.61a2.48,2.48,0,0,0-3,0l.47.59A1.76,1.76,0,0,1,168.62,26.45Z"/><path class="cls-18" d="M171.44,19.93a1,1,0,0,1-.57-1.84,2.86,2.86,0,0,1,2-.21A7.15,7.15,0,0,1,177.71,22s-3.29-1.87-5.17-2A4.93,4.93,0,0,0,171.44,19.93Z"/><path class="cls-18" d="M165.71,20a1,1,0,0,0,.63-1.82,2.87,2.87,0,0,0-2-.26c-3.63.7-3.91,3.28-3.91,3.28A13.19,13.19,0,0,1,164.61,20,5.35,5.35,0,0,1,165.71,20Z"/><path class="cls-17" d="M185.6,31.47a.5.5,0,0,0,.41-.37c.83-3.31,4.9-4.55,4.94-4.56a.49.49,0,0,0,.33-.6.49.49,0,0,0-.6-.33c-.19.06-4.64,1.4-5.6,5.26a.48.48,0,0,0,.35.58A.5.5,0,0,0,185.6,31.47Z"/><path class="cls-17" d="M189.88,29.82l.18-.06a.47.47,0,0,0,.19-.65,3.31,3.31,0,0,0-2.82-1.59.48.48,0,0,0,0,1,2.33,2.33,0,0,1,2,1.09A.49.49,0,0,0,189.88,29.82Z"/><path class="cls-16" d="M207.27,67.08l.47,2.66c.15.88.3,1.75.43,2.62q.42,2.63.78,5.25c.48,3.51.92,7,1.25,10.59s.6,7.16.69,10.86c.05,1.85.06,3.73,0,5.69a42.46,42.46,0,0,1-.66,6.33c-.12.59-.25,1.21-.44,1.89a18.06,18.06,0,0,1-.79,2.24c-.18.41-.41.87-.68,1.35a12.17,12.17,0,0,1-1.1,1.6,9.79,9.79,0,0,1-1.88,1.75,9,9,0,0,1-1.33.8l-.18.09-.13.06-.26.11-.5.19a11.54,11.54,0,0,1-3.31.64,15.3,15.3,0,0,1-2.4-.06,23,23,0,0,1-3.65-.7A45.31,45.31,0,0,1,187.8,119c-1.77-.75-3.45-1.55-5.09-2.38s-3.23-1.69-4.8-2.56-3.11-1.79-4.61-2.75-3-2-4.39-3.05c-.72-.54-1.42-1.09-2.11-1.66-.35-.28-.69-.57-1-.87l-.51-.45-.52-.47a5,5,0,0,1,4.92-8.52l.28.09c.37.12.79.27,1.18.42s.8.29,1.2.45c.79.31,1.58.62,2.36,1,1.57.65,3.11,1.32,4.65,2s3,1.38,4.55,2.06,3,1.34,4.51,2,3,1.17,4.45,1.65a33.5,33.5,0,0,0,4.09,1.11,7.85,7.85,0,0,0,1.45.16c.15,0,.24,0,.18,0a2.13,2.13,0,0,0-.77.14l-.2.08-.11,0-.17.08a5.73,5.73,0,0,0-.78.46,5.32,5.32,0,0,0-.95.86,3.89,3.89,0,0,0-.38.52c-.07.1-.11.18-.12.19s0-.06,0-.22l.08-.64c.05-.52.09-1.16.1-1.84s0-1.41,0-2.15c0-1.49-.15-3.07-.29-4.66-.29-3.19-.71-6.47-1.19-9.76s-1-6.6-1.63-9.91c-.3-1.66-.59-3.31-.91-5l-.47-2.47-.48-2.42,0-.14a8.65,8.65,0,0,1,17-3.36S207.26,67,207.27,67.08Z"/><path class="cls-17" d="M197.16,106.94l2.64-.09c.47,0,.46.7,0,.72l-2.64.09c-.46,0-.46-.7,0-.72Z"/><path class="cls-17" d="M195.58,107.1a6.37,6.37,0,0,1,3.31,2.82.39.39,0,0,0,.67-.39,7.09,7.09,0,0,0-3.77-3.17c-.47-.18-.67.57-.21.74Z"/><rect class="cls-14" x="128.26" y="75.55" width="32.18" height="41.82" transform="translate(-15.47 28.65) rotate(-10.76)"/><rect class="cls-18" x="129.71" y="75.27" width="32.18" height="41.82" transform="translate(-15.39 28.91) rotate(-10.76)"/><path class="cls-14" d="M149.73,74.18s-1.3-2.31-3.6-1.8a3.61,3.61,0,0,0-3.1-2.25,13.44,13.44,0,0,0-5.69,1.23C136,72,136,74.18,136,74.18a4.4,4.4,0,0,0-2.1,1.26,2.75,2.75,0,0,0-.45,1.83Z"/><path class="cls-16" d="M171.58,103.34a5.8,5.8,0,0,1-7.87,1.62,14.15,14.15,0,0,0-4.44-1.88c-3.41-.59-7.61-.35-9.24-1.14-2.42-1.17.27-2.22.62-2.31a40.4,40.4,0,0,1,5.5-.75s-5.79-1.06-8.05-.55-3.9-.77-2.07-2.46,8.46-1.84,10.31-1.39a12.3,12.3,0,0,0-6.49-1c-3.08.59-4.27.39-5.47,0s-.14-2.74,4.19-3.46a13.84,13.84,0,0,1,8.2.77,23.59,23.59,0,0,0-3.85-2.45c-2.52-1.33-6-.36-7-1.73s3.07-2.35,5.55-1.86,4.35.64,7,2.43a41.1,41.1,0,0,1,6.59,5c1.36,1.46,6.89,6,7.2,8.88A3.61,3.61,0,0,1,171.58,103.34Z"/><path class="cls-16" d="M168.94,96.18s-2.41-5.6-4.06-6.83-3.49-4-4.41-2.93,1.43,4.34,1.43,4.34Z"/><path class="cls-16" d="M162.37,213.88c.3,5.38.79,11.79,1.48,19q.54,5.57,1.23,11.76s-1.67,11.73,1.12,30.73c2,13.57,7.37,53.74,8.68,64.37,2.82,3,4.4,2.06,8.37-1.86.71-6.61,3.44-23.74,4.37-33.65,1.3-14,7.26-45.07,0-57.17,1-5.11,2-9.89,2.81-14.35,1.39-7.31,2.46-13.75,3-19.33.75-7.71.5-13.78-1.35-18.28l-28.68.56C162.05,192.83,161.59,200,162.37,213.88Z"/><path class="cls-11" d="M183.93,339.77s3.89,1.58,4,7.06,0,19.59,0,19.59h-2l-1.08-5s-.69,5.41-3.42,8.87-8.64,3.6-12.53,3-1-7.78.57-11.81,4.9-13.69,4.9-13.69Z"/><path class="cls-16" d="M182.9,331.94s-.13,6.68,1,7.83,2.73,4.9,1.58,9.51-1.92,11.33-4.61,14.21-9.7,3-10.27.67,3.55-10.85,3.74-15.27,1-16.32,1-16.32Z"/><path class="cls-17" d="M163.58,230c-.55-6.07-1-11.49-1.21-16.15l31.07-.47c-.44,4.5-1.23,9.57-2.24,15.2C187.88,229.76,171.76,230.7,163.58,230Z"/><path class="cls-17" d="M174.91,245.67a15,15,0,0,1-8.95.46.36.36,0,0,0-.2.7,15.76,15.76,0,0,0,9.34-.46c.44-.16.25-.86-.19-.7Z"/><path class="cls-16" d="M131.34,248.76c2.56,19.85,5.32,79.29,5.75,88.84,2.65,2,5.56,2.31,8.72,0,.66-2.75,4.84-20.19,6.38-31.66,1.68-12.48,8.57-35.94,1.31-48.05,2.63-8.79,5.16-16.58,6.74-25.41a105,105,0,0,0,1.63-18.59,150,150,0,0,0-1.26-18.95L134,193.08s-1.48,9.3-2.5,21.27c-.3,3.51-.56,7.25-.73,11.06A140.43,140.43,0,0,0,131.34,248.76Z"/><path class="cls-11" d="M127.6,360.89c1.91-3.08,19-19.5,19-19.5s3.5,2.75,3.33,5.77c-.16,2.87,0,18-.08,19.61H147.8l-1.17-6.91s-4.73,7.57-8.28,10.16-15.56,2.13-18.44,1.75S125.7,364,127.6,360.89Z"/><path class="cls-16" d="M146.69,333.24l-.28,7.41a8.61,8.61,0,0,1,0,5.48c-1,3.26-4.6,8.44-8.07,12.29-3,3.32-9.41,6.63-11.33,5.76s3.65-7.49,5.28-10.95a58.49,58.49,0,0,0,3.54-9.73c.9-3.3,1-11.05,1-11.05Z"/><path class="cls-17" d="M160.72,229.54a105.08,105.08,0,0,0,1.15-15.65l-30.39.46c-.3,3.44-.55,7.11-.72,10.84C130.76,225.19,141,227.84,160.72,229.54Z"/><path class="cls-17" d="M140,250.33a8.24,8.24,0,0,1-7.84-.5c-.4-.25-.77.38-.37.63a9,9,0,0,0,8.57.5c.43-.19.06-.82-.36-.63Z"/><path class="cls-19" d="M129.14,221.57c1.27.4,2.55.78,3.82,1.13l.63.18a106.53,106.53,0,0,0,25.87,3.78h.67a101,101,0,0,0,12.18-.56L173,226a105.41,105.41,0,0,0,13.23-2.36l.66-.16q3.42-.85,6.83-1.94s9-41.61,2.61-62.57c-4-13.2-12.17-28.16-12.17-28.16-15.5,5.1-26.32,5.24-33.34,4l-.77-.14c-6.82-1.31-9.78-3.86-9.78-3.86A111.35,111.35,0,0,0,135.07,148l-.15.68c-.92,4.13-1.71,8.4-2.37,12.71,0,.25-.08.51-.11.76-.63,4.15-1.14,8.33-1.56,12.44l-.06.62c-.2,2-.38,3.89-.53,5.81,0,.29,0,.58-.07.87-.16,2-.3,4-.42,5.92,0,.24,0,.48-.05.72-.22,3.73-.38,7.3-.49,10.61,0,.37,0,.73,0,1.09C128.83,212.82,129.14,221.57,129.14,221.57Z"/><path class="cls-15" d="M134.92,148.66c3.93-1.21,8.28-1.75,11.65-3.89,2.33-1.49,4.34-3.75,4.66-6.59a7.27,7.27,0,0,0-.37-3.31l-.77-.14a6.74,6.74,0,0,1-.21,5.64c-2.77,5.41-9.45,6-14.81,7.61Z"/><path class="cls-15" d="M132.44,162.13c.55-.21,1.1-.45,1.63-.7,8.79-4.14,15.15-12,22.69-17.85s18-10.53,27.26-5.75c.38.19.72-.38.34-.58A20.82,20.82,0,0,0,169.67,136c-9.33,2.38-16.33,9.55-23.28,15.75-3.71,3.32-7.61,6.6-12.1,8.84-.56.28-1.14.55-1.74.79C132.51,161.62,132.47,161.88,132.44,162.13Z"/><path class="cls-15" d="M130.88,174.57c7.67.15,15-4.82,20.42-10.07,6.75-6.5,12.67-14.58,21.54-18.35a20.59,20.59,0,0,1,14.5-1.06.39.39,0,0,0,0,.14l.27.67c-9.89-3.63-19.55,2.71-26.36,9.36s-12.69,14.57-21.64,18.2a22.34,22.34,0,0,1-8.82,1.73Z"/><path class="cls-15" d="M130.22,181.87A19.54,19.54,0,0,1,143.59,178c2.76.24,6,1.17,7.59,3.67,1.74,2.82-.31,6,.19,9,.43,2.54,2.51,4.28,4.58,5.57a85.26,85.26,0,0,1,7.86,4.91,19.94,19.94,0,0,1,6,7.31,13,13,0,0,1,1.23,5,43.11,43.11,0,0,1-.35,5.2,11.7,11.7,0,0,0,1.6,7.45L173,226a11.19,11.19,0,0,1-.91-1.63c-1.76-3.87,0-8-.48-12-.77-6.36-5.77-11-11-14.19-2.5-1.52-5.48-2.7-7.4-5A5.87,5.87,0,0,1,152,188.7c.16-1.66.69-3.29.55-5-.5-5.73-8-6.89-12.55-6.42a20.43,20.43,0,0,0-9.71,3.69C130.26,181.29,130.24,181.58,130.22,181.87Z"/><path class="cls-15" d="M130.69,202.63A26.64,26.64,0,0,1,133.15,222c-.06.24-.13.48-.19.71l.63.18a26.92,26.92,0,0,0,.66-12.11,28.23,28.23,0,0,0-5-11.65c0,.37,0,.73,0,1.09C129.75,201,130.24,201.8,130.69,202.63Z"/><path class="cls-15" d="M129.75,188.51c3.67-.47,7.57.1,9.21,3.82.82,1.86.78,4,1.33,5.9a9.2,9.2,0,0,0,2.87,4.4c3,2.61,6.85,3.62,10.15,5.67a14.16,14.16,0,0,1,6.29,10.15,26.91,26.91,0,0,1-.14,8.21h.67A26.15,26.15,0,0,0,160,217a14.47,14.47,0,0,0-6.62-9.41c-3.73-2.25-8.54-3.31-11.23-7-2.44-3.35-1-8.19-4.48-11-2.28-1.86-5.09-2.15-7.87-1.78C129.78,188,129.77,188.27,129.75,188.51Z"/><path class="cls-15" d="M165.27,180.61c.42-2.84,2.11-5.27,3.34-7.81a11.53,11.53,0,0,0,1.3-4.36,15.44,15.44,0,0,0-.9-5c-.8-2.71-1.34-5.51.26-8s4.56-4.09,7.38-5a30.37,30.37,0,0,1,11.71-1.42c.42,0,.43.7,0,.67a29.82,29.82,0,0,0-10.55,1.09c-2.78.81-5.71,2.07-7.54,4.42-2.18,2.8-1.24,5.93-.36,9a13.15,13.15,0,0,1,.67,4.3,11.16,11.16,0,0,1-1,3.75c-1.08,2.54-2.78,4.83-3.48,7.53a9.61,9.61,0,0,0,2.27,8.56c3.85,4.69,9.89,6.44,14.47,10.21,5,4.13,6.46,10.4,6.69,16.61-.14.46-.28.92-.43,1.38a.31.31,0,0,1-.21-.31c-.11-6.51-1.41-13.12-6.75-17.39-4.74-3.78-10.88-5.57-14.65-10.55A10.23,10.23,0,0,1,165.27,180.61Z"/><path class="cls-15" d="M190.72,156a17.61,17.61,0,0,0-10.2,12.69,16.79,16.79,0,0,0,4.94,15.15,17.07,17.07,0,0,0,8,4.44c.42.1.24.74-.18.65a18.27,18.27,0,0,1-12.53-10.84A17.41,17.41,0,0,1,183,161.45a17.69,17.69,0,0,1,7.57-6.07c.4-.17.57.48.18.64Z"/><path class="cls-15" d="M189.32,151.92a112.67,112.67,0,0,1,4.35,37,109.72,109.72,0,0,1-7.4,34.73l.66-.16A107.48,107.48,0,0,0,192.29,205a113.47,113.47,0,0,0,1-37.18A110.15,110.15,0,0,0,181.91,132c-.17-.32-.65,0-.48.29A108.88,108.88,0,0,1,189.32,151.92Z"/><path class="cls-15" d="M185.39,133.1s-.6-6.74-2.57-8c0,0-20.26,8.27-40.47-1.19a10.05,10.05,0,0,0-2.55,8.27S154.11,142.86,185.39,133.1Z"/><polygon class="cls-8" points="116.42 323.4 116.1 324.6 115.76 325.88 105.97 362.76 105.51 364.47 103.39 372.45 76.02 372.45 73.81 364.16 73.6 363.35 72.05 357.49 71.81 356.6 70.43 351.4 70.22 350.64 65.48 332.77 65.31 332.11 62.99 323.4 116.42 323.4"/><path class="cls-20" d="M72.94,348.21a27.74,27.74,0,0,1-2.51,3.19l-.2-.76a25.69,25.69,0,0,0,2.13-2.76c1.79-2.59,3.58-5.63,2.59-8.87a9,9,0,0,0-6-5.74,11.66,11.66,0,0,0-3.45-.5l-.17-.66a12,12,0,0,1,4.46.75,9.65,9.65,0,0,1,5.82,6C76.63,342.26,74.82,345.47,72.94,348.21Z"/><path class="cls-20" d="M104,323.4c-2.37,2.06-4.8,4.06-7.31,6-3.13,2.36-6.57,5.19-10.45,6.17-3.24.81-6.69,0-8.51-3-1.7-2.76-1.51-6-.9-9.12h.68c-.73,3.71-.91,8.13,2.41,10.58s7.52.77,10.57-1.12a87.6,87.6,0,0,0,9.28-6.76c1.08-.88,2.16-1.78,3.22-2.7Z"/><path class="cls-20" d="M116.1,324.6l-.34,1.28a28.59,28.59,0,0,0-3.62,4.83c-3.77,6.31-5.4,13.89-6.14,21.14a52.35,52.35,0,0,0,0,10.91l-.45,1.71c-.14-1-.25-1.91-.33-2.87a61.78,61.78,0,0,1,2.77-23A33.53,33.53,0,0,1,116.1,324.6Z"/><path class="cls-20" d="M102.65,334.11a61.74,61.74,0,0,0-6.88,38.34h-.7c-.06-.46-.13-.92-.18-1.37a62.53,62.53,0,0,1,14.33-47.68h.87A61.9,61.9,0,0,0,102.65,334.11Z"/><path class="cls-20" d="M90.49,352.35c-.27,6.71-1.82,13.4-2.36,20.1h-.66c.11-1.45.28-2.89.47-4.33.59-4.58,1.42-9.12,1.77-13.72a31.35,31.35,0,0,0,0-7.18c-.34-2.17-1.66-4.67-4.16-4.69s-4.21,2-5.63,3.69-2.9,3.7-4.24,5.62-2.49,3.73-3.62,5.65l-.24-.89q2.37-3.94,5.14-7.66c2.13-2.86,5.36-8.14,9.68-6.91S90.63,348.93,90.49,352.35Z"/><path class="cls-20" d="M81.52,371.38c0,.36-.12.72-.19,1.07h-.69a26.57,26.57,0,0,0,.53-7.29,6.71,6.71,0,0,0-.87-3.41c-1.09-1.58-3-.81-4.22.13a11.15,11.15,0,0,0-2.27,2.28l-.21-.81A11.55,11.55,0,0,1,76,361.1c2.13-1.45,4.5-1.17,5.37,1.44S82,368.62,81.52,371.38Z"/><ellipse class="cls-7" cx="89.7" cy="323.4" rx="26.71" ry="1.7"/><path class="cls-10" d="M89.74,282s-15.45-8.09-16.07-22.18a34.2,34.2,0,0,1,.34-6.21l6.87,3.89c-.08-.11-3.39-4.7-6-8.16,3.53-14.55,13.71-28,13.71-28a94.94,94.94,0,0,1,10.52,18.14h0l-4.35,10.15,5.89-6.33C105.55,256.7,106.71,272.94,89.74,282Z"/><path class="cls-7" d="M88.65,242.12c.89,21.47.73,43,.68,64.47q0,8.4,0,16.8a.36.36,0,0,0,.71,0c.07-21.7.19-43.41-.18-65.11-.1-5.39-.22-10.77-.45-16.16,0-.46-.73-.46-.71,0Z"/><path class="cls-7" d="M80.76,247.21l8.37,9.13c.31.33.81-.17.5-.51l-8.37-9.13c-.31-.34-.81.17-.5.51Z"/><path class="cls-7" d="M98.74,253.63l-9.41,8.05c-.35.3.16.8.5.51l9.41-8.06c.35-.3-.16-.8-.5-.5Z"/><path class="cls-7" d="M80,263.9l9.46,8c.35.29.86-.21.51-.51l-9.47-8c-.35-.29-.86.21-.5.51Z"/><path class="cls-10" d="M99,304.47s16.27.71,23.37-10.39a31,31,0,0,0,2.64-5.17l-7.37-.08c.12-.05,4.95-2.21,8.71-3.76,4-13.41,2-29,2-29a89.14,89.14,0,0,0-17,9.72h0L110.12,276l-1.79-7.87C98.05,276.64,89.5,289.22,99,304.47Z"/><path class="cls-7" d="M117.94,272.44c-7.62,11.95-15.45,23.79-22.47,36.12q-3.15,5.52-6.07,11.15c-.21.41.4.77.61.36,6.55-12.59,14-24.63,21.68-36.57,2.29-3.57,4.59-7.13,6.87-10.7.24-.39-.37-.74-.62-.36Z"/><path class="cls-7" d="M122.35,279.93,111,283.47c-.44.13-.25.82.19.68l11.31-3.53c.43-.14.25-.83-.19-.69Z"/><path class="cls-7" d="M104.33,277.54q1.88,5.34,3.74,10.69c.16.43.84.24.69-.19q-1.87-5.34-3.74-10.69c-.15-.43-.84-.25-.69.19Z"/><path class="cls-7" d="M115.15,293.78l-11.63,2c-.45.08-.25.77.19.69l11.63-2.05c.45-.08.26-.76-.19-.68Z"/><path class="cls-10" d="M81.92,309.08s-15.61,4.65-25.21-4.38a32.07,32.07,0,0,1-3.82-4.37L60,298.45c-.12,0-5.33-.93-9.36-1.52-7.12-12-9.06-27.65-9.06-27.65a88.55,88.55,0,0,1,18.86,5.27h0l3.7,9.62L64,276.11C76,281.86,87.39,292,81.92,309.08Z"/><path class="cls-7" d="M55.2,283.14q13.56,12.8,26,26.63,4,4.41,7.88,8.85c.31.34.81-.16.51-.5-8.24-9.3-16.52-18.55-25.37-27.27q-4.21-4.16-8.53-8.21c-.33-.32-.84.18-.51.5Z"/><path class="cls-7" d="M53.26,291.69l11.54.65c.46,0,.46-.68,0-.71L53.26,291c-.46,0-.46.69,0,.72Z"/><path class="cls-7" d="M69.44,284.25q-.52,5.76-1,11.52c0,.45.67.45.71,0q.52-5.76,1-11.52c0-.45-.67-.45-.71,0Z"/><path class="cls-7" d="M63.61,303.36l11.19-.83c.45,0,.46-.75,0-.71l-11.19.83c-.45,0-.45.74,0,.71Z"/><path class="cls-16" d="M502.12,67.62c.22.87.45,1.68.68,2.51s.47,1.65.71,2.47c.47,1.65,1,3.28,1.49,4.91q1.53,4.9,3.28,9.77T512,97c.66,1.62,1.37,3.24,2.1,4.87s1.54,3.27,2.42,5c.45.84.93,1.7,1.47,2.59a29.64,29.64,0,0,0,2,2.89c.1.13.23.28.35.42l.18.22.09.1.11.12.44.48.55.52a12.43,12.43,0,0,0,2.23,1.63,16.14,16.14,0,0,0,2,1c.64.26,1.23.46,1.82.65a27.15,27.15,0,0,0,3.28.75c1.05.17,2.05.3,3,.38a54.79,54.79,0,0,0,5.67.19,90.71,90.71,0,0,0,10.69-.84q2.61-.35,5.19-.83c.86-.16,1.72-.34,2.58-.52.43-.08.86-.19,1.29-.29l.64-.15.68-.16a4.68,4.68,0,0,0-.91-9.22h-.15l-4.9-.21c-1.64-.07-3.28-.16-4.9-.25-3.25-.2-6.47-.44-9.54-.83-.77-.1-1.52-.21-2.26-.33s-1.46-.25-2.15-.4-1.35-.3-2-.48a12.72,12.72,0,0,1-1.6-.56,4.27,4.27,0,0,1-.53-.27.54.54,0,0,1-.23-.18s.08,0,.21.11a.44.44,0,0,1,.1.08h0l0,0-.05-.07c-.16-.28-.46-.8-.74-1.37s-.59-1.22-.89-1.88c-.59-1.34-1.17-2.79-1.74-4.26s-1.12-3-1.67-4.52c-1.09-3-2.13-6.17-3.18-9.3l-6.18-18.88a8,8,0,0,0-15.41,4.47Z"/><path class="cls-17" d="M531.59,103.78a7.09,7.09,0,0,0-3.8,2.78c-.2.29-.68,0-.48-.27a7.61,7.61,0,0,1,4.14-3,.27.27,0,0,1,.14.52Z"/><path class="cls-17" d="M526.85,104a3.52,3.52,0,0,1,2.72-.15c.33.12.18.65-.15.53a2.92,2.92,0,0,0-2.3.1c-.32.15-.59-.32-.27-.48Z"/><path class="cls-7" d="M535,105.74h53.54a2.73,2.73,0,0,1,2.77,2.63,2.68,2.68,0,0,1-2.68,2.74H529.17l.89-2.1A5.38,5.38,0,0,1,535,105.74Z"/><path class="cls-7" d="M538.87,111.11h44.92a2.71,2.71,0,0,0,2.47-1.59l12.28-26.81a2.72,2.72,0,0,0-2.47-3.85H551.15a2.73,2.73,0,0,0-2.47,1.59L536.4,107.26A2.72,2.72,0,0,0,538.87,111.11Z"/><path class="cls-4" d="M543.88,111.11H588.8a2.73,2.73,0,0,0,2.47-1.59l12.28-26.81a2.72,2.72,0,0,0-2.47-3.85H556.16a2.71,2.71,0,0,0-2.47,1.59l-12.28,26.81A2.72,2.72,0,0,0,543.88,111.11Z"/><path class="cls-7" d="M571,95a3.9,3.9,0,1,0,3.9-3.9A3.9,3.9,0,0,0,571,95Z"/><path class="cls-16" d="M555.3,114.07a6.1,6.1,0,0,0,5.91,2.31,12.27,12.27,0,0,0,3.56-1.16c.87-.44,1.94-1.23,2.7-1.15,1.89.21,2.57-1.09,3-1.21a3.44,3.44,0,0,0,1.84.32,6.3,6.3,0,0,0,2.27-.72h0c1.88,0,3.51.05,4-.32,1.06-.74,2.08-7.94.28-8.24-2.38-.39-1.17,4.92-3.34,5.93,0,0,1.63-6.72-1.05-7.21-1.83-.34-2.12,6.35-4.06,7.57,0,0,1.84-6.22-.14-7.22s-2,6.5-4,6.69c-.41,0,1.64-5.31-.73-5.6s-1,6.11-8.06,6C554.75,110,553.59,111.76,555.3,114.07Z"/><path class="cls-11" d="M465.33,66.86c-1-4.14,6.86-10.3,2.21-29.18-2-8.12-4.83-31.27,12-35.15s30.73,6.28,28.25,21.91c-2.33,14.65,9.3,39,6.12,43.89Z"/><path class="cls-4" d="M526.52,144.29s-18.77,16.6-49.55-2.43c0,0,6.44-3.37,5.35-15.31-.15-1.6-3.26-10.33-3.82-12.27C475.43,103.7,467,89.06,461.93,80.14c-1.94-3.44-3.64-6-3.84-7.21-.77-4.93-1.1-10.87,9.54-14.65s12.24-8,12.24-8l19,2.22s5.22,3.27,9.35,3.53,7.34.17,8.56,4.83c.68,2.58.29,5.43.13,7.9-.12,2-.08,3.72.78,4.87,1,1.37,2.93,3,4.44,5.29.17.24.33.5.49.76a12.46,12.46,0,0,1,1.68,4.71c0,.24.06.49.07.74a12.41,12.41,0,0,1,0,1.37,17.44,17.44,0,0,1-.65,3.83c-.06.25-.14.5-.21.75-1.42,4.61-4.11,9.14-4.65,13.61a32.58,32.58,0,0,0,.46,8.27,125.12,125.12,0,0,0,4.35,17.72C530.07,150.39,526.52,144.29,526.52,144.29Z"/><path class="cls-3" d="M522.64,79.64a121,121,0,0,0-49.85,7.77c-.44.17-.63-.54-.2-.7a121.35,121.35,0,0,1,49.56-7.83C522.32,79.12,522.48,79.38,522.64,79.64Z"/><path class="cls-3" d="M524.39,85.09a141.15,141.15,0,0,0-49.64,7.07c-.45.14-.64-.57-.19-.72a142,142,0,0,1,49.76-7.09C524.35,84.59,524.38,84.84,524.39,85.09Z"/><path class="cls-3" d="M523.76,90.29c-.06.25-.14.5-.21.75l-2.24,0c-4.7.11-9.37,0-14.06.49-10.15,1-20.05,3.71-29.93,6.16-.46.11-.66-.6-.2-.72,4.47-1.1,8.92-2.24,13.41-3.26a117.81,117.81,0,0,1,23.56-3.36C517.31,90.34,520.54,90.37,523.76,90.29Z"/><path class="cls-3" d="M513.7,108.29a22.25,22.25,0,0,1-19.61,8.25c-.49-.05-.49-.82,0-.77,7,.73,14.67-2.2,18.94-7.87.29-.39,1,0,.67.39Z"/><path class="cls-3" d="M502.58,62.32A3.24,3.24,0,0,1,501,66c-1.81,1.09-4.29.82-6.3.69a39.72,39.72,0,0,1-13.82-3.58c-.45-.21-.06-.88.39-.67A39,39,0,0,0,492,65.65a34.9,34.9,0,0,0,5.5.37c1.92,0,5.14-.86,4.34-3.49-.15-.48.6-.68.74-.21Z"/><path class="cls-3" d="M469.41,81.38a136.9,136.9,0,0,1,17.71,46.45c.09.49-.66.7-.75.21a136,136,0,0,0-17.63-46.27c-.26-.42.41-.81.67-.39Z"/><path class="cls-17" d="M503.1,24.52a2.88,2.88,0,0,1,2.69,2.42c.68,2.49-.09,6.87-2.72,6.65S503.1,24.52,503.1,24.52Z"/><path class="cls-4" d="M500.59,34.55a3.51,3.51,0,1,1,3.75,3.25A3.52,3.52,0,0,1,500.59,34.55Zm1-.08a2.49,2.49,0,1,0,2.31-2.66A2.49,2.49,0,0,0,501.61,34.47Z"/><line class="cls-16" x1="498.42" y1="45.01" x2="498.42" y2="45.01"/><path class="cls-16" d="M478.26,54.51s4.23,6.12,11.77,6.32c9.58.25,10.18-3.93,10.18-3.93A17.89,17.89,0,0,1,499,53.08c-.1-.51-.19-1-.26-1.58a45.69,45.69,0,0,1-.31-5c0-.44,0-.91,0-1.39v0c-6.71-.78-12.38-3.05-16.6-7.44l-1.05-.47-.7-.31-.08.39.27,1.2C481.53,44,480.8,48.89,478.26,54.51Z"/><path class="cls-7" d="M499.44,52c3.53,4.29,6,12.5.72,16.51a9.1,9.1,0,0,1-8.41,1c-3.27-1.14-5.79-3.7-7.95-6.3a40.13,40.13,0,0,1-6.64-10.52c-.23-.57.69-.81.91-.25a39.15,39.15,0,0,0,6.66,10.4c2.48,2.95,5.57,5.9,9.6,6.27a6.92,6.92,0,0,0,7.84-6.3c.41-3.52-1.18-7.42-3.4-10.12-.38-.46.28-1.14.67-.67Z"/><path class="cls-18" d="M486.93,42.07c1.74,3,5.58,8.08,11.81,9.43a45.69,45.69,0,0,1-.31-5c0-.44,0-.91,0-1.39l-.39.08C494.51,45.8,490.43,44.43,486.93,42.07Z"/><path class="cls-16" d="M471,28.33c.19,3.56,3.44,7.76,8.11,7.64h.12c.09.2.19.39.29.59s.09.18.13.26l0,0c3.23,5.89,12,9,16.71,8.86a10.68,10.68,0,0,0,3.12-.57c4.89-1.34,5.45-8.07,4.4-13.13a18.46,18.46,0,0,0-.55-2.08l-.05-.13s1.28-7.23,1.5-10.37c.42-6.08-3.37-12-16.68-12.52s-16,7.9-16.73,12.31c-.12.73.26,5.05,1,5.71A3.55,3.55,0,0,0,471,28.33Z"/><path class="cls-17" d="M497.44,38.18a5.36,5.36,0,0,1-4-2.14.5.5,0,1,1,.79-.6c.09.11,2.21,2.81,4.81,1.28a.5.5,0,0,1,.68.17.51.51,0,0,1-.17.69A4.16,4.16,0,0,1,497.44,38.18Z"/><path class="cls-18" d="M501.84,28c-.07.86-.48,1.53-.93,1.49s-.75-.75-.68-1.61.48-1.52.92-1.49S501.91,27.19,501.84,28Z"/><path class="cls-18" d="M498.84,26.72a.21.21,0,0,1-.11-.08.23.23,0,0,1,.06-.32c.08-.06,2.13-1.45,3.95-.18a.23.23,0,0,1-.26.38c-1.56-1.1-3.42.16-3.44.17A.18.18,0,0,1,498.84,26.72Z"/><path class="cls-18" d="M494.36,27.59c-.07.86-.48,1.53-.93,1.49s-.75-.76-.68-1.61.48-1.53.93-1.49S494.43,26.74,494.36,27.59Z"/><path class="cls-18" d="M491,26.56a.19.19,0,0,1-.12-.07.22.22,0,0,1,0-.32c.08-.07,1.94-1.71,3.9-.68a.23.23,0,0,1,.1.31.23.23,0,0,1-.31.09c-1.69-.88-3.37.6-3.38.62A.21.21,0,0,1,491,26.56Z"/><path class="cls-17" d="M496.88,40.63a1.83,1.83,0,0,1-1.11-.57.31.31,0,1,1,.47-.41,1.3,1.3,0,0,0,1.41.27.31.31,0,0,1,.21.59A2,2,0,0,1,496.88,40.63Z"/><g class="cls-9"><path class="cls-17" d="M501.17,31.13c0,.53,1.22.89,2.76.88a18.46,18.46,0,0,0-.55-2.08C502.06,30.17,501.13,30.65,501.17,31.13Z"/></g><g class="cls-9"><path class="cls-17" d="M492.94,31.64c.05.6-1.42,1.2-3.27,1.33s-3.39-.24-3.43-.85,1.42-1.2,3.27-1.33S492.9,31,492.94,31.64Z"/></g><path class="cls-17" d="M479.14,36h.12c.09.2.19.39.29.59s.09.18.13.26l0,0a4.3,4.3,0,0,0,1.76-.81,3.33,3.33,0,0,0,.89-1.08.48.48,0,0,0-.85-.45,2.52,2.52,0,0,1-1.09,1.06,3.39,3.39,0,0,1-.83.31Z"/><path class="cls-4" d="M480.31,35.79a3.74,3.74,0,0,1-1,.22.07.07,0,0,0,0,.05,2.49,2.49,0,1,1-3.06-2.24.7.7,0,0,0-.07-1A3.52,3.52,0,1,0,480.33,36,1.36,1.36,0,0,0,480.31,35.79Z"/><path class="cls-11" d="M474.74,11.56c2.69-3.1,6.52-5.67,11.29-5.64,6.7,0,13,2,16.61,5.47a9.43,9.43,0,0,1,3.09,5.87c.73,6.92-.83,5.65-.83,5.65a8.92,8.92,0,0,0-.26-1.63h0c-.17-.88-.46-2.23-.94-4.31-1.14-4.95-17.08-4.67-15.88-1.51a6,6,0,0,1,.06,1,6.86,6.86,0,0,1-.52,2.53l-.36.08a14.51,14.51,0,0,0-3.92,1.52h0c-.13.11-2.44,2-2,4.51s1.63,5.94-.18,5.39a4.42,4.42,0,0,1-2.51-2.64h0a8.29,8.29,0,0,0-4-2.7C473.59,20.64,473.17,16,474.74,11.56Z"/><path class="cls-11" d="M471,25.18a8.23,8.23,0,0,1,3.41,0,8.38,8.38,0,0,1,4,2.7h0a4.44,4.44,0,0,0,2.51,2.64c1.81.55.67-2.8.18-5.39s1.83-4.4,2-4.51h0A14.51,14.51,0,0,1,487,19.1l.36-.08a6.86,6.86,0,0,0,.52-2.53c-1.29-.65-8.15-3.37-12.86-2.25.92-1.26.35-4.79.35-4.79s-5,4.77-5.87,8.51S470,25.64,471,25.18Z"/><path class="cls-17" d="M498.14,33a.36.36,0,0,0,.22-.07l1.76-1.16a.42.42,0,0,0,.18-.35.41.41,0,0,0-.22-.34,5.82,5.82,0,0,1-2.94-3.94.4.4,0,0,0-.49-.29.41.41,0,0,0-.29.5,6.75,6.75,0,0,0,2.77,4.11l-1.22.8a.41.41,0,0,0-.11.56A.41.41,0,0,0,498.14,33Z"/><path class="cls-4" d="M491.76,33a4.82,4.82,0,1,1,4.81-4.82A4.82,4.82,0,0,1,491.76,33Zm0-8.88a4.06,4.06,0,1,0,4.06,4.06A4.06,4.06,0,0,0,491.76,24.15Z"/><path class="cls-4" d="M503.18,33A4.82,4.82,0,1,1,508,28.21,4.83,4.83,0,0,1,503.18,33Zm0-8.88a4.06,4.06,0,1,0,4.06,4.06A4.06,4.06,0,0,0,503.18,24.15Z"/><path class="cls-4" d="M477.58,27.11l-.47-.6A11.6,11.6,0,0,1,488,25.3l-.26.7A11,11,0,0,0,477.58,27.11Z"/><path class="cls-4" d="M496.41,28.15l-.46-.61a2.5,2.5,0,0,1,3,0l-.48.59A1.74,1.74,0,0,0,496.41,28.15Z"/><path class="cls-18" d="M493.59,21.63a1,1,0,0,0,.57-1.84,2.81,2.81,0,0,0-2-.2,7.09,7.09,0,0,0-4.86,4.06s3.29-1.87,5.17-2A4.93,4.93,0,0,1,493.59,21.63Z"/><path class="cls-18" d="M499.32,21.71a1,1,0,0,1-.63-1.82,2.87,2.87,0,0,1,2-.26c3.63.7,3.91,3.28,3.91,3.28a13.19,13.19,0,0,0-4.16-1.24A6.17,6.17,0,0,0,499.32,21.71Z"/><path class="cls-17" d="M479.43,33.17a.5.5,0,0,1-.42-.37c-.82-3.31-4.89-4.55-4.93-4.56a.48.48,0,0,1-.33-.6.49.49,0,0,1,.6-.33c.18.06,4.64,1.4,5.6,5.26a.48.48,0,0,1-.35.58A.52.52,0,0,1,479.43,33.17Z"/><path class="cls-17" d="M475.15,31.52a.43.43,0,0,1-.18-.06.47.47,0,0,1-.19-.65,3.31,3.31,0,0,1,2.82-1.59.48.48,0,1,1,0,1,2.37,2.37,0,0,0-2,1.09A.46.46,0,0,1,475.15,31.52Z"/><path class="cls-16" d="M502.66,215.58c-.3,5.38-.79,11.79-1.48,19q-.54,5.56-1.24,11.76s1.68,11.73-1.11,30.73c-2,13.57-7.37,53.75-8.68,64.37-2.82,3-4.41,2.06-8.37-1.86-.71-6.61-3.45-23.74-4.37-33.65-1.3-14-7.26-45.06,0-57.17-1-5.11-2-9.89-2.81-14.35-1.39-7.31-2.46-13.75-3-19.33-.75-7.71-.5-13.78,1.35-18.28l28.68.56C503,194.53,503.44,201.65,502.66,215.58Z"/><path class="cls-11" d="M481.1,341.47s-3.89,1.58-4,7.06,0,19.59,0,19.59h2l1.08-5s.68,5.41,3.42,8.87,8.64,3.6,12.53,3,1-7.78-.57-11.81-4.9-13.68-4.9-13.68Z"/><path class="cls-16" d="M482.13,333.64s.12,6.68-1,7.83-2.74,4.9-1.58,9.51,1.92,11.33,4.61,14.21,9.7,3,10.27.67-3.55-10.85-3.74-15.27-1-16.32-1-16.32Z"/><path class="cls-17" d="M501.44,231.73c.56-6.06,1-11.49,1.22-16.15l-31.07-.47c.44,4.5,1.23,9.57,2.24,15.2C477.15,231.46,493.27,232.4,501.44,231.73Z"/><path class="cls-17" d="M490.12,247.37a15,15,0,0,0,8.95.46.36.36,0,0,1,.19.7,15.76,15.76,0,0,1-9.34-.46c-.43-.16-.24-.86.2-.7Z"/><path class="cls-16" d="M533.69,250.46c-2.56,19.85-5.32,79.29-5.75,88.84-2.65,2.05-5.56,2.31-8.72,0-.66-2.75-4.85-20.19-6.39-31.66-1.67-12.48-8.56-35.94-1.3-48.05-2.63-8.79-5.16-16.58-6.74-25.4a105.19,105.19,0,0,1-1.63-18.6,149.87,149.87,0,0,1,1.25-19l26.64-1.86s1.48,9.3,2.5,21.27c.3,3.51.56,7.25.73,11.06A140.43,140.43,0,0,1,533.69,250.46Z"/><path class="cls-11" d="M537.42,364.11c-1.91-3.08-19-19.5-19-19.5s-3.5,2.75-3.34,5.77.05,18,.09,19.61h2.07l1.18-6.91s4.73,7.57,8.28,10.16,15.56,2.13,18.44,1.75S539.33,367.19,537.42,364.11Z"/><path class="cls-16" d="M517.68,332.72l.94,11.15a8.61,8.61,0,0,0,0,5.48c1,3.26,4.59,8.44,8.06,12.29,3,3.32,9.42,6.63,11.34,5.76s-3.65-7.49-5.29-10.95a58.38,58.38,0,0,1-3.53-9.73c-.9-3.3-1-11.05-1-11.05Z"/><path class="cls-17" d="M504.31,231.24a105.08,105.08,0,0,1-1.15-15.65l30.39.46c.3,3.44.55,7.11.72,10.84C534.27,226.89,524.05,229.54,504.31,231.24Z"/><path class="cls-17" d="M525,252a8.24,8.24,0,0,0,7.84-.5c.4-.25.77.38.37.63a9,9,0,0,1-8.58.5c-.42-.19,0-.82.37-.63Z"/><path class="cls-19" d="M535.89,223.27c-1.27.4-2.55.78-3.82,1.13l-.63.18a106.53,106.53,0,0,1-25.87,3.78h-.67a101,101,0,0,1-12.18-.56l-.73-.08a105.41,105.41,0,0,1-13.23-2.36l-.66-.16q-3.44-.86-6.84-1.94s-8.94-41.61-2.6-62.57c4-13.2,12.17-28.16,12.17-28.16,15.5,5.1,26.32,5.24,33.34,4l.77-.15c6.82-1.31,9.77-3.86,9.77-3.86A109.18,109.18,0,0,1,530,149.68c.06.23.11.45.16.68.92,4.13,1.7,8.4,2.37,12.71,0,.25.07.51.11.76.62,4.15,1.14,8.33,1.56,12.44l.06.62c.2,2,.37,3.89.53,5.81,0,.29,0,.58.07.87q.24,3,.42,5.92c0,.24,0,.48,0,.72.23,3.73.39,7.3.5,10.61,0,.37,0,.73,0,1.09C536.2,214.52,535.89,223.27,535.89,223.27Z"/><path class="cls-15" d="M530.11,150.36c-3.93-1.21-8.28-1.75-11.65-3.89-2.33-1.49-4.34-3.75-4.66-6.59a7.21,7.21,0,0,1,.37-3.3l.77-.15a6.71,6.71,0,0,0,.21,5.64c2.77,5.41,9.45,6,14.8,7.61C530,149.91,530.06,150.13,530.11,150.36Z"/><path class="cls-15" d="M532.59,163.83c-.55-.21-1.1-.45-1.63-.7-8.79-4.14-15.15-12-22.7-17.85s-18-10.53-27.25-5.75c-.39.19-.72-.38-.34-.58a20.82,20.82,0,0,1,14.69-1.26c9.33,2.38,16.32,9.55,23.28,15.75,3.71,3.32,7.61,6.6,12.1,8.84.56.28,1.14.55,1.74.79C532.52,163.32,532.55,163.58,532.59,163.83Z"/><path class="cls-15" d="M534.15,176.27c-7.67.15-15-4.82-20.42-10.07-6.75-6.5-12.67-14.58-21.54-18.35a20.59,20.59,0,0,0-14.5-1.06.39.39,0,0,1,0,.14l-.27.67c9.89-3.63,19.54,2.71,26.36,9.36s12.69,14.57,21.64,18.2a22.34,22.34,0,0,0,8.82,1.73Z"/><path class="cls-15" d="M534.81,183.57a19.54,19.54,0,0,0-13.37-3.92c-2.76.24-6,1.17-7.59,3.67-1.74,2.82.31,6-.19,9-.43,2.54-2.51,4.28-4.59,5.57a86.47,86.47,0,0,0-7.85,4.91,20.14,20.14,0,0,0-6,7.31,13.38,13.38,0,0,0-1.23,5,45.27,45.27,0,0,0,.36,5.2,11.7,11.7,0,0,1-1.6,7.45l-.73-.08a11.19,11.19,0,0,0,.91-1.63c1.76-3.87,0-8,.48-12,.77-6.36,5.77-11,11-14.19,2.5-1.52,5.48-2.7,7.4-5A5.87,5.87,0,0,0,513,190.4c-.16-1.66-.7-3.29-.55-5,.5-5.73,8-6.89,12.55-6.42a20.43,20.43,0,0,1,9.71,3.69C534.76,183,534.79,183.28,534.81,183.57Z"/><path class="cls-15" d="M534.33,204.33a26.68,26.68,0,0,0-2.45,19.36c.06.24.12.48.19.71l-.63.18a26.92,26.92,0,0,1-.66-12.11,28.23,28.23,0,0,1,5-11.65c0,.37,0,.73,0,1.09C535.27,202.69,534.79,203.5,534.33,204.33Z"/><path class="cls-15" d="M535.27,190.21c-3.67-.47-7.56.1-9.2,3.82-.83,1.86-.78,4-1.33,5.9a9.23,9.23,0,0,1-2.87,4.4c-3,2.61-6.85,3.62-10.15,5.67a14.13,14.13,0,0,0-6.29,10.15,26.6,26.6,0,0,0,.14,8.21h-.67a26.15,26.15,0,0,1,.13-9.7,14.47,14.47,0,0,1,6.62-9.41c3.73-2.24,8.54-3.31,11.22-7,2.45-3.35,1-8.18,4.49-11,2.28-1.86,5.09-2.15,7.87-1.78C535.25,189.73,535.26,190,535.27,190.21Z"/><path class="cls-15" d="M499.75,182.31c-.41-2.84-2.1-5.27-3.33-7.81a11.53,11.53,0,0,1-1.3-4.36,15.44,15.44,0,0,1,.9-5c.79-2.71,1.34-5.51-.26-8.05s-4.57-4.09-7.38-5a30.37,30.37,0,0,0-11.71-1.42c-.42,0-.43.7,0,.67a29.82,29.82,0,0,1,10.55,1.09c2.78.81,5.71,2.07,7.54,4.42,2.18,2.8,1.24,5.93.35,9a13.41,13.41,0,0,0-.66,4.3,11.16,11.16,0,0,0,1,3.75c1.08,2.54,2.77,4.83,3.48,7.53a9.64,9.64,0,0,1-2.27,8.56c-3.85,4.69-9.89,6.44-14.47,10.21-5,4.13-6.46,10.4-6.69,16.61.14.46.28.92.43,1.38a.32.32,0,0,0,.21-.31c.11-6.5,1.41-13.12,6.75-17.39,4.74-3.78,10.87-5.57,14.65-10.55A10.18,10.18,0,0,0,499.75,182.31Z"/><path class="cls-15" d="M474.31,157.72a17.61,17.61,0,0,1,10.2,12.69,16.81,16.81,0,0,1-4.94,15.15,17.07,17.07,0,0,1-8,4.44c-.42.1-.24.74.18.65a18.27,18.27,0,0,0,12.53-10.84,17.41,17.41,0,0,0-2.18-16.66,17.69,17.69,0,0,0-7.57-6.07c-.4-.17-.57.48-.18.64Z"/><path class="cls-15" d="M475.71,153.62a112.67,112.67,0,0,0-4.35,37,109.72,109.72,0,0,0,7.4,34.73l-.66-.16a107.48,107.48,0,0,1-5.36-18.52,113.47,113.47,0,0,1-1-37.18,109.91,109.91,0,0,1,11.37-35.8c.17-.32.65,0,.48.29A107.44,107.44,0,0,0,475.71,153.62Z"/><path class="cls-15" d="M479.64,134.8s.6-6.74,2.57-8c0,0,20.25,8.27,40.47-1.19a10.09,10.09,0,0,1,2.55,8.27S510.92,144.57,479.64,134.8Z"/><path class="cls-16" d="M442.89,112.53c.13-1.36.33-2.61.55-3.81.44-2.4,1-4.62,1.59-6.8,1.19-4.33,2.57-8.45,4-12.51s3-8,4.58-12q1.2-3,2.45-5.9l1.25-2.93.64-1.47.67-1.5a8.56,8.56,0,1,1,15.65,6.94l0,.09-.6,1.35-.61,1.4-1.2,2.8c-.79,1.87-1.57,3.76-2.33,5.64-1.53,3.77-3,7.56-4.34,11.34s-2.61,7.57-3.63,11.26c-.5,1.84-1,3.66-1.26,5.36-.09.47-.16.93-.23,1.37.07.07.15.14.21.21,1.1,1.06,2.23,2.12,3.4,3.16,2.32,2.07,4.75,4.08,7.24,6s5.07,3.79,7.71,5.57l2.17,1.44c-.59,2.09-.86,4.5-1.14,5.22-.68,1.66-2.57,4.17-3.08,5.88-1.33-.58-2.66-1.17-4-1.78q-4.69-2.16-9.25-4.64t-9-5.29c-1.47-.95-2.94-1.92-4.4-2.94-.73-.51-1.46-1-2.19-1.58l-1.1-.83-.57-.44-.29-.24-.16-.13-.19-.17-.05,0a8.34,8.34,0,0,1-2.55-5.38A26.48,26.48,0,0,1,442.89,112.53Z"/><path class="cls-17" d="M453.06,112.56a9.93,9.93,0,0,1,6.65.77c.37.18.68-.39.3-.57a10.62,10.62,0,0,0-7.14-.82c-.41.1-.22.71.19.62Z"/><path class="cls-17" d="M454.51,109.87l3.22,2.61c.32.27.76-.21.44-.47L455,109.4c-.32-.26-.76.21-.44.47Z"/><path class="cls-16" d="M481,128.92s-3.79-.44-4.54,2.26,3.25,7.95,4.78,9.7,1.42-3.72.17-5.81a5.12,5.12,0,0,1-.9-3.54Z"/><path class="cls-16" d="M478.1,137.71s-4.07-.56-4.82,2.13,3.25,7.95,4.78,9.7,1.42-3.72.17-5.8-.73-3.3-.73-3.3Z"/><path class="cls-16" d="M475.9,141.67s-3.59-.49-4.25,1.89,2.87,7,4.22,8.57,1.25-3.29.15-5.13-.65-2.91-.65-2.91Z"/><path class="cls-16" d="M480,133.45s-4.07-.56-4.81,2.14,3.24,7.95,4.77,9.7,1.42-3.72.17-5.81-.73-3.29-.73-3.29Z"/><path class="cls-17" d="M479.67,129.15a4.16,4.16,0,0,0-2.4,5,.27.27,0,0,1-.52.14,4.69,4.69,0,0,1,2.65-5.66c.31-.15.59.33.27.47Z"/><path class="cls-17" d="M476.71,134a3.85,3.85,0,0,0-1.86,4.06c.07.35-.46.49-.52.15a4.42,4.42,0,0,1,2.11-4.69.28.28,0,0,1,.27.48Z"/><path class="cls-17" d="M474.51,137.8a3,3,0,0,0-.92,1.41.27.27,0,0,1-.52-.15,3.53,3.53,0,0,1,1.05-1.65c.27-.23.65.15.39.39Z"/><path class="cls-14" d="M244.18,358.66v6.13h4.44V362A1.43,1.43,0,0,1,250,360.6h19a1.2,1.2,0,0,1,1.19,1.19v3h5.17v-3a1.19,1.19,0,0,1,1.19-1.19h18.89a1.43,1.43,0,0,1,1.42,1.42v2.77h4.44v-6.13a2.5,2.5,0,0,0-2.49-2.5H275.44V268.31h-5.17v87.85h-23.6A2.49,2.49,0,0,0,244.18,358.66Z"/><path class="cls-7" d="M269,319.44h7.78a.94.94,0,0,0,.94-.94V269.93H268V318.5A.94.94,0,0,0,269,319.44Z"/><circle class="cls-7" cx="299.1" cy="368.76" r="6.62"/><path class="cls-14" d="M299.1,372.55a3.79,3.79,0,1,0-3.79-3.79A3.79,3.79,0,0,0,299.1,372.55Z"/><path class="cls-7" d="M266.16,368.76a6.62,6.62,0,1,0,6.62-6.62A6.62,6.62,0,0,0,266.16,368.76Z"/><path class="cls-14" d="M272.78,372.55a3.79,3.79,0,1,0-3.79-3.79A3.79,3.79,0,0,0,272.78,372.55Z"/><path class="cls-7" d="M239.75,368.76a6.62,6.62,0,1,0,6.62-6.62A6.62,6.62,0,0,0,239.75,368.76Z"/><path class="cls-14" d="M246.37,372.55a3.79,3.79,0,1,0-3.79-3.79A3.79,3.79,0,0,0,246.37,372.55Z"/><path class="cls-14" d="M198.61,163.9l25.33,105.56a7.59,7.59,0,0,0,7.37,5.81h59.47a7.58,7.58,0,0,0,7.36-9.39L272.23,160.33a7.57,7.57,0,0,0-7.36-5.77H206A7.57,7.57,0,0,0,198.61,163.9Z"/><path class="cls-7" d="M205.15,163.9l25.34,105.56a7.58,7.58,0,0,0,7.37,5.81h59.47a7.59,7.59,0,0,0,7.36-9.39L278.77,160.33a7.56,7.56,0,0,0-7.35-5.77h-58.9A7.58,7.58,0,0,0,205.15,163.9Z"/><path class="cls-14" d="M235.49,268.26,210.15,162.7a2.42,2.42,0,0,1,.46-2.07,2.37,2.37,0,0,1,1.91-.93h58.9a2.43,2.43,0,0,1,2.36,1.85l25.91,105.56a2.42,2.42,0,0,1-.45,2.08,2.37,2.37,0,0,1-1.91.93H237.86A2.44,2.44,0,0,1,235.49,268.26Zm-23-107.88a1.74,1.74,0,0,0-1.38.67,1.71,1.71,0,0,0-.32,1.49L236.16,268.1a1.73,1.73,0,0,0,1.7,1.34h59.47a1.7,1.7,0,0,0,1.37-.67,1.73,1.73,0,0,0,.33-1.5L273.12,161.72a1.75,1.75,0,0,0-1.7-1.34Z"/><path class="cls-14" d="M332.82,278.39H232.93a8.55,8.55,0,0,1-8.33-6.62L223.26,266H329.94Z"/><path class="cls-7" d="M331.45,278.39H239.36a8.55,8.55,0,0,1-8.34-6.62L229.68,266H331.45a6.18,6.18,0,0,1,6,4.79h0A6.17,6.17,0,0,1,331.45,278.39Z"/><path class="cls-16" d="M284.32,152.41c2.27,5.62,4.57,11.26,6.88,16.86,1.17,2.8,2.33,5.59,3.52,8.37.59,1.38,1.18,2.76,1.78,4.13s1.2,2.72,1.8,4l.44.9.33.67,0,0,0,0,0,0-.07-.1-.1-.12c.05.06.09.13.15.19s.23.27.37.41a11.38,11.38,0,0,0,2.39,1.75,33.15,33.15,0,0,0,7.11,2.84,71,71,0,0,0,8.23,1.8c1.41.23,2.84.43,4.27.6.71.08,1.43.16,2.14.22l1.06.09,1,.08h.2a5.68,5.68,0,0,1-.51,11.34l-.67,0H324l-1.22,0c-.81,0-1.62-.08-2.42-.14-1.61-.11-3.21-.25-4.82-.43a84.21,84.21,0,0,1-9.71-1.65c-1.63-.39-3.28-.85-4.94-1.41a37.51,37.51,0,0,1-5.05-2.09,24.75,24.75,0,0,1-5.13-3.42c-.42-.38-.84-.78-1.24-1.21-.21-.21-.41-.45-.61-.67s-.46-.6-.53-.7l-.18-.28-.14-.21-.12-.2-.11-.18-.2-.34-.35-.61c-.21-.39-.42-.76-.61-1.12-.77-1.46-1.47-2.85-2.17-4.25s-1.37-2.78-2.05-4.17q-2-4.16-4-8.31-3.93-8.31-7.76-16.65a7.45,7.45,0,1,1,13.53-6.22l.13.3Z"/><path class="cls-17" d="M298.66,187a11.06,11.06,0,0,0-4.17,2.15c-.27.22.12.61.39.39a10.23,10.23,0,0,1,3.92-2,.27.27,0,0,0-.14-.53Z"/><path class="cls-17" d="M297.37,187.52a10.07,10.07,0,0,0-2.94-.39.28.28,0,0,0,0,.55,9.45,9.45,0,0,1,2.8.36.27.27,0,0,0,.14-.52Z"/><path class="cls-16" d="M328.81,246.16S340.93,267.4,359.65,274l35.75,28.91,2.75-11.23s-44-60.8-53.38-63.34-25.81,2.5-25.81,2.5Z"/><path class="cls-11" d="M422.94,305.12c-3.49-1-27.2-1.51-27.2-1.51s-.73,4.39,1.44,6.5,12.21,13.25,13.32,14.39l1.53-1.4-3.81-5.88s8.61,2.38,13,1.89,12.9-8.95,14.76-11.19S426.43,306.09,422.94,305.12Z"/><path class="cls-16" d="M390.19,297.64l5.21,5.28a8.64,8.64,0,0,0,3.7,4c2.92,1.76,9.1,3.12,14.26,3.6,4.44.42,11.41-1.48,12.24-3.41s-7.75-3.05-11.29-4.5a58.69,58.69,0,0,1-9.19-4.78c-2.89-1.82-8.22-7.46-8.22-7.46Z"/><path class="cls-16" d="M324.57,255.78s-1.24,24.43,10.95,40.09L348,340.75l10.21,1.75c-5.47-22.65-2.43-91.58-8-95.51-8-5.63-25.72-9.41-25.72-9.41Z"/><path class="cls-17" d="M328.83,238.9c3.73,1,7.52,2,11.2,3.21,3.44,1.14,6.89,2.79,9.2,5.68s2.68,6.86,3,10.56l.93,12.54c0,.46.76.46.73,0-.34-4.48-.66-9-1-13.44-.27-3.48-.7-7-2.87-9.88s-5.41-4.6-8.71-5.8c-4-1.44-8.17-2.43-12.24-3.57a.36.36,0,0,0-.2.7Z"/><path class="cls-11" d="M369.68,361.56c-2.31-2.79-21.48-16.75-21.48-16.75s-3.1,3.19-2.53,6.16,2.47,17.84,2.73,19.42l2.06-.28.23-7s5.71,6.86,9.58,8.95,15.7,0,18.5-.76S372,364.36,369.68,361.56Z"/><path class="cls-16" d="M347.05,336.74l1.27,7.31a8.52,8.52,0,0,0,.74,5.42c1.39,3.11,5.69,7.75,9.65,11.09,3.41,2.88,10.21,5.3,12,4.18s-4.63-6.93-6.71-10.13a60.41,60.41,0,0,1-4.82-9.17c-1.33-3.15-2.5-10.82-2.5-10.82Z"/><path class="cls-11" d="M232.44,157.75c-1-4.13,6.87-10.29,2.21-29.17-2-8.12-4.83-31.27,12-35.15s30.73,6.28,28.25,21.91c-2.33,14.65,4.18,39,1,43.88Z"/><path class="cls-4" d="M293.64,235.18s-16.51,20.36-47.29,1.32a79.34,79.34,0,0,0,3.08-19.05c0-1.61-3.26-10.33-3.82-12.27C242.54,194.6,234.11,180,229,171c-1.94-3.44-3.64-6-3.83-7.21-.78-4.93-1.11-10.87,9.53-14.65s12.24-8,12.24-8l19,2.22s5.23,3.27,9.35,3.53,7.34.17,8.56,4.82c.68,2.59.29,5.44.14,7.9-.13,2-.09,3.73.78,4.88,1,1.37,2.92,3,4.43,5.29.17.24.33.5.49.76a12.46,12.46,0,0,1,1.68,4.71c0,.24.06.49.07.74a10.36,10.36,0,0,1,0,1.37,17.44,17.44,0,0,1-.65,3.83c-.06.25-.14.5-.21.75-1.42,4.61-4.11,9.14-4.65,13.61a32.58,32.58,0,0,0,.46,8.27,125.12,125.12,0,0,0,4.35,17.72C297.18,241.29,293.64,235.18,293.64,235.18Z"/><path class="cls-3" d="M289.75,170.54a120.79,120.79,0,0,0-49.85,7.77c-.44.17-.63-.54-.19-.71a121.27,121.27,0,0,1,49.55-7.82C289.43,170,289.59,170.28,289.75,170.54Z"/><path class="cls-3" d="M291.5,176a141.14,141.14,0,0,0-49.64,7.06c-.45.15-.64-.56-.19-.71a141.76,141.76,0,0,1,49.76-7.09C291.46,175.49,291.49,175.74,291.5,176Z"/><path class="cls-3" d="M290.87,181.19c-.06.25-.14.5-.21.75l-2.24.05c-4.7.11-9.37,0-14.06.49-10.15,1.05-20.05,3.71-29.93,6.15a.37.37,0,0,1-.2-.71c4.47-1.1,8.92-2.24,13.41-3.26a118,118,0,0,1,23.56-3.36C284.42,181.23,287.65,181.26,290.87,181.19Z"/><path class="cls-3" d="M280.81,199.19a22.24,22.24,0,0,1-19.61,8.25c-.49-.05-.49-.82,0-.77,7,.73,14.67-2.21,18.94-7.87.29-.39,1,0,.67.39Z"/><path class="cls-3" d="M270,153.22a3.26,3.26,0,0,1-1.57,3.7c-1.81,1.09-4.29.82-6.3.68A39.7,39.7,0,0,1,248.31,154c-.45-.21-.06-.88.39-.67a38.61,38.61,0,0,0,10.72,3.18,34.91,34.91,0,0,0,5.5.38c1.92,0,5.14-.86,4.33-3.49a.39.39,0,0,1,.75-.21Z"/><path class="cls-3" d="M236.52,172.28a136.9,136.9,0,0,1,17.71,46.45c.09.49-.66.7-.75.21a136,136,0,0,0-17.63-46.27c-.26-.43.41-.81.67-.39Z"/><path class="cls-17" d="M270.21,115.41a2.9,2.9,0,0,1,2.69,2.43c.68,2.49-.09,6.86-2.72,6.65S270.21,115.41,270.21,115.41Z"/><path class="cls-4" d="M267.7,125.44a3.51,3.51,0,1,1,3.76,3.26A3.51,3.51,0,0,1,267.7,125.44Zm1-.07a2.49,2.49,0,1,0,2.31-2.66A2.49,2.49,0,0,0,268.72,125.37Z"/><line class="cls-16" x1="265.53" y1="135.91" x2="265.53" y2="135.91"/><path class="cls-16" d="M245.37,145.41s4.23,6.12,11.78,6.32c9.57.25,10.17-3.94,10.17-3.94a18.38,18.38,0,0,1-1.21-3.81c-.1-.51-.18-1-.26-1.58a45.69,45.69,0,0,1-.31-5c0-.45,0-.91,0-1.39v-.06c-6.7-.78-12.38-3-16.6-7.43l-1.05-.47-.7-.32-.08.4.27,1.2C248.64,134.92,247.91,139.79,245.37,145.41Z"/><path class="cls-7" d="M266.35,144.35c1.87,3.22,4.45,7.18,3.15,11-1.25,3.66-4.84,5.32-8.52,4.68s-6.54-3.31-9-6a38.86,38.86,0,0,1-6.92-9.9c-.26-.55-1.07-.07-.82.48a37.31,37.31,0,0,0,6,8.86c2.18,2.52,4.57,5.06,7.64,6.51a10.19,10.19,0,0,0,8.13.45,8,8,0,0,0,4.72-6.32c.53-3.6-1.85-7.31-3.58-10.29a.47.47,0,0,0-.82.47Z"/><path class="cls-18" d="M254,133c1.74,2.95,5.58,8.08,11.81,9.43a45.69,45.69,0,0,1-.31-5c0-.45,0-.91,0-1.39l-.39.08C261.62,136.7,257.54,135.32,254,133Z"/><path class="cls-16" d="M238.14,119.23c.19,3.56,3.44,7.76,8.11,7.64h.12c.09.21.19.4.29.6s.09.18.13.26l0,0c3.23,5.89,12,9,16.71,8.86a10.68,10.68,0,0,0,3.12-.57c4.89-1.34,5.45-8.07,4.4-13.13a18.46,18.46,0,0,0-.55-2.08s0-.09-.05-.13,1.28-7.23,1.5-10.37c.42-6.08-3.37-12-16.68-12.52s-16,7.9-16.73,12.3c-.12.74.26,5.06,1,5.72A3.55,3.55,0,0,0,238.14,119.23Z"/><path class="cls-4" d="M261,125.42s.27,3.9,3.55,4a3.37,3.37,0,0,0,3.59-3.08Z"/><path class="cls-17" d="M263.93,131a1.73,1.73,0,0,1-1-.59A.29.29,0,0,1,263,130a.3.3,0,0,1,.42.05,1.16,1.16,0,0,0,1.29.32.3.3,0,0,1,.18.57A1.9,1.9,0,0,1,263.93,131Z"/><path class="cls-18" d="M268.74,119.17c-.07.86-.48,1.52-.93,1.49s-.75-.76-.69-1.61.48-1.53.93-1.49S268.8,118.31,268.74,119.17Z"/><path class="cls-18" d="M266,118a.21.21,0,0,1-.11-.08.23.23,0,0,1,.06-.32c.08-.06,2.13-1.45,4-.18a.24.24,0,0,1,.06.32.23.23,0,0,1-.32,0c-1.56-1.09-3.42.17-3.43.18A.2.2,0,0,1,266,118Z"/><path class="cls-18" d="M261.26,118.72c-.07.86-.48,1.52-.93,1.49s-.75-.76-.68-1.62.48-1.52.92-1.48S261.32,117.86,261.26,118.72Z"/><path class="cls-18" d="M258.11,117.82a.19.19,0,0,1-.12-.07.22.22,0,0,1,0-.32c.08-.07,1.94-1.71,3.9-.68a.22.22,0,0,1,.1.31.23.23,0,0,1-.31.09c-1.69-.88-3.37.6-3.38.62A.24.24,0,0,1,258.11,117.82Z"/><g class="cls-9"><path class="cls-17" d="M268.28,122c0,.53,1.22.88,2.76.88a18.46,18.46,0,0,0-.55-2.08C269.17,121.07,268.24,121.55,268.28,122Z"/></g><g class="cls-9"><path class="cls-17" d="M260.05,122.54c.05.6-1.42,1.2-3.27,1.33s-3.39-.25-3.43-.85,1.42-1.2,3.27-1.33S260,121.94,260.05,122.54Z"/></g><path class="cls-17" d="M246.25,126.87h.12c.09.21.19.4.29.6a2.15,2.15,0,0,0,.14.26,0,0,0,0,0,0,0,4.38,4.38,0,0,0,1.76-.81,3.33,3.33,0,0,0,.89-1.08.47.47,0,0,0-.19-.65.48.48,0,0,0-.66.2,2.58,2.58,0,0,1-1.09,1.06,3.49,3.49,0,0,1-.82.31Z"/><path class="cls-4" d="M247.42,126.69a4.16,4.16,0,0,1-1,.22.09.09,0,0,0,0,0,2.49,2.49,0,1,1-3.06-2.24.7.7,0,0,0-.07-1,3.52,3.52,0,1,0,4.15,3.21A1.36,1.36,0,0,0,247.42,126.69Z"/><path class="cls-11" d="M241.85,102.46c2.69-3.1,6.52-5.67,11.29-5.64,6.7,0,13,2,16.61,5.47a9.4,9.4,0,0,1,3.09,5.87c.73,6.92-.83,5.65-.83,5.65a8.77,8.77,0,0,0-.26-1.63h0c-.17-.88-.46-2.24-.94-4.31-1.14-5-17.08-4.68-15.88-1.51a6,6,0,0,1,.06,1,6.87,6.87,0,0,1-.52,2.54l-.36.08a14.19,14.19,0,0,0-3.92,1.52h0c-.13.11-2.44,2-2,4.51s1.63,5.94-.18,5.39a4.44,4.44,0,0,1-2.51-2.64h0a8.31,8.31,0,0,0-4-2.7C240.7,111.54,240.29,106.88,241.85,102.46Z"/><path class="cls-11" d="M238.13,116.08a7,7,0,0,1,7.4,2.7h0a4.44,4.44,0,0,0,2.51,2.64c1.81.55.67-2.81.18-5.39s1.83-4.4,2-4.51h0a14.19,14.19,0,0,1,3.92-1.52l.36-.08a6.87,6.87,0,0,0,.52-2.54c-1.29-.64-8.15-3.36-12.86-2.24.92-1.26.35-4.8.35-4.8s-5,4.78-5.87,8.52S237.06,116.54,238.13,116.08Z"/><path class="cls-17" d="M265.25,123.87a.36.36,0,0,0,.22-.07l1.76-1.16a.42.42,0,0,0,.18-.36.39.39,0,0,0-.22-.33,5.81,5.81,0,0,1-2.94-4,.4.4,0,0,0-.49-.28.41.41,0,0,0-.29.5,6.75,6.75,0,0,0,2.77,4.11l-1.22.8a.41.41,0,0,0-.11.56A.41.41,0,0,0,265.25,123.87Z"/><path class="cls-4" d="M258.87,123.93a4.82,4.82,0,1,1,4.82-4.82A4.82,4.82,0,0,1,258.87,123.93Zm0-8.88a4.06,4.06,0,1,0,4.06,4.06A4.06,4.06,0,0,0,258.87,115.05Z"/><path class="cls-4" d="M270.29,123.93a4.82,4.82,0,1,1,4.82-4.82A4.82,4.82,0,0,1,270.29,123.93Zm0-8.88a4.06,4.06,0,1,0,4.06,4.06A4.06,4.06,0,0,0,270.29,115.05Z"/><path class="cls-4" d="M244.69,118l-.47-.6a11.62,11.62,0,0,1,10.9-1.22l-.26.71A11,11,0,0,0,244.69,118Z"/><path class="cls-4" d="M263.52,119.05l-.46-.61a2.48,2.48,0,0,1,3,0l-.48.59A1.74,1.74,0,0,0,263.52,119.05Z"/><path class="cls-18" d="M260.6,113.61a1,1,0,0,0,1-1.65,2.81,2.81,0,0,0-1.88-.66,7.11,7.11,0,0,0-5.66,2.84s3.62-1.06,5.49-.79A5.41,5.41,0,0,1,260.6,113.61Z"/><path class="cls-18" d="M266.74,113.58a1,1,0,0,1-.85-1.73,2.85,2.85,0,0,1,1.93-.5c3.69.26,4.28,2.79,4.28,2.79a13,13,0,0,0-4.28-.73A6.29,6.29,0,0,0,266.74,113.58Z"/><path class="cls-17" d="M246.54,124.06a.48.48,0,0,1-.42-.36c-.82-3.32-4.89-4.55-4.93-4.56a.49.49,0,0,1-.33-.6.48.48,0,0,1,.6-.33c.19.06,4.64,1.4,5.6,5.26a.48.48,0,0,1-.35.58A.33.33,0,0,1,246.54,124.06Z"/><path class="cls-17" d="M242.26,122.42a.64.64,0,0,1-.18-.06.48.48,0,0,1-.19-.65,3.31,3.31,0,0,1,2.82-1.59.48.48,0,0,1,0,1,2.37,2.37,0,0,0-2,1.09A.46.46,0,0,1,242.26,122.42Z"/><path class="cls-19" d="M340.34,227.68c-7.19,1.89-11.1,8.25-13.19,15.3-.14.49-.28,1-.41,1.47-2.77,10.68-1.68,22.35-1.68,22.35-2,.61-4.23,1.18-6.53,1.69l-.73.16c-3.24.71-6.7,1.33-10.28,1.83l-.77.11A161.48,161.48,0,0,1,286.63,272h-1.05a97.55,97.55,0,0,1-21.89-2.19l-.72-.18a39.54,39.54,0,0,1-7.24-2.52l-.7-.34c-3.48-1.78-6-4.06-7.15-6.9a46,46,0,0,1-3.16-13.48c0-.29-.05-.57-.07-.85a56.45,56.45,0,0,1,0-8l.06-.73a67.77,67.77,0,0,1,1.56-9.58l.18-.74a58,58,0,0,1,3.07-9.31A65.39,65.39,0,0,0,277,218.46l.76-.13A71,71,0,0,0,289,215.28a11,11,0,0,0,2.4,2.71l.58.49a22.33,22.33,0,0,0,2.92,2l.65.36a40.57,40.57,0,0,0,13.06,4c1.82.27,3.74.52,5.7.75h0l.92.1c2.13.25,4.29.47,6.42.67h0l1.32.12h0C332.23,227.26,340.34,227.68,340.34,227.68Z"/><path class="cls-15" d="M255.73,267.15l-.7-.34a22.09,22.09,0,0,0-2.62-13,19.06,19.06,0,0,0-7.69-7.39c0-.29-.05-.57-.07-.85A20,20,0,0,1,255,258,24.26,24.26,0,0,1,255.73,267.15Z"/><path class="cls-15" d="M322.94,226.41a25,25,0,0,0-9.23,9.06c-3.3,5.43-5.34,11.62-9.43,16.56-3.6,4.35-8.66,7.11-14.4,6.36-3.38-.43-6.67-1.66-10.12-1.5a16.07,16.07,0,0,0-8.28,3,22.88,22.88,0,0,0-7.79,10l-.72-.18A23.8,23.8,0,0,1,271.42,259a17,17,0,0,1,7.58-2.78c3.34-.33,6.54.7,9.79,1.27a14,14,0,0,0,9.78-1.5,21.54,21.54,0,0,0,7.12-7.12c3.55-5.46,5.55-11.81,9.59-17a23.24,23.24,0,0,1,6.34-5.61h0Z"/><path class="cls-15" d="M327.15,243c-.14.49-.28,1-.41,1.47a31.1,31.1,0,0,0-8.21,24l-.73.16A32,32,0,0,1,327.15,243Z"/><path class="cls-15" d="M307.52,270.48l-.77.11a5.31,5.31,0,0,0-.91-4.32c-1.26-1.44-3.4-1.65-5.19-1.54-5.59.33-10.13,3.46-14,7.3h-1.05a35.44,35.44,0,0,1,3.81-3.43,21.92,21.92,0,0,1,9.36-4.38c2.58-.46,6.05-.54,7.82,1.78A6,6,0,0,1,307.52,270.48Z"/><path class="cls-15" d="M315.2,225.62q-2.7,2.82-5.5,5.52c-3.65,3.49-7.49,7.1-11.82,9.75-2.76,1.68-8.58,4.34-11.11.92-1-1.38-.91-3.23-.58-4.82a32.92,32.92,0,0,1,2.21-6.37,41.31,41.31,0,0,1,6.47-10.19l.65.36a40.61,40.61,0,0,0-6.79,10.9c-1.23,2.93-4.37,10.27,1,10.92,4.46.53,8.81-2.84,12.06-5.45a137.32,137.32,0,0,0,12.48-11.64h0Z"/><path class="cls-15" d="M292,218.48a26.65,26.65,0,0,0-8.76,10.72c-2.09,4.4-2.68,9.66-5.7,13.58a11.54,11.54,0,0,1-11.66,4.12c-4.7-1.09-8.29-4.63-12.4-6.92a19.17,19.17,0,0,0-8.74-2.43l.06-.73a19.66,19.66,0,0,1,8.55,2.26c4.27,2.25,7.91,6,12.73,7.12,5.49,1.27,10.4-1.91,12.63-6.85,1.06-2.37,1.67-4.91,2.57-7.34a35.3,35.3,0,0,1,3-6.29,25.79,25.79,0,0,1,7.12-7.73Z"/><path class="cls-15" d="M277.74,218.33a12,12,0,0,1-2.72,6.12c-4.42,5.26-12.21,6.91-18.76,6.1a26.9,26.9,0,0,1-9.95-3.31l.18-.74A25.74,25.74,0,0,0,260.72,230a20.63,20.63,0,0,0,11.87-4.17,12,12,0,0,0,4.39-7.35Z"/><path class="cls-16" d="M239,156.48l1.51,2.43,1.52,2.46,3,4.94,3,4.93,3.06,4.9c2,3.25,4.1,6.49,6.19,9.62,1,1.57,2.09,3.11,3.15,4.6s2.13,2.94,3.16,4.21c.51.63,1,1.21,1.45,1.66l.14.15.14.13.19.2,0,0h0s0,0,0,0l-.11,0h0s0,0,0,0h0l0,0,.05,0,.11.06.15.07.17.06.19.07a4.56,4.56,0,0,0,.44.14,20.55,20.55,0,0,0,2.14.51c1.58.31,3.34.52,5.14.7s3.65.31,5.52.4c3.75.21,7.57.31,11.42.37,1.92,0,3.85.08,5.78.08l5.78.08h.06a4.88,4.88,0,0,1,1.07,9.63l-1.5.34-1.47.32-3,.59c-2,.36-4,.71-5.94,1-4,.6-8,1.07-12.09,1.36-2.05.14-4.13.25-6.24.26a62.13,62.13,0,0,1-6.59-.25c-1.16-.12-2.35-.28-3.64-.54-.32-.06-.66-.15-1-.22l-.52-.14-.53-.15-.55-.17-.58-.2-.29-.11-.31-.12-.31-.13-.32-.14-.66-.33q-.37-.19-.75-.42l-.32-.2-.31-.2-.29-.21-.26-.18-.5-.38-.45-.35-.41-.35-.4-.35c-1-.89-1.84-1.74-2.63-2.57s-1.51-1.66-2.22-2.48-1.37-1.64-2-2.46q-2-2.44-3.76-4.91c-2.41-3.29-4.69-6.6-6.89-9.94-1.11-1.67-2.18-3.35-3.25-5s-2.12-3.37-3.14-5.08-2.06-3.4-3.05-5.13c-.49-.86-1-1.72-1.48-2.59s-1-1.73-1.46-2.64a8.38,8.38,0,0,1,14.49-8.42Z"/><path class="cls-16" d="M299.78,199.3s7.41-2.26,12.09-1.49,6.12,2.92,6.12,2.92l-2.44,8.74-18,.63Z"/><path class="cls-17" d="M294.13,199.31c4.07-.07,8.3.21,12.3-.69a14.54,14.54,0,0,1,6.15-.45,17.45,17.45,0,0,1,5.64,2.39c.3.19.58-.29.28-.47-3.25-2-6.68-3.16-10.48-2.39a37.67,37.67,0,0,1-6.77,1c-2.37.06-4.74.07-7.12.11a.28.28,0,0,0,0,.55Z"/><path class="cls-17" d="M265.4,196.76a7.88,7.88,0,0,0-3.78,3.9c-.12.33.4.47.53.14a7.33,7.33,0,0,1,3.53-3.57c.3-.17,0-.64-.28-.47Z"/><path class="cls-17" d="M260.89,198.74a4.83,4.83,0,0,1,3.27-.63c.35,0,.35-.5,0-.54a5.23,5.23,0,0,0-3.65.78c-.28.22.11.6.38.39Z"/><rect class="cls-14" x="278.52" y="206.28" width="67.04" height="8.74" rx="0.23" transform="translate(-0.34 0.51) rotate(-0.09)"/><path class="cls-7" d="M352.56,215a5.58,5.58,0,0,0,5.38-4.15l12.46-47a4.52,4.52,0,0,0-4.37-5.68l-30,.05a4.52,4.52,0,0,0-4.35,3.3L316.73,215Z"/><path class="cls-21" d="M352.16,186.66c-1,3.06-4.06,5.52-6.88,5.5s-4.3-2.5-3.32-5.55,4.07-5.51,6.88-5.5S353.15,183.61,352.16,186.66Z"/><path class="cls-7" d="M346.56,185.57c-.2.62-.56,1.11-.8,1.11s-.28-.5-.09-1.11.56-1.1.8-1.1S346.76,185,346.56,185.57Z"/><path class="cls-7" d="M349.22,185.59c-.2.61-.55,1.1-.8,1.1s-.28-.5-.09-1.11.56-1.1.8-1.1S349.42,185,349.22,185.59Z"/><path class="cls-7" d="M346.24,189.33c-2.2,0-1.93-2.39-1.93-2.42a.36.36,0,0,1,.26-.28.16.16,0,0,1,.21.18c0,.09-.22,2,1.61,2s2.88-1.93,2.92-2a.32.32,0,0,1,.32-.18c.12,0,.15.15.08.28S348.43,189.34,346.24,189.33Z"/><path class="cls-7" d="M331.66,161.51l-14.81,53.06h-3.43l14.81-53.06a4.54,4.54,0,0,1,4.35-3.31H336A4.52,4.52,0,0,0,331.66,161.51Z"/><path class="cls-14" d="M317.19,214.25l-.09,0a.51.51,0,0,1-.35-.62l14.7-53a.49.49,0,0,1,.62-.35.51.51,0,0,1,.35.62l-14.7,52.95A.5.5,0,0,1,317.19,214.25Z"/><path class="cls-7" d="M252.27,319.45a3.19,3.19,0,0,1,0-6.38h39.8a3.19,3.19,0,0,1,0,6.38"/><path class="cls-7" d="M311.33,375.29a3.2,3.2,0,0,1-3-2.18L258.61,223.94a3.19,3.19,0,0,1,6.06-2l49.69,149.17a3.19,3.19,0,0,1-2,4A3,3,0,0,1,311.33,375.29Z"/><path class="cls-7" d="M233.67,375.29a3,3,0,0,1-1-.17,3.19,3.19,0,0,1-2-4l49.69-149.17a3.19,3.19,0,1,1,6.05,2L236.7,373.11A3.2,3.2,0,0,1,233.67,375.29Z"/><path class="cls-7" d="M456.5,319.45H416.69a3.19,3.19,0,0,1,0-6.38H456.5a3.19,3.19,0,0,1,0,6.38Z"/><path class="cls-7" d="M475.75,375.29a3.19,3.19,0,0,1-3-2.18L423,223.94a3.19,3.19,0,1,1,6-2l49.69,149.17a3.18,3.18,0,0,1-2,4A2.94,2.94,0,0,1,475.75,375.29Z"/><path class="cls-7" d="M398.1,375.29a2.94,2.94,0,0,1-1-.17,3.18,3.18,0,0,1-2-4l49.69-149.17a3.19,3.19,0,1,1,6.05,2L401.12,373.11A3.19,3.19,0,0,1,398.1,375.29Z"/><path class="cls-7" d="M472.52,214.27v7.84a5.76,5.76,0,0,1-.11,1.18,6.23,6.23,0,0,1-6.12,5.06H245.83a6.23,6.23,0,0,1-6.12-5.06,5.76,5.76,0,0,1-.11-1.18v-7.84Z"/><path class="cls-14" d="M472.41,223.29a6.25,6.25,0,0,1-.48,1.48H240.19a6.25,6.25,0,0,1-.48-1.48Z"/><path class="cls-8" d="M449.66,191.34a25.56,25.56,0,0,1-.44,2.93q-.08.39-.18.84a30.3,30.3,0,0,1-5.21,11.61h0l-.5.63a20.5,20.5,0,0,1-3.9,3.62l-.46.31a20.12,20.12,0,0,1-9,3.16h0c-.23,0-.45.05-.69.06h0c-.71.07-1.44.1-2.2.1a23.76,23.76,0,0,1-8.12-1.36l-.5-.19a21.69,21.69,0,0,1-7.95-5.5l-.46-.51a29.3,29.3,0,0,1-4.48-7c-.08-.16-.14-.31-.21-.46a35.05,35.05,0,0,1-2.58-8.26Z"/><path class="cls-20" d="M412.34,191.34c-1.69,3.35-3.81,6.62-6.74,8.72-.08-.16-.14-.31-.21-.46,2.76-2,4.78-5.09,6.39-8.26Z"/><path class="cls-20" d="M419.28,191.34a23.22,23.22,0,0,0-6.68,8.38,19.56,19.56,0,0,0-2.06,7.84l-.46-.51a20.12,20.12,0,0,1,1.66-6.63,23.66,23.66,0,0,1,6.74-9.08Z"/><path class="cls-20" d="M439.42,211l-.46.31a22.92,22.92,0,0,1,5.68-19.95h.7A22.4,22.4,0,0,0,439.42,211Z"/><path class="cls-20" d="M432.84,210.53c-.9,1.34-1.85,2.64-2.84,3.92h0c-.23,0-.45.05-.69.06q2.12-2.69,4-5.55c.71-1.1,2-2.7,1.51-4.11-.59-1.78-3-1-4.29-.6-4.7,1.63-8.28,5.28-11.5,9l-.5-.19a51,51,0,0,1,4.61-4.8,22.82,22.82,0,0,1,6.24-4.11c1.55-.65,4.38-1.77,5.64,0C436.38,206.11,433.88,209,432.84,210.53Z"/><path class="cls-20" d="M449.22,194.27q-.08.39-.18.84a16.74,16.74,0,0,0-5.21,11.61h0l-.5.63A17.22,17.22,0,0,1,449.22,194.27Z"/><path class="cls-20" d="M439.51,191.34c-1,.9-1.95,1.77-2.95,2.62a78.8,78.8,0,0,1-7.66,5.7,26.88,26.88,0,0,1-4,2.39,3.39,3.39,0,0,1-3.44-.06c-2.18-1.63-1-4.91,0-6.87a14.65,14.65,0,0,1,2.68-3.78h.72a14.33,14.33,0,0,0-3.28,4.71,6.57,6.57,0,0,0-.68,4.16c.55,1.95,2.47,2,4.05,1.29a43.69,43.69,0,0,0,6.82-4.38,78.32,78.32,0,0,0,7.06-5.78Z"/><path class="cls-7" d="M449.66,191.34c0,.74-10.49,1.34-23.42,1.34s-23.43-.6-23.43-1.34S413.3,190,426.24,190,449.66,190.6,449.66,191.34Z"/><path class="cls-10" d="M404.32,161.07c-.62,3.88-3.23,5.42-.92,7.47s6.8,5,4.44,8.82.74,5,3.82,7.4c2.44,1.9,3,3.53,2.57,6.75H427a9.74,9.74,0,0,0-2-6.21c-3.18-4.29-3.87-3.55-3.52-6.69s1.08-4.15-1.69-6.72-4.41-4.43-3.26-7.95-1-6.95-4.35-8.93-1.86-6-3.74-11.23-7.61-8.18-7.61-8.18c4.26,6.72-.69,12.42-.37,17.3S404.93,157.2,404.32,161.07Z"/><path class="cls-22" d="M419.16,191.51H420l-13.21-40.1a.37.37,0,0,0-.47-.24h0a.37.37,0,0,0-.24.47Z"/><path class="cls-10" d="M439.74,191.51c-.44-3.25.1-4.87,2.55-6.78,3.06-2.39,6.15-3.57,3.8-7.36s2.11-6.73,4.41-8.77-.3-3.57-.91-7.43,3.54-3.27,3.86-8.13-4.6-10.52-.36-17.21c0,0-5.7,3-7.57,8.15s-.36,9.19-3.72,11.16-5.47,5.38-4.33,8.88-.48,5.36-3.24,7.91-2,3.57-1.68,6.69-.34,2.38-3.5,6.65a9.64,9.64,0,0,0-2,6.24Z"/><path class="cls-22" d="M434.81,191.51l13.08-39.71a.38.38,0,0,0-.23-.48h0a.38.38,0,0,0-.47.24L434,191.51Z"/><path class="cls-10" d="M417.31,159.83c1.8,3,5.61,7.62,1.82,10.92s-.87,5.59,1.64,9.19,1.94,5.72-1,11a5.84,5.84,0,0,0-.28.56h15.68a11.19,11.19,0,0,0-.31-6.57c-2-5.65-3-5.08-1.55-8.33s2.54-4.09.42-7.76-3.24-6.21-.84-9.6,1.27-7.76-1.7-11,0-7.06-.28-13.27-5.43-11.29-5.43-11.29c2.34,8.61-4.87,13.07-6.14,18.41s3.39,6.1,1.45,10S415.51,156.87,417.31,159.83Z"/><path class="cls-22" d="M427.43,191.51l-.86-48.92a.42.42,0,0,0-.42-.42h0a.44.44,0,0,0-.42.43l.87,48.91Z"/><polygon class="cls-19" points="393.3 186.86 393.09 189.26 392.98 190.5 392.88 191.66 392.73 193.3 392.67 194.07 392.37 197.51 392.04 201.25 392.02 201.43 391.82 203.8 391.72 204.96 391.65 205.71 391.32 209.53 390.91 214.27 377.74 214.27 377.65 213.18 377.25 208.58 377 205.8 376.93 204.96 376.83 203.8 376.61 201.25 376.6 201.18 376.36 198.41 375.98 194.07 375.95 193.76 375.77 191.66 375.71 191.01 375.67 190.5 375.35 186.86 393.3 186.86"/><polygon class="cls-23" points="392.98 190.5 392.88 191.66 375.77 191.66 375.71 191.01 375.67 190.5 392.98 190.5"/><polygon class="cls-23" points="391.82 203.8 391.72 204.96 376.93 204.96 376.83 203.8 391.82 203.8"/><polygon class="cls-4" points="392.67 194.08 392.37 197.51 392.04 201.25 376.61 201.25 376.6 201.18 376.36 198.41 375.98 194.08 392.67 194.08"/><rect class="cls-15" x="374.43" y="183.36" width="19.79" height="3.5"/><path class="cls-19" d="M376.86,180.38h14.93a.94.94,0,0,1,.94.94v2a0,0,0,0,1,0,0H375.92a0,0,0,0,1,0,0v-2A.94.94,0,0,1,376.86,180.38Z"/></g></g></svg>