<svg xmlns="http://www.w3.org/2000/svg" viewBox="0 0 622.39 215.44"><defs><style>.cls-1,.cls-3{fill:#ebf3fa;}.cls-2{fill:#f3f8fc;}.cls-3{opacity:0.6;}.cls-4{fill:#e8f0fd;}.cls-5{fill:#c0d8fb;}.cls-6{fill:#dfebfd;}.cls-7{fill:#b7d3f3;}.cls-8{fill:#deedff;}.cls-9{fill:#122544;}.cls-10{fill:#d2e3fc;}.cls-11{fill:#82b378;}.cls-12{fill:#a8d29f;}.cls-13{fill:#3560c1;}.cls-14{fill:#ea9e6a;}.cls-15{fill:#d88d59;}.cls-16{fill:#8e342e;}.cls-17{fill:#233862;}.cls-18{fill:#b24940;}.cls-19{fill:#c65447;}.cls-20{fill:#f9ddbf;}.cls-21{fill:#ed7d2b;}.cls-22{fill:#ffb27d;}.cls-23{fill:#ed985f;}.cls-24{fill:#fff;}.cls-25{fill:#f99746;}.cls-26{fill:#ffc397;}.cls-27{fill:#2c3a64;}.cls-28{fill:#2b478b;}.cls-29{fill:#2e3552;stroke:#000;stroke-miterlimit:10;stroke-width:10px;}</style></defs><g id="Layer_2" data-name="Layer 2"><g id="Слой_1" data-name="Слой 1"><path class="cls-1" d="M422.76,63.91V209.22l174.82.62c-.43-6.36,28.34-90.14-8.54-138-52.35-67.95-97.08-13-156.12-8.23A97.59,97.59,0,0,1,422.76,63.91Z"/><path class="cls-2" d="M21.06,206.41c.24,1.82,19.18-.29,19.44,1.49l118.18.41H422.76V63.91a96.49,96.49,0,0,1-10.16-.82C401,61.5,388.86,57.52,376,50c-133.31-77.31-241.86-56.32-302.81,4A181.43,181.43,0,0,0,21.06,206.41Z"/><path class="cls-3" d="M19.6,183.55a183.14,183.14,0,0,0,1.46,23.89c.24,1.81,19.18-.3,19.44,1.49l118.18.41H422.76v-.12l-264.08-.91L40.5,207.9c-.26-1.78-19.2.33-19.44-1.49A183.47,183.47,0,0,1,19.6,183.55Z"/><polygon class="cls-4" points="71.57 97.88 71.57 208.32 412.6 208.32 412.6 112.22 386.46 112.22 386.46 85.99 360.32 85.99 360.32 121.42 339.15 121.42 339.15 113.51 302.29 113.51 302.29 126.89 286.24 126.89 286.24 96.83 243.29 96.83 243.29 45.28 209.34 45.28 209.34 72.78 201.59 72.78 201.59 49.74 167.63 49.74 167.63 85.22 136.85 85.22 136.85 63.45 103.93 63.45 103.93 85.22 97.8 85.22 97.8 97.88 71.57 97.88"/><rect class="cls-5" x="459.57" y="73.23" width="35.39" height="34.33" rx="11.36" transform="translate(954.53 180.78) rotate(-180)"/><rect class="cls-6" x="461.11" y="74.71" width="32.32" height="31.36" rx="10.38" transform="translate(954.53 180.78) rotate(-180)"/><circle class="cls-7" cx="477.27" cy="77.85" r="0.73"/><path class="cls-7" d="M472.08,78.88a.73.73,0,0,0-1.28.71.73.73,0,1,0,1.28-.71Z"/><path class="cls-7" d="M467,82.91a.74.74,0,0,0-1,.22.73.73,0,0,0,.22,1,.73.73,0,1,0,.8-1.23Z"/><circle class="cls-7" cx="464.51" cy="89.87" r="0.73"/><path class="cls-7" d="M465.79,96.37a.73.73,0,1,0,1,0A.73.73,0,0,0,465.79,96.37Z"/><circle class="cls-7" cx="470.91" cy="101.51" r="0.73"/><circle class="cls-7" cx="477.27" cy="103.37" r="0.73"/><path class="cls-7" d="M482.47,78.88a.73.73,0,0,1,1-.28.73.73,0,1,1-1,.28Z"/><path class="cls-7" d="M487.54,82.91a.73.73,0,1,1-.22,1A.73.73,0,0,1,487.54,82.91Z"/><circle class="cls-7" cx="490.05" cy="89.87" r="0.73"/><path class="cls-7" d="M488.77,96.37a.74.74,0,1,1-1,1,.73.73,0,0,1,0-1A.75.75,0,0,1,488.77,96.37Z"/><circle class="cls-7" cx="483.65" cy="101.51" r="0.73"/><circle class="cls-7" cx="476.73" cy="89.87" r="0.73"/><rect class="cls-7" x="476.63" y="80.72" width="0.2" height="9.16"/><rect class="cls-7" x="474.1" y="84.87" width="0.6" height="6.17" transform="translate(112.25 406.77) rotate(-51.86)"/><path class="cls-8" d="M412.6,63.09V207.56h20.32V63.61A93.34,93.34,0,0,1,412.6,63.09Z"/><path class="cls-8" d="M52.85,78.08V207.56H73.17V54.07A179.43,179.43,0,0,0,52.85,78.08Z"/><polygon class="cls-7" points="395.94 156.56 399.2 156.56 395.21 207.07 387.28 207.07 395.94 156.56"/><rect class="cls-9" x="325.35" y="128.26" width="15.29" height="12.27" rx="5.78" transform="translate(135.31 434.18) rotate(-78.58)"/><path class="cls-7" d="M399.2,156.56s-17.8-8.35-42.18-2.79l38.92,2.79Z"/><path class="cls-10" d="M387.28,207.56l8.66-51s-27.27-9.16-48.43,0l-12.58,50.67Z"/><path class="cls-11" d="M198.74,191.77c.48,5.53,3.6,7.24,5,7.09s9.41-3.21,9.58-2.09-4.66,4.8-8.05,5c0,0,6.4,7.05,10.65,5s4.61-5.26,7.26-6.47,4.91-1.21,3.81,0-5.88,2.43-7.4,5.11c-.36.63-.71,1.22-1,1.73h9c2.83-1.41,5.22-3.36,5.4-5.46,0-.16,0-.31,0-.45l.28-3.23s4.59-5.36,2.2-9.81a6.74,6.74,0,0,0-1.82-2.11s-4.28-2.59-7.77-2.38a42.13,42.13,0,0,1,3.46,7.23c.27.95.3,1.68-.12,1.89s-1-.45-1.65-1.54a56.45,56.45,0,0,1-3.19-8.1s-2.58-.25-5.51-.29c-1.31,0-2.7,0-4,.12a10.73,10.73,0,0,0-3.41.73l.47.39c.43.37,1.13,1,1.91,1.65,2.31,2,5.32,4.93,4.19,5.19-.91.21-3.76-1.49-6.3-3.17-2.36-1.57-4.45-3.12-4.45-3.12S198.25,186.23,198.74,191.77Z"/><path class="cls-11" d="M203.19,191.92s24.64-.95,30.08,6.09a17.86,17.86,0,0,0,4.9,6.89l.58,1.57s-4.27-4.5-5.8-4.78C233,201.69,235.34,193,203.19,191.92Z"/><path class="cls-11" d="M237.14,204.85a12.87,12.87,0,0,0,1,1h0a5.13,5.13,0,0,1,.46.47,9.09,9.09,0,0,1,.66.82h1.15a13.35,13.35,0,0,0-2.22-2.22h0C238.08,204.84,236,203.56,237.14,204.85Z"/><path class="cls-12" d="M260.16,188.84s-9.94-5.56-5.3-13.11c0,0,3.71-4.64,7.68-5.83,0,0-2.12,11.26,0,11.52S264,168.7,264,168.7s10.47-5,14.58-4.64c0,0-6.5,11-4.38,10.74s9.41-11.4,9.41-11.4,10.73-2,12.46,4.38-1.06,9.54-2.65,9.93-11.8.27-11.53,1.59,7.15,3.45,11,2.26c0,0-4.24,10.46-9.81,9.93s-7.29-4-10.73-4.24-6,.67-4.24,1.59,7.55.31,10.33,2.67,5,3.83-.13,4.89-14.44.4-16.3-3.58Z"/><path class="cls-11" d="M291.16,169.76s-27.82,9-31,19.08a21.2,21.2,0,0,1-2.65,9.68v2s2.91-6.76,4.5-7.69C262,192.82,255.78,184.07,291.16,169.76Z"/><path class="cls-11" d="M254.93,207.1h1.59a20.59,20.59,0,0,1,1.1-6.85h0a6.62,6.62,0,0,1,.32-.71h0c.33-.64.55-1.12.7-1.47h0c.81-2-1.13.46-1.13.46A18.55,18.55,0,0,0,254.93,207.1Z"/><path class="cls-12" d="M244.35,181.17s13.1-7.34,7-17.29c0,0-4.89-6.12-10.13-7.69,0,0,2.8,14.85,0,15.2s-1.92-16.77-1.92-16.77-13.8-6.64-19.21-6.12c0,0,8.55,14.5,5.76,14.15s-12.4-15-12.4-15S199.28,145,197,153.4s1.4,12.57,3.49,13.1,15.55.35,15.2,2.09-9.43,4.54-14.5,3c0,0,5.59,13.8,12.93,13.1s9.6-5.24,14.14-5.59,7.87.88,5.59,2.1-10,.4-13.62,3.52-6.64,5,.17,6.44,19,.52,21.49-4.72Z"/><path class="cls-11" d="M203.47,156s36.68,11.87,40.88,25.15a27.8,27.8,0,0,0,3.49,12.75v2.62s-3.84-8.91-5.94-10.13C241.9,186.41,250.11,174.88,203.47,156Z"/><path class="cls-11" d="M246.35,193.32h0c.18.46.48,1.09.92,1.94h0a10,10,0,0,1,.42.93h0c1.25,3.15,1.5,7.49,1.46,10.91h2.1a24.63,24.63,0,0,0-3.41-13.19h0C247.78,193.85,245.29,190.72,246.35,193.32Z"/><path class="cls-13" d="M309.57,207.23H359.4a54.79,54.79,0,0,0,2-5.68,95.91,95.91,0,0,0,2.92-15.8,1.49,1.49,0,0,0,0-.21,183,183,0,0,0,.88-23.63c-.08-3.11-.2-5-.21-5.11h0l-.32-.13c-2.64-1.11-5.18-2.06-7.6-2.89h0c-2-.7-4-1.3-5.9-1.82a85.92,85.92,0,0,0-9.28-2,67.09,67.09,0,0,0-9.16-.85h-.37c-.72,0-1.42,0-2.09,0a39.55,39.55,0,0,0-13.66,2.41c-.32.12-.59.24-.82.35l-.09,0-.6.29-.06,0a1.18,1.18,0,0,0-.19.11l-3.6,37.76Z"/><path class="cls-13" d="M259.91,199.07c5,2.32,34.69,4.26,37.54,3.44,1.47-.42,7.59-5.81,13.75-12.45h0c5.83-6.27,11.71-13.66,13.69-19a32.48,32.48,0,0,0,.57-20.62s-7.58,0-10.66,1.83-20.75,34.39-23.11,35.25-30.34,2.46-33.54,4C258.15,191.53,254.93,196.75,259.91,199.07Z"/><path class="cls-14" d="M332.32,150.39v1.84s-.51,5.75,6.57,6.6,12.44-2.22,12.26-6.66c-.63-3.43-1.33-5.79-1.37-8.64a20.4,20.4,0,0,1,.25-3.44l-13.72-.3-4,.66Z"/><path class="cls-15" d="M332.28,140.45l0,9.94a11.53,11.53,0,0,0,4.94,1.1c6.31,0,12.59-10.14,12.78-11.4Z"/><path class="cls-14" d="M331.47,145.28s17.57,3.58,19.63-7.4,5.71-17.9-5.42-20.65-14.1,1-15.68,4.53S327,144.07,331.47,145.28Z"/><path class="cls-16" d="M326.6,113.59a36.58,36.58,0,0,0,10.69-2.87c4.69-2,10.61.22,12.52,1.24a2.89,2.89,0,0,0-.46-1.16,2.63,2.63,0,0,1,1,1.47c.08.07.12.11.1.13a3.34,3.34,0,0,1,1.61.1s-.44-.06-.6.22a.27.27,0,0,1-.07.08c7.31,3.55,8,15.11,5.61,17.79-2.84,3.21-6.25,10.46-6.25,10.46a6.25,6.25,0,0,1-.71-4.55c.52-2.83-1.93-2.84-5-4.13s-.51-4.89-3.21-7.09-12.62-.92-12.49-2.59C325.63,121.34,326.6,114,326.6,113.59Z"/><path class="cls-17" d="M359.4,207.23a54.79,54.79,0,0,0,2-5.68,95.91,95.91,0,0,0,2.92-15.8,1.49,1.49,0,0,0,0-.21s-.1.12-.14.07c-1.94-2.36-7.23-4.93-13.65,4.45-1.28,1.88-6.89,15-7.78,17.17Z"/><path class="cls-14" d="M354.19,207.23a5.37,5.37,0,0,0-.68-3.24s-.82-.53-1.91-1.15c-1.63-.92-3.85-2-4.86-1.85-.18,0-.43.08-.71.15-2.4.58-8,2.29-8.81,3.3-.7.83-1.64,1.88-2.29,2.79Z"/><path class="cls-13" d="M350.5,207.23h46.95a2.84,2.84,0,0,0,0-1.57c-1.4-3.54-4.14-9.37-7.28-15.61-2.32-4.6-4.86-9.43-7.25-13.74-3.33-6-6.38-11-8.17-13.07a21.32,21.32,0,0,0-5.05-4.09A35,35,0,0,0,365,156.8h0l-.32-.13a41.87,41.87,0,0,0-5.86-1.9s0,1.48,0,3.76c0,6.62.25,19.95,2.36,23.21a45.41,45.41,0,0,0,3,3.88l.12.14c.74.87,1.57,1.8,2.43,2.77,4.9,5.48,11.1,11.93,11.86,12.72l.08.08h-.09l-13.17.18-4,.05-8.38.12a3.13,3.13,0,0,0-1.37,1.17A8.48,8.48,0,0,0,350.5,207.23Z"/><path class="cls-17" d="M259.91,199.07c5,2.32,34.69,4.26,37.54,3.44,1.47-.42,7.59-5.81,13.75-12.45-.31.05-3.12-4.65-16,6.58,0,0-3.36,1.5-12.51.66S261.81,196.16,259.91,199.07Z"/><path class="cls-18" d="M289.09,207.14H323a2.7,2.7,0,0,0-2.7-2.7H289.09Z"/><polygon class="cls-18" points="289.18 170.17 236.7 170.17 249.29 207.15 302.11 207.15 289.18 170.17"/><polygon class="cls-19" points="235.93 170.17 248.51 207.14 301.34 207.14 288.41 170.17 235.93 170.17"/><path class="cls-20" d="M264.22,188.32a3.42,3.42,0,0,0,3.15,2.55,2,2,0,0,0,2-2.55,3.41,3.41,0,0,0-3.15-2.56A2,2,0,0,0,264.22,188.32Z"/><polygon class="cls-18" points="235.93 170.17 248.51 207.14 273.09 207.14 243.66 170.17 235.93 170.17"/><rect class="cls-9" x="340.21" y="128.26" width="15.29" height="12.27" rx="5.78" transform="translate(147.23 448.75) rotate(-78.58)"/><path class="cls-9" d="M351.44,128.65c.47-.84,1.15-7.65-.72-13.07a8.65,8.65,0,0,0-4.2-5.12,4.4,4.4,0,0,0-2.16-.56l-1.84,0c6.07,2.57,7.47,16.32,7,17.79a.3.3,0,0,1,.05-.1Z"/><path class="cls-9" d="M333.72,143a18.81,18.81,0,0,0,15.3-8.15l-.91-.56.46.28-.46-.28a17.7,17.7,0,0,1-14.39,7.64h-.19V143Z"/><rect class="cls-13" x="344.76" y="131.49" width="7.62" height="6.11" rx="2.88" transform="translate(147.55 449.49) rotate(-78.56)"/><path class="cls-9" d="M332.45,143.32h1a.9.9,0,0,0,.9-.89h0a.9.9,0,0,0-.9-.89h-1a.89.89,0,0,0-.89.89h0A.89.89,0,0,0,332.45,143.32Z"/><path class="cls-16" d="M536.59,127.35s8.56,4.38,2.32,13.78c0,0,7.36.85,9.21-1.26a5.89,5.89,0,0,1-.61,1.38s7.13-.94,9.68-3.64S551.78,99,532.8,106.34c0,0-16.87,1.54-12.08,20.56S519.21,147,519.21,147a9.15,9.15,0,0,0,2.74.43s1.16-.68,1.29-1.4a4.54,4.54,0,0,1-.33,1.51s6.9-.5,9.86-3.63S538.22,131.17,536.59,127.35Z"/><rect class="cls-21" x="518.32" y="123.51" width="14.82" height="11.9" rx="5.6" transform="translate(325.35 632.45) rotate(-82.11)"/><path class="cls-22" d="M522.41,165.47c2.56,2,4.17,9.09,8.29,10.27,15.44,4.41,23.73-13.93,26.44-22.88a13.27,13.27,0,0,0-5.21-1.89c-1.12-.2-2.31-.34-3.29-.44-1.68-1.44-4-7.07-4.16-15.64l-.74.16-12.49,2.74s.37,4,.45,7.66c.07,2.91.16,3.6-.06,4-1,.16-2.12,2.64-2.12,2.64h0A79.8,79.8,0,0,0,522.41,165.47Z"/><path class="cls-23" d="M531.25,137.8s.37,3.94.45,7.65c7-.34,10.59-6.82,12-10.4Z"/><path class="cls-10" d="M467.75,202.55s7.34.27,15.31.29h2.85c6.49,0,12.88-.25,15.59-1s12.86-7.6,21-16h0c.63,1.51,1.11,2.66,1.12,2.75a43.39,43.39,0,0,0,1.12,5.58,67.74,67.74,0,0,0,5.05,12.89h4.37l34.14,0s-6.45-9.93-4.72-35.38c0-.64-5.94-21.17-5.94-21.17s-4.65-.82-10-1.25c-.51.46-1.55,14-8.28,14.75-1.09.12-8.11,10.84-8.11,10.84l-2.12-11,2.51-14.52a75.28,75.28,0,0,0-7.68,2.35,8.43,8.43,0,0,0-4.28,3.81c-4.7,8.58-19.95,36.28-21.51,36.93s-6.95,1.7-12.76,2.76h0c-7.78,1.42-16.13,2.77-16.13,2.77Z"/><polygon class="cls-10" points="527.38 207.14 529.83 207.15 529.82 207.13 527.38 207.14"/><path class="cls-22" d="M529.17,141.55s16.6-.33,16.24-10.66,1.54-17.34-9.08-17.57-12.53,3.79-13.25,7.27S524.84,141.37,529.17,141.55Z"/><path class="cls-7" d="M483.06,202.84h2.85c6.49,0,12.88-.25,15.59-1s12.86-7.6,21-16h0s-1.73-6.6-2.47-7.7-3.67,9.62-10.52,14-17.55,7.42-22.75,6.18C483.28,197.55,482.92,200.7,483.06,202.84Z"/><path class="cls-24" d="M532.43,135.8s-.11,1.23-2.83,1.43c0,0-2.28.16-2.38-1.17A6.69,6.69,0,0,1,532.43,135.8Z"/><path class="cls-9" d="M531.53,140a18.24,18.24,0,0,0,11.77-12l-1-.25.51.12-.51-.12A17.18,17.18,0,0,1,531.22,139l-.18,0,.3,1Z"/><path class="cls-21" d="M530.46,140.67l.89-.28a.86.86,0,0,0,.57-1.08h0a.87.87,0,0,0-1.09-.56l-.89.28a.87.87,0,0,0-.56,1.08h0A.86.86,0,0,0,530.46,140.67Z"/><path class="cls-16" d="M528.23,112s4.25,12.59,10.62,14.72,8.49-.39,8.49-.39a18.38,18.38,0,0,1-5.23-11.3S531.8,106.8,528.23,112Z"/><path class="cls-16" d="M536.16,115.65s-8.65-.48-11.24,2c-1.86,1.78-1.82,2.71-2,5.08,0,0-3.78-5.84.11-9.93C527.19,108.45,536.16,115.65,536.16,115.65Z"/><path class="cls-16" d="M528.59,113.28s2.17,12,10.1,16.42c0,0-7.68-7.85-7.81-15.71S528.59,113.28,528.59,113.28Z"/><path class="cls-16" d="M557.19,137.61c-2.55,2.7-9.68,3.64-9.68,3.64a5.7,5.7,0,0,0,.6-1.38c-3.66,3-12.65.81-12.65.81,7.17-1.58,4.85-11.94,2.41-12.38a223.3,223.3,0,0,0-5.56-21.89,4.06,4.06,0,0,1,.49-.07C551.78,99,559.74,134.91,557.19,137.61Z"/><rect class="cls-21" x="535.56" y="122.45" width="14.82" height="11.9" rx="5.6" transform="translate(341.29 648.61) rotate(-82.11)"/><path class="cls-21" d="M546.09,122.62c.41-.76-1-6.7-3.12-11.3-1-2.22-3.58-5.2-5.41-6a4,4,0,0,0-2.26,0,17.24,17.24,0,0,0-2,.8c6,1.87,11.23,14.47,10.85,15.77l0-.09Z"/><rect class="cls-25" x="539.97" y="125.53" width="7.38" height="5.93" rx="2.79" transform="translate(341.67 649.34) rotate(-82.1)"/><path class="cls-22" d="M502.7,196.56s-7.12-.41-7.81,0a38.36,38.36,0,0,0-5.55,3.78,39.07,39.07,0,0,0-2.17,3.59s.68.18,1-.09,2.63-2.75,2.63-2.75l-2.39,3.63a2,2,0,0,0,1.15-.4c.33-.36,2.56-2.62,2.56-2.62l.76-.15a8.33,8.33,0,0,0-1.19,1.18,7.43,7.43,0,0,0-.7,1.16,5.49,5.49,0,0,0,.89-.21c.21-.1,2.21-1.85,2.21-1.85L493,203.24a2.71,2.71,0,0,0,1-.19,14.29,14.29,0,0,1,2.07-1.59,9.44,9.44,0,0,0,3.12-.53c.85-.46,3.53-1.49,3.53-1.49Z"/><path class="cls-7" d="M546.66,147.3s4.76,1.38,5.85,2.48c0,0-5,12.72-12.16,18.66l-1.92-1.36v3.09l-7.18,4.7S547,151.15,546.66,147.3Z"/><path class="cls-7" d="M524.77,194.24a67.74,67.74,0,0,0,5.05,12.89h22.69s-2.64,0-2.63,0c.06-.23-3.84-10.8,2.63-15.13s8.82-15,8.82-15l-20.6-5s-8.49,12.38-10.9,14.74c-1.86,1.81-6.18,1.95-6.18,1.95Z"/><path class="cls-7" d="M531.64,149.4s-2.19,17.31-.39,25.47c0,0-2.94-5.4-3.35-6.39l.49-3-1.9.66s1.68-13.8,3.19-16.22,2.07-2.65,2.07-2.65Z"/><path class="cls-22" d="M467.75,202.55s9.18.34,18.16.29c2.23-3.45-.5-7.59-.5-7.59h0c-7.78,1.42-16.13,2.77-16.13,2.77Z"/><path class="cls-21" d="M466.88,207.14h33.94a2.7,2.7,0,0,0-2.7-2.7H466.88Z"/><polygon class="cls-21" points="414.49 170.17 427.08 207.15 479.9 207.15 466.97 170.17 414.49 170.17"/><polygon class="cls-25" points="414.49 170.17 426.96 206.8 427.08 207.15 479.13 207.15 466.2 170.17 414.49 170.17"/><path class="cls-26" d="M442,188.32a3.42,3.42,0,0,0,3.15,2.55,2,2,0,0,0,2-2.55,3.41,3.41,0,0,0-3.15-2.56A2,2,0,0,0,442,188.32Z"/><polygon class="cls-21" points="414.49 170.17 426.96 206.8 450.88 206.8 421.72 170.17 414.49 170.17"/><path class="cls-22" d="M502.69,199.44s17.48,1.52,27.14,1.09V191c-6.33,1.75-27.13,5.52-27.13,5.52Z"/><path class="cls-10" d="M552.51,149.78s10,.23,13.08,3.57-3.07,22.22-3.07,22.22S543.9,198.38,534.58,200c0,0-4.08.56-6,.59,0,0,1.87-5.43-1.6-8.83,0,0,4-1.12,4.16-1.62S552.51,149.78,552.51,149.78Z"/><path class="cls-27" d="M134.88,106.78S145,103,151.32,110.41c3.63,4.24,26.81,48.44,26.54,52.31a8.82,8.82,0,0,1-2.49,5.8s1-3.38.24-5.15c0,0,.47,6-3.21,8.5-1.92,1.33-49.65-1.26-53.8-7-9-12.57,10.68-19.08,10.2-32.66C128.51,124.3,120.78,107.58,134.88,106.78Z"/><rect class="cls-21" x="119.63" y="121.79" width="14.82" height="11.9" rx="5.6" transform="translate(-23.32 226.97) rotate(-78.58)"/><path class="cls-25" d="M81.92,207.08h31.67c5.37-8.53,10.1-20,11.2-29,.52-4.25.23-7.93-1.19-10.45-4.43-7.81,2.59-17,2.59-17s-9.66,2.73-11.91,10.7-8.43,35.1-8.43,35.1l-23.51,4.83A11,11,0,0,0,81.92,207.08Z"/><path class="cls-21" d="M81.92,207.08h31.67c5.37-8.53,10.1-20,11.2-29l-4.7-1.44s-5.94,27.13-9.4,27.55S81.92,207.08,81.92,207.08Z"/><path class="cls-22" d="M121.51,163.48a29.22,29.22,0,0,0,9.6,5.43c15.14,5.35,22.58-7.12,25.84-15.88a13.41,13.41,0,0,0-5.08-2.22c-1.11-.26-2.28-.48-3.26-.64-1.59-1.53-3.57-7.3-3.19-15.86l-.75.12-12.63,2s.12,3.95,0,7.67c-.11,2.9-.39,5.66-1,6.27l-1.57.17h0A78.82,78.82,0,0,0,121.51,163.48Z"/><path class="cls-23" d="M132,136.4s.12,3.95,0,7.67c7,.09,11-6.16,12.65-9.64Z"/><path class="cls-25" d="M115.49,176.63c0,.27,3.41,11.25,3.45,11.52,1.17,9.19,3.29,19,3.29,19h4.64l30.6-.06s-3.69-11.14,6.05-28.22c.32-.56.65-1.13,1-1.7,1.39-2.28-7.36-26.64-7.36-26.64s-3.84-.67-9.21-1.11c-.51.47-4.24,14.13-11,14.54-8.82.55-5.48-14.67-5.48-14.67a30.62,30.62,0,0,0-9.5,3.19S115.31,175.13,115.49,176.63Z"/><path class="cls-22" d="M129.73,140s16.59.69,16.86-9.65,2.6-17.21-8-18.09-12.74,3-13.67,6.44S125.42,139.57,129.73,140Z"/><path class="cls-24" d="M133.34,134.47s-.18,1.23-2.91,1.26c0,0-2.3,0-2.31-1.31A6.72,6.72,0,0,1,133.34,134.47Z"/><path class="cls-9" d="M132.18,138.59a18.24,18.24,0,0,0,12.49-11.25l-1-.31.49.15-.49-.15a17.22,17.22,0,0,1-11.75,10.56l-.18,0,.24,1Z"/><path class="cls-27" d="M131.07,139.22,132,139a.88.88,0,0,0,.63-1.05h0a.88.88,0,0,0-1.05-.63l-.9.23a.85.85,0,0,0-.63,1h0A.85.85,0,0,0,131.07,139.22Z"/><path class="cls-27" d="M139.13,105.85s-10.68-1.67-15.1,7.22c-3.37,6.77-.56,11,.76,12.3,0,0,1.74-9.73,5-10.56a3.53,3.53,0,0,1,3.54,1c1.43,1.67,3.51,9.11,5.89,10.25,0,0,7.4,1.83,7.77-.76s.16-10.62-1.71-11.92S139.13,105.85,139.13,105.85Z"/><rect class="cls-21" x="136.9" y="121.79" width="14.82" height="11.9" rx="5.6" transform="translate(-9.46 243.91) rotate(-78.58)"/><path class="cls-21" d="M147.78,122.16c.45-.73,1.12-6.66-.69-11.39a7.85,7.85,0,0,0-4.08-4.46,4.69,4.69,0,0,0-2.09-.49l-1.79,0c5.88,2.24,7.25,14.22,6.79,15.5a.36.36,0,0,1,.05-.09Z"/><rect class="cls-25" x="141.3" y="124.91" width="7.39" height="5.93" rx="2.79" transform="translate(-9.1 244.63) rotate(-78.56)"/><path class="cls-21" d="M157.47,207.08s-3.69-11.14,6.05-28.22l-3.63-4.53s-6.42,18.19-14.45,23.49S128,202,126.87,207.14Z"/><path class="cls-25" d="M157.16,150.52s6.6.58,11,8.39,12.82,37,12.82,48.17H145.66a10.92,10.92,0,0,1,.41-5.8l21.87-4.23s-13.16-19.55-13.3-28S157.16,150.52,157.16,150.52Z"/><path class="cls-22" d="M145.44,203.49s-6.88-.68-8-.37a33.85,33.85,0,0,0-5.14,2.13,21.63,21.63,0,0,0-2.12,1.83,4.73,4.73,0,0,0,1.4,0c.52-.12,2.07-.22,2.49-.26a13.42,13.42,0,0,1,1.9.28h10.67Z"/><path class="cls-17" d="M83.08,207.14H117a2.7,2.7,0,0,0-2.7-2.7H83.08Z"/><polygon class="cls-17" points="30.69 170.17 43.28 207.15 96.1 207.15 83.17 170.17 30.69 170.17"/><polygon class="cls-28" points="30.69 170.17 43.16 206.8 43.28 207.15 95.33 207.15 82.4 170.17 30.69 170.17"/><path class="cls-25" d="M58.21,188.32a3.42,3.42,0,0,0,3.15,2.55,2,2,0,0,0,2-2.55,3.41,3.41,0,0,0-3.15-2.56A2,2,0,0,0,58.21,188.32Z"/><polygon class="cls-17" points="30.69 170.17 43.16 206.8 67.08 206.8 37.92 170.17 30.69 170.17"/><rect class="cls-29" x="5" y="207.81" width="612.39" height="2.63" rx="0.87" transform="translate(622.39 418.25) rotate(180)"/></g></g></svg>