<?xml version="1.0" encoding="utf-8"?>
<!-- Generator: Adobe Illustrator 24.2.3, SVG Export Plug-In . SVG Version: 6.00 Build 0)  -->
<svg version="1.1" id="Layer_1" xmlns="http://www.w3.org/2000/svg" xmlns:xlink="http://www.w3.org/1999/xlink" x="0px" y="0px"
	 viewBox="0 0 971 869.8" style="enable-background:new 0 0 971 869.8;" xml:space="preserve">
<style type="text/css">
	.st0{fill:url(#SVGID_1_);}
	.st1{fill:url(#SVGID_2_);}
	.st2{fill:url(#SVGID_3_);}
	.st3{fill:url(#SVGID_4_);}
	.st4{fill:none;stroke:#1D1D1B;stroke-width:25;stroke-miterlimit:10;}
	.st5{fill:none;stroke:#1D1D1B;stroke-width:25;stroke-linejoin:round;}
	.st6{fill:none;stroke:#1D1D1B;stroke-width:25;stroke-linecap:round;stroke-linejoin:round;}
</style>
<g id="Layer_2_1_">
	<g id="Layer_1-2">
		
			<linearGradient id="SVGID_1_" gradientUnits="userSpaceOnUse" x1="377.5289" y1="167.7718" x2="326.8753" y2="331.2466" gradientTransform="matrix(1 9.835833e-04 1.173272e-03 -1.1931 -0.5332 1055.7466)">
			<stop  offset="0" style="stop-color:#C6C6C6"/>
			<stop  offset="0.37" style="stop-color:#797878"/>
			<stop  offset="0.57" style="stop-color:#616060"/>
			<stop  offset="0.84" style="stop-color:#464645"/>
			<stop  offset="1" style="stop-color:#3C3C3B"/>
		</linearGradient>
		<path class="st0" d="M197.9,807.1l110.9-130.7c8-10.6,12.8-20,14.6-28.2c1.8-8.2,0.7-14.9-3-20.5l-1.2-1.7
			c-3.9-5.7-10.7-9.5-20.4-11.3c-9.7-1.9-21.9-1.9-36.6,0c-15.3,2-26.1,5.5-32.3,10.5c-6.3,5.1-7.7,11.6-4.1,19.4l2.6,4.3
			l-109.8,14.5l-2.2-4.4c-6-14-4.9-26.4,3-37.3c7.8-10.7,21.7-19.7,41.8-27c19.8-7.3,45.2-12.8,76-16.6c31.9-4,60-5.4,84.5-4.2
			c24.5,1.1,45.3,4.8,62.2,11c17.1,6.3,30.3,15.3,39.4,27l1.2,1.5c7,8.9,10,19.2,8.8,30.9c-1.2,12-6.3,25-15.5,39.3l-71.9,97.9
			l189.4-28.1l38.3,49l-350.7,54.1L197.9,807.1z"/>
		
			<linearGradient id="SVGID_2_" gradientUnits="userSpaceOnUse" x1="380.0492" y1="646.677" x2="333.3519" y2="797.3835" gradientTransform="matrix(1 9.835833e-04 -1.173272e-03 1.1931 0.6706 -168.4068)">
			<stop  offset="0" style="stop-color:#C6C6C6"/>
			<stop  offset="0.37" style="stop-color:#797878"/>
			<stop  offset="0.57" style="stop-color:#616060"/>
			<stop  offset="0.84" style="stop-color:#464645"/>
			<stop  offset="1" style="stop-color:#3C3C3B"/>
		</linearGradient>
		<path class="st1" d="M218.1,869.5l-32.9-64.3l116.5-137.3c8.3-11.1,11.2-18.6,12.1-22.9c1.2-5.3,0.1-7.8-1.1-9.5l-1.2-1.7
			c-2.2-3.2-7.3-5.7-14.3-7.1c-8.8-1.7-20.2-1.7-34,0.1c-17,2.2-24.5,5.9-27.8,8.5c-0.6,0.4-1.1,1-1.5,1.6c0.1,0.4,0.2,0.8,0.4,1.2
			l12.4,20.6l-133.2,17.7l-5.9-11.7c-7.9-18.6-6.3-36.2,4.5-51c9.1-12.4,24.3-22.5,46.4-30.6c20.3-7.4,46.5-13.2,77.9-17.1
			c32.2-4,61.1-5.5,85.9-4.3c25.3,1.2,47.1,5.1,64.7,11.6c18.8,6.9,33.5,17.1,43.8,30.2l1.2,1.5c9.1,11.7,13,25.4,11.5,40.7
			c-1.4,14.4-7.1,29.3-17.6,45.4l-0.4,0.6l-54.2,73.7l168-24.9l55.4,70.9L218.1,869.5z M210.7,809l17.6,34.4l324.6-50.1l-21.2-27
			l-210.9,31.2l89.5-121.7c7.8-12.2,12.3-23.3,13.2-32.9c0.8-8-1.2-14.8-6.1-21.1l-1.2-1.5c-7.8-10-19.7-18-35.1-23.7
			c-16-5.9-36.1-9.4-59.7-10.5c-23.9-1.1-51.9,0.3-83.1,4.2c-30.1,3.8-55,9.2-74.1,16.2c-18.3,6.7-30.8,14.6-37.2,23.4
			c-4.6,6.3-5.5,12.6-2.8,20.6l89.9-11.9c-0.6-9.1,3-17.5,10.4-23.4c7.6-6.2,19.7-10.3,36.8-12.5c15.7-2,28.6-2,39.2,0
			c12.3,2.5,21,7.5,26.5,15.5l1.1,1.7c4.1,6,8.4,16.3,5,31.4c-2.3,10.3-7.8,21.2-16.9,33.3l-0.4,0.5L210.7,809z"/>
		
			<linearGradient id="SVGID_3_" gradientUnits="userSpaceOnUse" x1="717.744" y1="635.7332" x2="676.5397" y2="768.6854" gradientTransform="matrix(1 9.835833e-04 -1.173272e-03 1.1931 0.6706 -168.4068)">
			<stop  offset="0" style="stop-color:#C6C6C6"/>
			<stop  offset="0.37" style="stop-color:#797878"/>
			<stop  offset="0.57" style="stop-color:#616060"/>
			<stop  offset="0.84" style="stop-color:#464645"/>
			<stop  offset="1" style="stop-color:#3C3C3B"/>
		</linearGradient>
		<path class="st2" d="M455,553.6l94.4-11.8l218.6,230.7l-111,17.1L455,553.6z M679.2,732.9l109.1-16.1c24.9-3.7,41.2-9.3,48.9-16.7
			c7.6-7.3,6-15.8-4.4-25.6l-96-89.6c-8.9-8.3-21.7-13.8-38.5-16.6c-16.8-2.8-36.3-2.7-58.8,0.2l-98.2,12.7L510,546.7l98.9-12.4
			c33.7-4.2,64.5-5.6,92.8-4.4s53.4,5.3,75.2,12.1c22.1,6.9,40.3,16.4,54.5,28.5l106,90.9c16.3,14,24.2,27.4,23.4,40.3
			c-0.9,13.1-11.4,24.8-31.9,35.1c-20.8,10.5-51.3,18.9-91.5,25.1l-115.6,17.8L679.2,732.9z"/>
		
			<linearGradient id="SVGID_4_" gradientUnits="userSpaceOnUse" x1="711.595" y1="632.2314" x2="670.1194" y2="766.0859" gradientTransform="matrix(1 9.835833e-04 -1.173272e-03 1.1931 0.6706 -168.4068)">
			<stop  offset="0" style="stop-color:#C6C6C6"/>
			<stop  offset="0.37" style="stop-color:#797878"/>
			<stop  offset="0.57" style="stop-color:#616060"/>
			<stop  offset="0.84" style="stop-color:#464645"/>
			<stop  offset="1" style="stop-color:#3C3C3B"/>
		</linearGradient>
		<path class="st3" d="M653.4,802.5l-221-258.3l175.5-21.9c33.9-4.2,65.6-5.7,94.2-4.4c28.9,1.3,54.9,5.5,77.3,12.4
			c23.3,7.2,42.7,17.4,57.8,30.3l106,90.9c19.7,16.9,28.8,33.7,27.6,51.3c-1.2,18.3-13.7,33.1-38,45.4c-21.6,11-53.2,19.6-94,25.9
			l-120.2,18.5l0,0L653.4,802.5z M477.5,563l182.9,213.8l38.4-5.9l-42.6-46.9l44.2-6.6L578.4,588.5l-40.4,5.2l-31.3-34.4L477.5,563z
			 M702.2,741.7l22.8,25.1l19.4-3L720.9,739L702.2,741.7z M747.7,735l23.4,24.7l65-10c39-6.1,69-14.2,88.9-24.3
			c15.8-8,25.2-17,25.7-24.9s-6.3-18.2-19.1-29.3l-106-90.8c-13-11.2-30.3-20.1-51.2-26.6c-20.9-6.5-45.6-10.4-73.1-11.7
			c-27.7-1.2-58.4,0.2-91.4,4.3l-36.5,4.6l11.5,12.2l53.5-6.9c23.2-3,43.7-3,61.2-0.1c18.8,3.1,32.9,9.3,43.2,19l96,89.5
			c8.7,8.1,13,16.4,13,25.3c0,5.1-1.4,12.7-8.5,19.6c-9.4,9.1-26.5,15.2-53.9,19.3L747.7,735z M605.6,585l121.7,128.4l59.8-8.9
			c30.1-4.5,40.4-10.8,43.9-14.2c0.2-0.2,0.4-0.4,0.6-0.7c-1.4-2.2-3-4.1-4.8-5.7l-96-89.6c-7.4-6.9-18.8-11.7-33.8-14.2
			c-15.8-2.6-34.8-2.6-56.4,0.2L605.6,585z M533.4,556l11.2,12.4l13-1.7L546,554.5L533.4,556z"/>
		<g>
			<polyline class="st4" points="327.3,332.1 327.3,320 327.3,320 			"/>
			<path class="st4" d="M327.9,127.7l0.3-89l116.4,58.7l-1.4,448.6c0,0.5-0.3,0.8-0.7,0.8c-0.1,0-0.2,0-0.3-0.1l-81.3-40.9"/>
			<path class="st4" d="M700.7,124.4c10.9,18.3,16.3,41.2,16.2,68.6l-0.6,188.1c-0.1,26.6-5.5,50.5-16.2,71.5s-26.6,38.3-47.8,51.6
				c-21.1,13.3-46.8,22-77,25.8l-85.4,11l-40.8,5.3c-3,0.4-5.7-2.3-6-5.9c0-0.2,0-0.5,0-0.7l1.3-442.5l80.7-10.4l51.8-6.7
				c29.6-3.8,54.9-2,75.8,5.5C673.8,93.2,689.8,106.1,700.7,124.4z M633.5,388.4L634,207c0.1-18.1-5.1-31.5-15.6-39.9
				c-10.4-8.5-25.3-11.4-44.5-9l-49,6.3l-0.9,294.6l49-6.3c19.2-2.5,34.1-9.3,44.6-20.4C628.1,421.2,633.4,406.5,633.5,388.4"/>
			<path class="st5" d="M318.2,31.3c20.2-3.5,49.6-8.1,85.3-11.7c47.2-4.7,86.4-2.5,114.1,2.5C548.7,27.6,599.7,37.2,661,89"/>
		</g>
		<g>
			<path class="st4" d="M255.5,116.9c35.4-4.5,62.7,1.3,82,17.6c19.3,16.3,28.9,41.6,28.8,76.1l-0.1,36.8c0,16.3-4.6,31.5-13.8,45.7
				c-9,14-21.7,25.8-38,35.5c-0.1,0.1-0.1,0.2-0.1,0.3c0,0.1,0.1,0.1,0.2,0.1c18.5,2.8,32.9,10.8,43.2,23.9
				c10.4,13.3,15.6,30.8,15.5,52.5l-0.1,40.8c-0.1,24.1-4.8,45.3-14.2,63.5c-9.4,18.2-22.9,33-40.8,44.4
				c-17.8,11.4-39.3,18.7-64.6,21.9c-27.9,3.6-51,2.1-69.3-4.4s-32-18.6-41.3-36.1c-9.3-17.5-14.2-41.1-14.7-70.8
				c0-0.1,0.1-0.2,0.2-0.3l82.2-10.6c0.1,0,0.2,0.1,0.2,0.2c0,0,0,0,0,0c0.6,11.4,2.3,20.5,5.2,27.2c2.5,6.4,6.9,11.5,12.4,14.2
				c5.4,2.6,12.3,3.4,20.8,2.3c12.6-1.6,22.4-6.4,29.4-14.3c7-7.9,10.4-18.4,10.5-31.4l0.1-37.4c0-13.6-3-23.7-9.1-30.4
				c-6.1-6.6-14.8-9.2-26.2-7.8l-30.8,4c-0.1,0-0.2-0.1-0.2-0.3c0,0,0,0,0,0l0.2-77.8c0-0.1,0.1-0.2,0.2-0.3l30.9-4
				c8.9-1.2,15.8-5.3,20.7-12.6c4.9-7.2,7.3-16.7,7.4-28.5l0.1-31.9c0-10.5-2.5-18.3-7.5-23.5c-5-5.1-12.2-7.1-21.5-5.9
				c-7.2,0.9-13.3,3.5-18,7.7c-4.8,4.2-8.6,10.3-11.4,18.3c-2.8,7.9-4.5,18.1-5.2,30.5c0,0.1-0.1,0.2-0.2,0.2l-82.2,10.6
				c-0.1,0-0.2-0.1-0.2-0.2c0,0,0,0,0,0c0.9-30.7,6-56.2,15.1-76.5c9.1-20.3,22.8-36.8,39.5-47.6
				C207.8,127.7,229.4,120.3,255.5,116.9z"/>
		</g>
		<path class="st4" d="M136,263.2L21.9,217.8c-2.2-20.2-3.3-56.1,12.9-89.7c27.4-57.1,93.4-84.7,163-63.6
			c32.6,16.4,76,37.9,108.6,54.4"/>
		<path class="st6" d="M184.2,571.8l-143-58.1c-5.2-4.4-9.1-7.1-13.8-14.5C5,463.9,14.1,417.4,16.1,408.1l78.3-12.8
			c41.2,18.3,72.5,38,113.7,56.2"/>
		<line class="st4" x1="22.8" y1="419.8" x2="133.9" y2="469.1"/>
		<line class="st4" x1="157" y1="262.7" x2="226.7" y2="301.9"/>
		<line class="st4" x1="112.3" y1="261.3" x2="110" y2="323.8"/>
		<line class="st4" x1="222.8" y1="380.4" x2="102.9" y2="310.1"/>
		<path class="st4" d="M172.6,352.5c4,17.6,5.2,36,3.4,54.1c-0.7,7-1.9,13.8-3.5,20.6"/>
	</g>
</g>
</svg>
