<?xml version="1.0" encoding="utf-8"?>
<!-- Generator: Adobe Illustrator 24.2.3, SVG Export Plug-In . SVG Version: 6.00 Build 0)  -->
<svg version="1.1" id="Layer_1" xmlns="http://www.w3.org/2000/svg" xmlns:xlink="http://www.w3.org/1999/xlink" x="0px" y="0px"
	 viewBox="0 0 990.9 948.9" style="enable-background:new 0 0 990.9 948.9;" xml:space="preserve">
<style type="text/css">
	.st0{fill:none;stroke:#5835F2;stroke-width:28;stroke-linejoin:round;}
	.st1{fill:none;stroke:#5835F2;stroke-width:14;stroke-linejoin:round;}
	.st2{fill:none;stroke:#5835F2;stroke-width:18;stroke-miterlimit:10;}
	.st3{fill:none;stroke:#5835F2;stroke-width:18;stroke-linecap:round;stroke-linejoin:round;}
	.st4{fill:none;stroke:#5835F2;stroke-width:28;stroke-miterlimit:10;}
	.st5{fill:none;stroke:#5835F2;stroke-width:18;stroke-linejoin:round;}
</style>
<g id="Layer_2_1_">
	<g id="Layer_4">
		<path class="st0" d="M182.8,690.9h125c10.3,0,18.6-8.3,18.6-18.6V505c0-10.2-8.3-18.5-18.6-18.5c0,0,0,0,0,0H28.6
			c-10.2,0-18.6,8.3-18.6,18.5c0,0,0,0,0,0v167.3c0,10.3,8.3,18.6,18.6,18.6h104.7l27.3,35.4L182.8,690.9z"/>
		<polygon class="st1" points="123.9,521.9 133.6,541.4 155.2,544.6 139.5,559.8 143.2,581.3 123.9,571.1 104.6,581.3 108.3,559.8 
			92.7,544.6 114.3,541.4 		"/>
		<polygon class="st1" points="218.4,521.9 228,541.4 249.6,544.6 234,559.8 237.7,581.3 218.4,571.1 199,581.3 202.7,559.8 
			187.1,544.6 208.7,541.4 		"/>
		<polygon class="st1" points="74.5,597.6 84.2,617.2 105.8,620.3 90.1,635.5 93.8,657 74.5,646.9 55.2,657 58.9,635.5 43.3,620.3 
			64.8,617.2 		"/>
		<polygon class="st1" points="167.8,597.6 177.5,617.2 199.1,620.3 183.5,635.5 187.1,657 167.8,646.9 148.5,657 152.2,635.5 
			136.6,620.3 158.2,617.2 		"/>
		<polygon class="st1" points="263.4,597.6 273,617.2 294.6,620.3 279,635.5 282.7,657 263.4,646.9 244.1,657 247.8,635.5 
			232.1,620.3 253.7,617.2 		"/>
		<polygon class="st0" points="431.3,112.6 450.1,93.6 482.8,123.3 537.3,67.8 559.8,89.6 484.6,162.6 		"/>
		<circle class="st0" cx="493.5" cy="105.4" r="95.4"/>
		<rect x="902.2" y="492.8" class="st2" width="34.5" height="448.6"/>
		<rect x="843" y="654.2" class="st2" width="34.5" height="287.4"/>
		<rect x="783.8" y="572.5" class="st2" width="34.5" height="370.5"/>
		<rect x="724.5" y="625.2" class="st2" width="34.5" height="316.9"/>
		<rect x="665.3" y="696" class="st2" width="34.5" height="246.3"/>
		<rect x="606" y="724.5" class="st2" width="34.5" height="218"/>
		<rect x="546.8" y="854.8" class="st2" width="34.5" height="86.9"/>
		<line class="st2" x1="506.5" y1="942.8" x2="974.1" y2="942.8"/>
		<line class="st2" x1="528.1" y1="494.8" x2="685.8" y2="494.8"/>
		<line class="st2" x1="528.1" y1="523.7" x2="556.3" y2="523.7"/>
		<line class="st2" x1="572" y1="523.7" x2="600.2" y2="523.7"/>
		<line class="st2" x1="614.8" y1="523.7" x2="685.8" y2="523.7"/>
		<line class="st2" x1="528.1" y1="552.6" x2="685.8" y2="552.6"/>
		<line class="st2" x1="656.7" y1="581.5" x2="685.8" y2="581.5"/>
		<line class="st2" x1="571" y1="581.5" x2="641.8" y2="581.5"/>
		<line class="st2" x1="528.1" y1="610.3" x2="559.8" y2="610.3"/>
		<polyline class="st2" points="579.8,610.3 650.3,610.3 681.8,641.8 		"/>
		<polygon class="st2" points="441.3,568.2 441.3,669.8 355.5,669.8 355.5,568.2 381.7,546.4 415.3,546.4 		"/>
		<path class="st3" d="M358.3,509.1c1.2-0.2,19.3-3.3,31.5,10c8.8,9.6,8.6,21.4,8.5,23.9"/>
		<line class="st2" x1="385.3" y1="577.3" x2="385.3" y2="645.7"/>
		<line class="st2" x1="414.9" y1="577.3" x2="414.9" y2="590"/>
		<line class="st2" x1="414.9" y1="605.8" x2="414.9" y2="618.6"/>
		<line class="st2" x1="414.9" y1="633.3" x2="414.9" y2="646"/>
		<polyline class="st4" points="586.1,768 493.1,882.6 448.5,827.1 		"/>
		<polyline class="st4" points="735.8,304.7 887.5,396.5 730.5,590 		"/>
		<polyline class="st4" points="163.2,472.9 98.8,392.8 249.6,304.7 		"/>
		<path class="st4" d="M721.4,447.4H560.2c-14.1,0-25.6-11.5-25.6-25.6l0,0V290.1h186.8"/>
		<rect x="570.4" y="418.5" class="st4" width="1.7" height="1.7"/>
		<path class="st4" d="M292.7,259.7h63.7c11.3,0,20.5,9.2,20.5,20.5v4c0,11.3-9.2,20.5-20.5,20.5h-63.7c-11.3,0-20.5-9.2-20.5-20.5
			v-4C272.2,268.9,281.4,259.7,292.7,259.7z"/>
		<path class="st4" d="M292.7,304.7h71.8c11.3,0,20.5,9.2,20.5,20.5v4c0,11.3-9.2,20.5-20.5,20.5h-71.8c-11.3,0-20.5-9.2-20.5-20.5
			v-4C272.2,313.9,281.4,304.7,292.7,304.7z"/>
		<path class="st4" d="M299.8,349.7h64.7c11.3,0,20.5,9.2,20.5,20.5v4c0,11.3-9.2,20.5-20.5,20.5h-64.7c-11.3,0-20.5-9.2-20.5-20.5
			v-4C279.3,358.9,288.4,349.7,299.8,349.7z"/>
		<path class="st4" d="M314.3,394.8h44.5c11.3,0,20.5,9.2,20.5,20.5v4c0,11.3-9.2,20.5-20.5,20.5h-44.5c-11.3,0-20.5-9.2-20.5-20.5
			v-4C293.8,403.9,303,394.8,314.3,394.8z"/>
		<path class="st4" d="M375.2,432h69.6c2.9-0.4,25.6-3.9,37.8-25.1c8.6-15.1,6.7-30.1,6-34.7"/>
		<path class="st4" d="M350.8,259.7c-13-38.6-11.9-75.6-11.8-78.6c-1.3-14,10.1-24.9,21.2-24.2c10.7,0.6,20.5,12,18.4,25.4
			c-0.1,2-1.1,32.1,21,46.3c6.2,3.9,13.3,6.1,20.6,6.5c6.9,0.4,31.7,2.9,52.1,23c10.4,10.4,17.8,23.3,21.3,37.6l34.5,1.2"/>
		<path class="st4" d="M369.6,298.8c10.1,15.2,23.6,27.9,39.6,36.8c10.8,6,26.9,12.5,49.1,14.1"/>
		<line class="st2" x1="962.5" y1="509.4" x2="990.9" y2="509.4"/>
		<line class="st2" x1="962.5" y1="580.5" x2="990.9" y2="580.5"/>
		<line class="st2" x1="962.5" y1="651.6" x2="990.9" y2="651.6"/>
		<line class="st2" x1="962.5" y1="722.7" x2="990.9" y2="722.7"/>
		<line class="st2" x1="962.5" y1="793.8" x2="990.9" y2="793.8"/>
		<line class="st2" x1="962.5" y1="864.9" x2="990.9" y2="864.9"/>
		<path class="st5" d="M331.1,901.7h29.3c14.3,0,25.9-11.6,25.9-25.9l0,0v-70.9c0-14.3-11.6-25.9-25.9-25.9c0,0,0,0,0,0h-80.9
			c-14.3,0-25.9,11.6-25.9,25.9v70.9c0,14.3,11.6,25.9,25.9,25.9h13l-2.5,27.5L331.1,901.7z"/>
		<line class="st5" x1="288.4" y1="809.7" x2="361.4" y2="809.7"/>
		<line class="st5" x1="315.4" y1="838.2" x2="362.5" y2="838.2"/>
		<line class="st5" x1="272.5" y1="866.8" x2="344.3" y2="866.8"/>
		<line class="st5" x1="272.5" y1="838.2" x2="300.6" y2="838.2"/>
		<path class="st5" d="M316.3,779v-36.4c0-10.2,11.6-18.5,25.9-18.5H423c14.3,0,25.9,8.3,25.9,18.5v50.6c0,10.2-11.6,18.5-25.9,18.5
			h-29.3l-7.4,3.5"/>
		<line class="st5" x1="351" y1="746" x2="424" y2="746"/>
		<line class="st5" x1="378" y1="766.4" x2="425" y2="766.4"/>
		<line class="st5" x1="406.8" y1="786.8" x2="378.9" y2="786.8"/>
		<line class="st5" x1="335.1" y1="766.4" x2="363.2" y2="766.4"/>
		<path class="st5" d="M183.4,786.7V747c0-10.2,11.6-18.5,25.9-18.5h80.9c14.3,0,25.9,8.3,25.9,18.5v32"/>
		<line class="st5" x1="253.7" y1="819.5" x2="251" y2="820.8"/>
		<line class="st5" x1="214.9" y1="760.3" x2="279.1" y2="760.3"/>
		<path class="st5" d="M143.4,786.7v-43c0-10.2-11.6-18.5-25.9-18.5H36.6c-14.3,0-25.9,8.3-25.9,18.5v50.6
			c0,10.2,11.6,18.5,25.9,18.5h29.3l41.1,19.6l-2.5-19.6h13.8"/>
		<line class="st5" x1="58.2" y1="751" x2="31" y2="751"/>
		<line class="st5" x1="101.1" y1="780.2" x2="52.8" y2="780.2"/>
		<line class="st5" x1="104.5" y1="751" x2="71.8" y2="751"/>
		<path class="st5" d="M173.5,889.5h-29.3c-14.3,0-25.9-9.7-25.9-21.7v-59.4c0-12,11.6-21.7,25.9-21.7h80.9
			c14.3,0,25.9,9.7,25.9,21.7v59.4c0,12-11.6,21.7-25.9,21.7h-13l2.5,23L173.5,889.5z"/>
		<line class="st5" x1="215.2" y1="817" x2="138.7" y2="817"/>
		<line class="st5" x1="174.1" y1="851.2" x2="138.5" y2="851.2"/>
		<line class="st5" x1="215.2" y1="851.2" x2="190.7" y2="851.2"/>
		<line class="st5" x1="627.6" y1="112" x2="667.6" y2="112"/>
		<line class="st5" x1="330.5" y1="112" x2="369.5" y2="112"/>
		<line class="st5" x1="617.2" y1="168.7" x2="652.2" y2="185.2"/>
		<line class="st5" x1="343.2" y1="38.9" x2="381.2" y2="56.9"/>
		<line class="st5" x1="652.2" y1="37.1" x2="617.2" y2="56.9"/>
	</g>
</g>
</svg>
