<?xml version="1.0" encoding="utf-8"?>
<!-- Generator: Adobe Illustrator 24.2.3, SVG Export Plug-In . SVG Version: 6.00 Build 0)  -->
<svg version="1.1" id="Layer_1" xmlns="http://www.w3.org/2000/svg" xmlns:xlink="http://www.w3.org/1999/xlink" x="0px" y="0px"
	 viewBox="0 0 949.9 983.1" style="enable-background:new 0 0 949.9 983.1;" xml:space="preserve">
<style type="text/css">
	.st0{fill:#1D1D1B;stroke:#5835F2;stroke-width:14;stroke-miterlimit:10;}
	.st1{fill:#1D1D1B;stroke:#5835F2;stroke-width:14.0001;stroke-miterlimit:10.0001;}
	.st2{fill:#5835F2;stroke:#5835F2;stroke-width:14;stroke-miterlimit:10;}
</style>
<g id="Layer_2_1_">
	<g id="Layer_1-2">
		<path class="st0" d="M555.8,641.6H393c-10.1,0-18.3-8.2-18.3-18.3V460.5c0-10.1,8.2-18.3,18.3-18.3h162.7
			c10.1,0,18.3,8.2,18.3,18.3v162.8C574.1,633.4,565.9,641.6,555.8,641.6z M393,454.4c-3.4,0-6.1,2.7-6.1,6.1v162.8
			c0,3.4,2.7,6.1,6.1,6.1h162.7c3.4,0,6.1-2.7,6.1-6.1V460.5c0-3.4-2.7-6.1-6.1-6.1H393z"/>
		<path class="st0" d="M474.5,564.4c-21.9,0-39.7-17.8-39.7-39.7c0-21.9,17.8-39.7,39.7-39.7c21.9,0,39.7,17.8,39.7,39.7l0,0
			C514.2,546.6,496.4,564.4,474.5,564.4z M474.5,497.2c-15.2,0-27.5,12.3-27.5,27.5s12.3,27.5,27.5,27.5s27.5-12.3,27.5-27.5
			S489.7,497.2,474.5,497.2z"/>
		<path class="st0" d="M530.4,443l-1.2-35.4c-0.3-7.5-1.9-14.8-4.9-21.7c-6.6-15-20.5-32.9-49.3-32.9h-0.4
			c-18.1,0.1-32.6,6.6-43.2,19.4c-8.2,10.2-12.9,22.8-13.2,36l-1.2,33.7l-12.2-0.4l1.2-33.6c0.4-15.8,6.1-31,16-43.3
			c12.8-15.5,31-23.7,52.6-23.8h0.4c37.3,0,53.9,25.1,60.5,40.2c3.6,8.3,5.6,17.2,5.9,26.2l1.2,35.4L530.4,443z"/>
		<rect x="404.9" y="221.5" class="st0" width="12.2" height="61"/>
		
			<rect x="505.8" y="246.4" transform="matrix(3.490577e-03 -1 1 3.490577e-03 282.523 788.4987)" class="st1" width="62.1" height="12.2"/>
		
			<rect x="468.4" y="556.8" transform="matrix(1 -2.617973e-03 2.617973e-03 1 -1.513 1.2442)" class="st0" width="12.2" height="43.5"/>
		<path class="st0" d="M253.9,93c-22.9,0-41.5-18.6-41.5-41.5S231,10,253.9,10s41.5,18.6,41.5,41.5S276.9,93,253.9,93z M253.9,22.2
			c-16.2,0-29.3,13.1-29.3,29.3s13.1,29.3,29.3,29.3s29.3-13.1,29.3-29.3l0,0C283.2,35.3,270.1,22.2,253.9,22.2L253.9,22.2z"/>
		<path class="st0" d="M474.9,142.9c-22.9,0-41.5-18.6-41.5-41.5s18.6-41.5,41.5-41.5s41.5,18.6,41.5,41.5S497.9,142.9,474.9,142.9z
			 M474.9,72.1c-16.2,0-29.3,13.1-29.3,29.3s13.1,29.3,29.3,29.3c16.2,0,29.3-13.1,29.3-29.3l0,0C504.2,85.2,491.1,72.1,474.9,72.1z
			"/>
		<path class="st0" d="M725,126.2c-22.9,0-41.5-18.6-41.5-41.5s18.6-41.5,41.5-41.5s41.5,18.6,41.5,41.5l0,0
			C766.5,107.6,747.9,126.2,725,126.2z M725,55.4c-16.2,0-29.3,13.1-29.3,29.3S708.8,114,725,114s29.3-13.1,29.3-29.3l0,0
			C754.3,68.6,741.2,55.4,725,55.4z"/>
		<path class="st0" d="M835,321.3c-22.9,0-41.5-18.6-41.5-41.5s18.6-41.5,41.5-41.5s41.5,18.6,41.5,41.5l0,0
			C876.5,302.7,857.9,321.3,835,321.3z M835,250.5c-16.2,0-29.3,13.1-29.3,29.3c0,16.2,13.1,29.3,29.3,29.3s29.3-13.1,29.3-29.3l0,0
			C864.3,263.6,851.2,250.5,835,250.5z"/>
		<path class="st0" d="M896.7,468c-22.9,0-41.5-18.6-41.5-41.5s18.6-41.5,41.5-41.5s41.5,18.6,41.5,41.5S919.6,468,896.7,468z
			 M896.7,397.2c-16.2,0-29.3,13.1-29.3,29.3s13.1,29.3,29.3,29.3s29.3-13.1,29.3-29.3l0,0C926,410.3,912.9,397.2,896.7,397.2
			L896.7,397.2z"/>
		<path class="st0" d="M898.4,728c-22.9,0-41.5-18.6-41.5-41.5s18.6-41.5,41.5-41.5s41.5,18.6,41.5,41.5
			C939.9,709.5,921.3,728,898.4,728z M898.4,657.2c-16.2,0-29.3,13.1-29.3,29.3s13.1,29.3,29.3,29.3s29.3-13.1,29.3-29.3l0,0
			C927.7,670.4,914.5,657.3,898.4,657.2z"/>
		<path class="st0" d="M740,874.8c-22.9,0-41.5-18.6-41.5-41.5s18.6-41.5,41.5-41.5s41.5,18.6,41.5,41.5S762.9,874.7,740,874.8z
			 M740,803.9c-16.2,0-29.3,13.1-29.3,29.3s13.1,29.3,29.3,29.3s29.3-13.1,29.3-29.3l0,0C769.3,817.1,756.2,804,740,803.9z"/>
		<path class="st0" d="M600,973.1c-22.9,0-41.5-18.6-41.5-41.5s18.6-41.5,41.5-41.5s41.5,18.6,41.5,41.5S622.9,973.1,600,973.1z
			 M600,902.3c-16.2,0-29.3,13.1-29.3,29.3s13.1,29.3,29.3,29.3s29.3-13.1,29.3-29.3l0,0C629.3,915.4,616.2,902.3,600,902.3z"/>
		<path class="st0" d="M254.9,973.1c-22.9,0-41.5-18.6-41.5-41.5s18.6-41.5,41.5-41.5s41.5,18.6,41.5,41.5S277.8,973.1,254.9,973.1z
			 M254.9,902.3c-16.2,0-29.3,13.1-29.3,29.3s13.1,29.3,29.3,29.3s29.3-13.1,29.3-29.3l0,0C284.2,915.4,271.1,902.3,254.9,902.3z"/>
		<path class="st0" d="M98.2,793.1c-22.9,0-41.5-18.6-41.5-41.5s18.6-41.5,41.5-41.5s41.5,18.6,41.5,41.5l0,0
			C139.7,774.5,121.1,793,98.2,793.1z M98.2,722.3c-16.2,0-29.3,13.1-29.3,29.3s13.1,29.3,29.3,29.3s29.3-13.1,29.3-29.3l0,0
			C127.5,735.4,114.4,722.3,98.2,722.3z"/>
		<path class="st0" d="M51.5,566.3c-22.9,0-41.5-18.6-41.5-41.5s18.6-41.5,41.5-41.5S93,501.9,93,524.8l0,0
			C93,547.7,74.4,566.3,51.5,566.3z M51.5,495.5c-16.2,0-29.3,13.1-29.3,29.3c0,16.2,13.1,29.3,29.3,29.3s29.3-13.1,29.3-29.3l0,0
			C80.8,508.7,67.7,495.5,51.5,495.5L51.5,495.5z"/>
		<path class="st0" d="M113.2,321.3c-22.9,0-41.5-18.6-41.5-41.5s18.6-41.5,41.5-41.5s41.5,18.6,41.5,41.5l0,0
			C154.7,302.7,136.1,321.3,113.2,321.3z M113.2,250.5c-16.2,0-29.3,13.1-29.3,29.3s13.1,29.3,29.3,29.3s29.3-13.1,29.3-29.3
			S129.4,250.5,113.2,250.5z"/>
		<polygon class="st0" points="352.7,275.9 340.5,275.9 340.5,149.4 273.1,82.3 281.7,73.7 352.7,144.3 		"/>
		
			<rect x="468.5" y="136.6" transform="matrix(1 -4.014215e-03 4.014215e-03 1 -0.8263 1.9068)" class="st1" width="12.2" height="140.4"/>
		
			<rect x="505.5" y="723.6" transform="matrix(3.316144e-03 -1 1 3.316144e-03 -192.8905 1265.8821)" class="st1" width="66.1" height="12.2"/>
		
			<rect x="356.7" y="747.5" transform="matrix(2.618009e-03 -1 1 2.618009e-03 -342.2119 1164.0817)" class="st0" width="111.5" height="12.2"/>
		<polygon class="st0" points="117.5,725.8 107.1,719.4 172,614.8 275.6,614.8 275.6,627 178.8,627 		"/>
		<rect x="117.4" y="549.2" class="st0" width="161.2" height="12.2"/>
		<polygon class="st0" points="76.9,505.5 68.9,496.3 156.8,420 276.5,420 276.5,432.2 161.4,432.2 		"/>
		<polygon class="st0" points="278.6,365.2 187.3,365.2 130.9,306.6 139.7,298.2 192.5,353 278.6,353 		"/>
		
			<rect x="212.5" y="485.1" transform="matrix(1 -2.268914e-03 2.268914e-03 1 -1.1139 0.5539)" class="st0" width="62.1" height="12.2"/>
		<polygon class="st0" points="607.7,280.5 595.5,280.5 595.5,211.1 701.9,97.2 710.8,105.6 607.7,215.9 		"/>
		<polygon class="st0" points="758.2,365.2 679.4,365.2 679.4,353 753.1,353 809.8,295.3 818.5,303.9 		"/>
		<rect x="671.8" y="420" class="st0" width="59" height="12.2"/>
		<polygon class="st0" points="675.8,497.4 675.8,485.2 771.4,485 867.5,433.4 873.3,444.2 774.5,497.2 		"/>
		<rect x="671.8" y="549.2" class="st0" width="94.1" height="12.2"/>
		<polygon class="st0" points="873.7,670.3 834.3,627 671.8,627 671.8,614.8 839.7,614.8 882.8,662 		"/>
		<polygon class="st0" points="706.8,836 593.9,836 593.9,697.2 606.1,697.2 606.1,823.8 706.8,823.8 		"/>
		<polygon class="st0" points="571.7,919.9 468.3,848.9 468.3,697.2 480.5,697.2 480.5,842.5 578.6,909.8 		"/>
		<polygon class="st0" points="282,911.4 273.1,903 341.2,830.8 341.2,697 353.4,697 353.4,835.7 		"/>
		<path class="st0" d="M255,279.4h-31.9v-31.9H255V279.4z M225.1,277.4H253v-27.9h-27.9V277.4z"/>
		<path class="st2" d="M429.3,183h-31.9v-31.9h31.9V183z M399.5,181h27.8v-27.8h-27.8V181z"/>
		<path class="st0" d="M638.2,699.2H316.1c-24.7,0-44.8-20.1-44.8-44.8V319.8c0-24.7,20.1-44.8,44.8-44.8h322.1
			c24.7,0,44.8,20.1,44.8,44.8v334.6C683,679.1,663,699.2,638.2,699.2z M316.1,287.2c-18,0-32.6,14.6-32.6,32.6v334.6
			c0,18,14.6,32.6,32.6,32.6h322.1c18,0,32.6-14.6,32.6-32.6V319.8c0-18-14.6-32.6-32.6-32.6L316.1,287.2z"/>
		<rect x="524.5" y="152.1" class="st2" width="29.9" height="29.9"/>
		<path class="st0" d="M553.4,181h-31.9v-31.9h31.9V181z M523.5,179h27.8v-27.8h-27.8V179z"/>
		<path class="st2" d="M727.1,281.4h-31.9v-31.9h31.9V281.4z M697.3,279.4H725v-27.9h-27.8V279.4z"/>
		<path class="st2" d="M807.1,443.8h-31.9v-31.9h31.9V443.8z M777.3,441.8H805v-27.9h-27.8V441.8z"/>
		<path class="st2" d="M837.1,573.8h-31.9v-31.9h31.9V573.8z M807.3,571.8H835v-27.9h-27.8V571.8z"/>
		<path class="st2" d="M554.4,832.8h-31.9v-31.9h31.9V832.8z M524.5,830.8h27.8V803h-27.8V830.8z"/>
		<path class="st0" d="M429.4,882.8h-31.9V851h31.9V882.8z M399.5,880.8h27.8V853h-27.8V880.8z"/>
		<rect x="147.7" y="477.9" class="st2" width="29.9" height="29.9"/>
		<path class="st0" d="M255,734.5h-31.9v-31.9H255V734.5z M225.1,732.5H253v-27.9h-27.9V732.5z"/>
	</g>
</g>
</svg>
