<?xml version="1.0" encoding="utf-8"?>
<!-- Generator: Adobe Illustrator 24.2.3, SVG Export Plug-In . SVG Version: 6.00 Build 0)  -->
<svg version="1.1" id="Layer_1" xmlns="http://www.w3.org/2000/svg" xmlns:xlink="http://www.w3.org/1999/xlink" x="0px" y="0px"
	 viewBox="0 0 968.6 985.8" style="enable-background:new 0 0 968.6 985.8;" xml:space="preserve">
<style type="text/css">
	.st0{fill:none;stroke:#5835F2;stroke-width:22;stroke-miterlimit:10;}
	.st1{fill:none;stroke:#5835F2;stroke-width:22;stroke-linecap:round;stroke-linejoin:round;}
	.st2{fill:none;stroke:#5835F2;stroke-width:28;stroke-linecap:round;stroke-linejoin:round;}
	.st3{fill:none;stroke:#5835F2;stroke-width:22;stroke-linecap:round;stroke-linejoin:round;stroke-miterlimit:3.9999;}
	.st4{fill:none;stroke:#5835F2;stroke-width:22;stroke-linejoin:round;}
	.st5{fill:#1D1D1B;stroke:#5835F2;stroke-miterlimit:10;}
	.st6{fill:none;stroke:#5835F2;stroke-width:15;stroke-miterlimit:10;}
	.st7{fill:none;stroke:#5835F2;stroke-width:14;stroke-miterlimit:10;}
	.st8{stroke:#5835F2;stroke-width:22;stroke-miterlimit:10;}
	.st9{fill:#5835F2;stroke:#5835F2;stroke-miterlimit:10;}
</style>
<g id="Layer_2_1_">
	<g id="Layer_1-2">
		<path class="st0" d="M316.3,653.6c-17.4,57.3-34.8,114.5-52.3,171.8c-2,5.8-3.5,11.7-4.4,17.8l0,0c-2.7,15.9-3.6,39.1,8,55.3
			c0.7,1,1.6,2.1,2.6,3.2c6.4,7.3,15.2,12,24.8,13.5l231.6,35.4c6.8,1,24.3,3.3,31,1.9c11.2-2.3,27.9-6.1,41.2-19.5
			c17.9-18.1,25.9-62,28.7-71.9c54.9-215.3,105.1-431.7,160-647.1c2.5-10,1.7-20.5-2.3-30c-6.6-15.2-19.7-22.4-27.3-25.4l0,0
			c-1.8-0.7-3.7-1.3-5.7-1.8l-3.9,0.1l0,0c-81.8,1.3-163.6,2.6-245.3,3.9c-22.6,3.4-41.5,19.1-49,40.7c-2.7,8.9-5.4,17.8-8.1,26.7"
			/>
		<path class="st0" d="M380.2,443.9c-7.5,24.8-15,49.5-22.6,74.2"/>
		<path class="st0" d="M259.7,843.1c-26.6,81.4,38,94,38,94L547,978.5c0,0,75.4,15.8,97-61.5c19.2-68.7,135.8-564.7,161.5-674.4
			c4.3-18.2,1-37.4-9-53.1c-9.7-15.1-25-30.4-48.3-32.7"/>
		<path class="st0" d="M365.5,709.4c-4.2,7.6-7.3,15.7-9.2,24.2c-1.6,7.4-2.4,14.9-2.4,22.5c0,21.4,5.2,38.4,14.1,51.3l0,0
			c15.2,22.1,41.3,32.3,70.9,32.3c34.9,0,82.7-20.3,104.7-54.8l0,0c7.8-11.8,11.9-25.7,12-39.8c0.1-9.7-1.9-19.3-5.8-28.2
			c-5.6-12.4-14.8-22.3-26-29.9"/>
		<path class="st0" d="M543.7,784.9L543.7,784.9l-0.8-8.6l-5-45.6l-5.2-2.6l-5.4-2.7l-3.5-38.5l-0.4-4.3l-7.5-5.2
			c-23,15.5-49.9,24-77.6,24.5c-21.2,0.2-42.2-4.3-61.4-13.2l-12.3,4.8l0.8,16l1.1,21.7c0,0-5.9,1.6-8.6,3.3
			c-0.7,0.4-1.1,0.8-1.2,1.2c-0.4,1.7,8.9,57.6,11.2,71.7l0,0"/>
		<path class="st0" d="M356.3,733.6c0.5,0.3,1.1,0.6,1.7,0.9c24.3,12.1,51.1,18.7,78.3,19.2c41.8,0.7,75-13.1,96.4-25.6"/>
		<path class="st0" d="M512.5,675c0,0,5.6-71.1,6.1-77.7s5.3-21.7,1.2-32.1s-12-29.2-14.7-32.6s-25.4-20.2-32.5-18.5
			s-29.5,3.9-22.2,24.3c4.5,12.3,12.5,23,23.1,30.7"/>
		<path class="st1" d="M410.6,485l2.8,5.1l18.7,21.7c0,0,10.1,33.3-24.3,24.9c13.6,10.3,15.6,27.5,8.2,36.5c-5,6-14.1,8.2-23.1,6.5
			c2.1,8.5-1,17.5-7.9,22.8c-9.4,7.1-20.5,2.9-21.1,2.6c0,0.8,0.1,11.1-8.6,17.3c-9,6.4-19.1,2.4-19.7,2.2L307.1,605
			c-6.9-4.7-8.7-14.2-4-21.2c0.3-0.5,0.6-0.9,1-1.3c1.1-1.3,2.4-2.5,3.7-3.7c3.9-3.4,8.5-6,13.5-7.7c3.3-11.9,11.2-21.8,22.1-27.6
			c0.1-1.7,1.2-16.8,14.2-25.4c6.7-4.3,14.8-6.1,22.7-4.8c-6.4-9.7-3.6-22.7,6.1-29.1C393.8,479.3,403.5,479.7,410.6,485L410.6,485z
			"/>
		<line class="st1" x1="323.8" y1="572" x2="363.9" y2="603.3"/>
		<line class="st1" x1="349.7" y1="546" x2="389.8" y2="577.3"/>
		<line class="st1" x1="374.5" y1="510.6" x2="414.6" y2="541.9"/>
		<polyline class="st1" points="365.2,605.6 363.9,607.5 363.9,607.5 363.9,607.6 		"/>
		<line class="st1" x1="459.3" y1="463.6" x2="429.4" y2="508.7"/>
		<line class="st1" x1="410.5" y1="537.3" x2="409.8" y2="538.3"/>
		<polyline class="st1" points="325.3,617.6 307.7,645.6 316.3,653.6 346.2,681.3 382.6,677.3 472.3,565.3 		"/>
		<path class="st1" d="M409.3,484.1l12.9-20.5c-28.3-15.6-58.6-27.4-90.1-34.9c-40.1-9.6-94.3-15.1-119.5-14.1"/>
		<line class="st1" x1="518.4" y1="507.6" x2="502.2" y2="527.9"/>
		<path class="st1" d="M408.5,167.3c22.7,48,57.6,93.6,95.2,131c17.2,17,52,41.9,79.3,62.7c58.5,44.7,70.8,51.4,74,67
			c9.6,46-43.3,117.5-96,112.6c-18.8-1.8-33.5-13-42.8-22.3"/>
		<path class="st2" d="M389.5,224.8C361.6,306.2,269,416.6,190.8,416.6s-90.6-81.4-37.7-183.1c34.9-67,120-145.6,198.1-145.6
			C412.5,87.9,413.9,153.3,389.5,224.8z"/>
		<ellipse transform="matrix(0.5 -0.866 0.866 0.5 -91.8737 345.3958)" class="st3" cx="253.2" cy="252.3" rx="39.6" ry="16.9"/>
		<line class="st4" x1="309.7" y1="347.5" x2="235.7" y2="287.4"/>
		<line class="st0" x1="276.5" y1="222" x2="373.3" y2="262.1"/>
		<polyline class="st1" points="309.1,645.6 337.1,647.6 372.9,678.3 		"/>
		<line class="st1" x1="340.7" y1="645.1" x2="359.1" y2="619"/>
		<polyline class="st1" points="422.2,463.6 461.5,455.7 518.4,504.5 		"/>
		<path class="st1" d="M410.5,455.4c56.4-26.6,95.3-80.3,103-142.2"/>
		<path class="st1" d="M480.2,173.6h65.2c3-0.1,3.1,8.6,2.6,16.7c-0.5,6.8,4.7,12.7,11.5,13.2c0.4,0,0.7,0,1.1,0
			c15.3-0.3,39.2-0.9,49.6-1.2c17-0.5,43.3-1.4,60.1-1.9c15.8-0.5,20.5-9.6,22.2-14.7c2-6,1.9-14.7,1.9-14.7s42.7-3.4,48.4-2.4
			c10.5,1.9,16.2,2.9,20.8,7.1c13,11.7,5.5,37.4,4.8,39.8l-163.5,665c-4.5,30.1-27.2,54.2-56.9,60.5l-270.2-41.8"/>
		<path class="st1" d="M658.2,191.9l-79.4,1.3c-4.6-5.1-4.7-12.8-0.3-18l79.4-1.3c5,3.2,6.5,9.9,3.3,14.9
			C660.5,190,659.5,191,658.2,191.9L658.2,191.9z"/>
		<rect x="774.5" y="416.7" class="st1" width="40.8" height="76.9"/>
		<path class="st1" d="M815.3,420.5c6.8-5.4,12.8-11.7,17.8-18.7c4.3-6.1,6.7-9.5,8.2-14.9c3.5-12.9-3.1-19.9,1.6-25.1
			c3.8-4.2,12.3-4.5,17.2-1c3.3,2.4,4.6,6.2,5.2,9.5c3.4,19.9-2.2,39.6-2.2,39.6l39.2,3.4c6.5,4.4,8.2,13.3,3.8,19.8
			c-2.1,3-5.2,5.1-8.8,5.9c4.3,6.6,4.2,15.2-0.5,21.6c3.1,6.7,2,14.6-2.9,20.2c0.9,3.2,0.6,6.6-0.7,9.6c-3.2,7.1-11.2,8.3-11.8,8.4
			l-75.7-5.3"/>
		<circle class="st5" cx="794.2" cy="478.4" r="5.8"/>
		<rect x="247.7" y="500" class="st1" width="40.8" height="76.9"/>
		<path class="st1" d="M247.7,503.9c-6.8-5.3-12.8-11.7-17.7-18.7c-4.3-6.1-6.7-9.5-8.2-14.9c-3.5-12.9,3.1-19.9-1.6-25.1
			c-3.8-4.2-12.3-4.5-17.2-1c-3.3,2.4-4.6,6.2-5.2,9.5c-3.4,19.9,2.2,39.6,2.2,39.6l-39.1,3.4c-6.5,4.4-8.2,13.3-3.8,19.8
			c2.1,3,5.2,5.2,8.8,5.9c-4.4,6.6-4.2,15.2,0.5,21.6c-3.1,6.7-2,14.6,2.9,20.2c-0.9,3.2-0.6,6.6,0.7,9.6c3.2,7.1,11.2,8.3,11.8,8.4
			l75.7-5.3"/>
		<circle class="st5" cx="268.9" cy="561.8" r="5.8"/>
		<path class="st0" d="M916.2,304c-6.8-8.9-13.6-13.2-18.7-15.5c-6.5-2.9-11.5-3.1-16.3-7.8c-3.5-3.6-5.9-8.3-6.8-13.3
			c-1-5.6-1.3-11.3-0.9-17c0.4-5.3,1.4-10.6,3-15.7c2.8-5.9,7.4-10.8,13.1-13.9c14.7-7.9,25.2,1.1,26.4,1.7c7.5-7,23-9.8,31.9-6.1
			c10.2,4.2,13.5,14.2,13.9,15.7c3.2,8.6,3.6,18,1.1,26.8c-3,10.4-8.5,17.6-12,19.6c-4.3,2.5-12,4.1-19.6,9.6
			C925.4,292.5,920.3,297.9,916.2,304z"/>
		<path class="st6" d="M914.8,279.1c-2.4-3.3-5.6-6-9.4-7.7c-3.2-1.4-5.7-1.5-8.2-3.9c-1.8-1.8-2.9-4.1-3.4-6.6
			c-1-5.5-0.6-11.1,1.1-16.3c1.4-3,3.7-5.4,6.5-7c4.2-2.4,9.4-2.1,13.2,0.9c3.8-3.5,11.5-4.9,16-3c3.3,1.5,5.9,4.4,7,7.8
			c1.6,4.3,1.8,9,0.5,13.4c-1.5,5.2-4.3,8.8-6,9.8c-2.2,1.2-6,2-9.8,4.8C919.5,273.4,916.9,276,914.8,279.1z"/>
		<path class="st0" d="M459.2,95.4c-6.7-8.9-13.6-13.2-18.7-15.5c-6.4-2.9-11.4-3.1-16.3-7.8c-3.5-3.6-5.9-8.3-6.8-13.3
			c-1.9-10.9-1.2-22.1,2.2-32.7c2.8-5.9,7.3-10.8,13.1-13.9c14.7-7.9,25.2,1.1,26.5,1.7c7.5-7,23-9.8,31.9-6.1
			C501.3,12,504.6,22,505,23.5c3.2,8.6,3.6,18,1.1,26.8c-3,10.4-8.5,17.6-12,19.6c-4.3,2.4-12,4.1-19.6,9.6
			C468.4,83.8,463.3,89.2,459.2,95.4z"/>
		<path class="st7" d="M457.8,70.4c-2.4-3.3-5.6-6-9.4-7.7c-3.2-1.4-5.7-1.5-8.2-3.9c-1.8-1.8-2.9-4.1-3.4-6.6
			c-1-5.5-0.6-11.1,1.1-16.3c1.4-3,3.7-5.4,6.5-7c4.2-2.4,9.4-2.1,13.2,0.9c3.8-3.5,11.5-4.9,16-3c3.3,1.5,5.9,4.3,7,7.8
			c1.6,4.3,1.8,9,0.5,13.4c-1.5,5.2-4.3,8.8-6,9.8c-2.2,1.2-6,2-9.8,4.8C462.5,64.6,459.9,67.3,457.8,70.4z"/>
		<path class="st0" d="M166.8,928.8c-6.7-8.9-13.6-13.2-18.7-15.5c-6.4-2.9-11.5-3.1-16.3-7.8c-3.5-3.6-5.9-8.3-6.8-13.3
			c-1.9-10.9-1.2-22.1,2.2-32.7c2.8-5.9,7.3-10.8,13.1-13.9c14.7-7.9,25.2,1.1,26.4,1.7c7.5-7,23-9.8,31.9-6.1
			c10.2,4.2,13.5,14.2,13.9,15.7c3.2,8.6,3.5,18,1.1,26.8c-2.9,10.4-8.5,17.6-12,19.6c-4.3,2.5-12,4.1-19.6,9.6
			C176.1,917.3,170.9,922.7,166.8,928.8z"/>
		<path class="st6" d="M165.4,903.9c-2.4-3.3-5.6-6-9.4-7.7c-3.2-1.4-5.7-1.5-8.2-3.9c-1.8-1.8-2.9-4.1-3.4-6.6
			c-1-5.5-0.6-11.1,1.1-16.3c1.4-3,3.7-5.4,6.5-7c4.2-2.4,9.4-2.1,13.2,0.9c3.8-3.5,11.5-4.9,15.9-3c3.3,1.5,5.9,4.3,7,7.8
			c1.6,4.3,1.8,9,0.6,13.4c-1.5,5.2-4.3,8.8-6,9.8c-2.2,1.2-6,2-9.8,4.8C170.1,898.1,167.5,900.8,165.4,903.9z"/>
		<path class="st0" d="M758.1,779.1h83.6c10.3,0,18.7,8.4,18.7,18.7v83.6c0,10.3-8.4,18.7-18.7,18.7h-83.6
			c-10.3,0-18.7-8.4-18.7-18.7v-83.6C739.4,787.5,747.8,779.1,758.1,779.1z"/>
		<path class="st0" d="M795.3,809.4h9.3c14.2,0,25.6,11.5,25.6,25.6v9.3c0,14.2-11.5,25.6-25.6,25.6h-9.3
			c-14.2,0-25.6-11.5-25.6-25.6V835C769.7,820.9,781.1,809.4,795.3,809.4z"/>
		<circle class="st5" cx="836" cy="801.7" r="8.1"/>
		<path class="st0" d="M35.1,659H110c16.1,0,29.1,13,29.1,29.1V763c0,16.1-13,29.1-29.1,29.1H35.1C19,792.1,6,779.1,6,763v-74.9
			C6,672,19,659,35.1,659z"/>
		<path class="st8" d="M60.6,769v-43h-8.9v-7.9h8.9v-14.8c-0.1-2.9,0.2-5.7,0.9-8.5c2-6.1,7.2-9.2,15.4-9.2c3.2,0,6.4,0.4,9.5,1
			l-1.6,8.7c-1.9-0.3-3.9-0.4-5.9-0.4c-3.3,0-5.5,0.7-6.7,2.1c-1.2,1.4-1.8,3.8-1.8,7.2V718H82v7.9H70.6v43h-10V769z"/>
		<path class="st0" d="M87.1,12.6h73.8c17,0,30.8,13.8,30.8,30.8v73.8c0,17-13.8,30.8-30.8,30.8H87.1c-17,0-30.8-13.8-30.8-30.8
			V43.4C56.3,26.4,70.1,12.6,87.1,12.6z"/>
		<path class="st9" d="M131.3,74.3l-7.1-11l-17.6-27.5H84.8L114,81.3l7.1,11l20.1,31.7h21.9L131.3,74.3z M124.1,87L117,76L94.5,40.7
			h8.8l17.8,27.9l7.1,11.1l25.1,39.3h-8.8L124.1,87z"/>
		<polygon class="st9" points="117,75.9 124.1,87 121,92.4 102.4,125 89.1,125 113.9,81.3 		"/>
		<polygon class="st9" points="153.4,35.5 131.3,74.3 128.2,79.7 121.2,68.6 124.3,63.2 140,35.5 		"/>
		<path class="st0" d="M766.2,6h100.1c10.2,0,18.5,8.3,18.5,18.5v65c0,10.2-8.3,18.5-18.5,18.5H766.2c-10.2,0-18.5-8.3-18.5-18.5
			v-65C747.6,14.3,755.9,6,766.2,6z"/>
		<polygon class="st1" points="793,80.2 793,33.8 839.5,57 		"/>
	</g>
</g>
</svg>
