<?xml version="1.0" encoding="utf-8"?>
<!-- Generator: Adobe Illustrator 24.2.3, SVG Export Plug-In . SVG Version: 6.00 Build 0)  -->
<svg version="1.1" id="Layer_1" xmlns="http://www.w3.org/2000/svg" xmlns:xlink="http://www.w3.org/1999/xlink" x="0px" y="0px"
	 viewBox="0 0 488.8 493.1" style="enable-background:new 0 0 488.8 493.1;" xml:space="preserve">
<style type="text/css">
	.st0{fill:none;stroke:#5835F2;stroke-width:12;stroke-miterlimit:10;}
</style>
<g id="Layer_2_1_">
	<g id="Layer_2-2">
		<path class="st0" d="M186.6,373.4v46.2c0,0,0,31.9-45.1,31.5"/>
		<path class="st0" d="M303.2,370.9l-0.7,46.2c0,0-2.7,34.4,35.5,34.5"/>
		<polygon class="st0" points="216.8,151.7 217.2,114 217.6,76.3 250.1,95.5 282.5,114.7 249.6,133.2 		"/>
		<path class="st0" d="M362.5,373.4H21c-6.1,0-11-4.9-11-11l0,0V116.3"/>
		<path class="st0" d="M10,72.2V21c0-6.1,4.9-11,11-11h446.8c6.1,0,11,4.9,11,11v341.4c0,6.1-4.9,11-11,11l0,0h-55.6"/>
		<path class="st0" d="M98.1,43.4h287.7c6.6,0,11.9,5.3,11.9,11.9v119c0,6.6-5.3,11.9-11.9,11.9H98.1c-6.6,0-11.9-5.3-11.9-11.9
			v-119C86.2,48.7,91.5,43.4,98.1,43.4z"/>
		<line class="st0" x1="135.7" y1="249" x2="135.7" y2="334.1"/>
		<line class="st0" x1="243" y1="249" x2="244.8" y2="334.1"/>
		<line class="st0" x1="32.5" y1="277.9" x2="49.2" y2="277.9"/>
		<line class="st0" x1="32.5" y1="306.6" x2="49.2" y2="306.6"/>
		<line class="st0" x1="74" y1="277.9" x2="108.9" y2="277.9"/>
		<line class="st0" x1="74" y1="306.6" x2="108.9" y2="306.6"/>
		<line class="st0" x1="10" y1="249" x2="476" y2="249"/>
		<line class="st0" x1="10" y1="334.9" x2="476" y2="334.9"/>
		<line class="st0" x1="135.7" y1="277.9" x2="476" y2="277.9"/>
		<line class="st0" x1="135.7" y1="306.6" x2="476" y2="308.4"/>
		
			<ellipse transform="matrix(0.3162 -0.9487 0.9487 0.3162 -52.4692 389.7163)" class="st0" cx="244.1" cy="231.3" rx="16.2" ry="16.2"/>
		<path class="st0" d="M133.6,483.1h-31.3c-6.9,0-12.6-5.6-12.6-12.5l0,0v-6.9c0-6.9,5.6-12.5,12.6-12.5l0,0h284.5
			c6.9,0,12.5,5.6,12.5,12.5v6.9c0,6.9-5.6,12.5-12.5,12.5H176.6"/>
	</g>
</g>
</svg>
