<svg xmlns="http://www.w3.org/2000/svg" viewBox="0 0 901.16 991.72"><defs><style>.cls-1{fill:#1d1d1b;}</style></defs><g id="Layer_2" data-name="Layer 2"><g id="Layer_3" data-name="Layer 3"><polygon class="cls-1" points="559.88 841.21 552.6 827.97 715.71 738.21 715.71 383.33 561.73 468.27 554.43 455.05 730.81 357.74 730.81 747.14 559.88 841.21"/><polygon class="cls-1" points="563.75 846.1 545.42 834.75 395.58 749.54 385.4 743.48 393.12 730.5 403.24 736.52 548.64 819.21 548.64 462.84 296.99 325.63 296.99 625.42 373.35 669.84 365.76 682.89 281.89 634.11 281.89 300.19 563.75 453.87 563.75 846.1"/><polygon class="cls-1" points="719.68 377.19 441.08 227.09 289.44 313.35 281.97 300.22 440.89 209.82 726.84 363.89 719.68 377.19"/><polygon class="cls-1" points="730.81 370.54 715.71 370.54 715.71 325.74 751.02 308.21 751.39 252.79 529.54 126.81 450.84 167.74 450.84 217.54 435.74 217.54 435.74 158.57 529.86 109.62 766.56 244.03 766.07 317.61 730.81 335.11 730.81 370.54"/><polygon class="cls-1" points="678.25 303.24 447.22 165.59 454.96 152.61 678.4 285.75 755.23 241.85 762.72 254.97 678.25 303.24"/><rect class="cls-1" x="654.41" y="310.77" width="47.68" height="15.11" transform="translate(342.15 987.95) rotate(-88.49)"/><polygon class="cls-1" points="549.33 890.83 359.13 781.38 366.66 768.29 549.23 873.34 701.11 783.68 701.11 750.87 716.22 750.87 716.22 792.3 549.33 890.83"/><rect class="cls-1" x="404.53" y="750.86" width="6.29" height="49.74"/><rect class="cls-1" x="453.82" y="775.74" width="6.29" height="49.74"/><rect class="cls-1" x="510.16" y="808.76" width="6.29" height="49.74"/><rect class="cls-1" x="596.1" y="813.6" width="6.29" height="38.41"/><rect class="cls-1" x="629.61" y="791.6" width="6.29" height="41.2"/><rect class="cls-1" x="665.45" y="773.61" width="6.29" height="38.03"/><rect class="cls-1" x="548.69" y="825.05" width="15.11" height="49.74"/><path class="cls-1" d="M284.68,502.89l-73.61-41.53V92.48l-.41-.75L377.89,0,488.62,70.14,319,167.75l-92.78-50.63V452.54l65.92,37.19Zm-58-402.71,92.09,50.26L459.41,69.52l-82.07-52Z"/><rect class="cls-1" x="314.38" y="155.86" width="15.11" height="133.61"/><rect class="cls-1" x="472.93" y="69.89" width="15.11" height="72.95"/><path class="cls-1" d="M232.92,715.66c-66.08,0-129.23-17.44-173.25-47.84-3.22-2.21-6.48-4.61-9.68-7.12-22.79-18-38.56-39.33-45.63-61.82a96.42,96.42,0,0,1-2.85-11.62A93.21,93.21,0,0,1,0,572.06c0-.41,0-.93,0-1.44C0,532.76,23,497,64.8,470c40.52-26.22,95.05-41.89,153.53-44.12l.58,15.1c-114.28,4.35-203.8,61.31-203.8,129.66,0,.36,0,.73,0,1.1a77.92,77.92,0,0,0,1.25,12.83,82.66,82.66,0,0,0,2.41,9.82c6.14,19.56,20.17,38.39,40.55,54.45,2.94,2.31,5.94,4.52,8.91,6.56,41.58,28.71,101.59,45.17,164.68,45.17,34.18,0,66.92-4.63,97.32-13.78,23.09-6.94,40.68-14.89,58.81-26.59l8.19,12.7c-19.39,12.51-38.13,21-62.65,28.36C302.78,710.81,268.57,715.66,232.92,715.66Z"/><path class="cls-1" d="M11.18,573,4,570.86c9.66-32.33,37.07-61.67,77.17-82.62,40.4-21.1,92.11-32.73,145.62-32.73v7.56C120.89,463.07,30.23,509.31,11.18,573Z"/><path class="cls-1" d="M229.26,748.6c-8.13,0-16.31-.27-24.32-.79-49.84-3.22-95.56-16.08-132.22-37.21a205.31,205.31,0,0,1-21.27-14c-4.63-3.52-9-7.16-12.94-10.82C26.94,675.08,15,657.67,8.77,646l6.67-3.55c5.92,11.11,17.27,27.66,28.2,37.75,3.78,3.51,7.94,7,12.37,10.34a197.14,197.14,0,0,0,20.48,13.5c35.67,20.55,80.25,33.07,128.94,36.21,7.85.51,15.87.77,23.83.77,45.78,0,89.72-8.39,127.07-24.26a224.21,224.21,0,0,0,38.75-20.9l4.25,6.24a231.63,231.63,0,0,1-40.05,21.62C321,740,276,748.6,229.26,748.6Z"/><path class="cls-1" d="M401.62,734.84c-1.39,1-2.83,2-4.26,3-43.95,29.71-106.5,46.73-171.63,46.73s-127.49-17-171.41-46.6h0l-1.95-1.33a171.77,171.77,0,0,1-29.2-25.22A136.53,136.53,0,0,1,.3,678.66a1.08,1.08,0,0,1-.12-.24l11.35-5.59c1.21,1.94,2.48,3.91,3.78,5.83,4.68,6.94,9.74,14.69,13.5,18.58,2.08,2.14,4.25,4.26,6.51,6.33,7,7.52,15.28,13.36,24.62,19.92l1,.69c41.57,28.76,101.62,45.26,164.79,45.26,62.2,0,121.65-16.08,163.14-44.13q2-1.34,3.92-2.73Z"/><path class="cls-1" d="M232.92,848.89c-56.09,0-108.93-13.39-148.79-37.7-41-25-63.61-58.71-63.61-94.83a85.78,85.78,0,0,1,.72-11l15,1.93a70.19,70.19,0,0,0-.6,9.09c0,30.66,20,59.75,56.38,81.93,37.52,22.89,87.56,35.5,140.92,35.5,62,0,119.22-17,157.05-46.65L399.28,799C358.85,830.72,298.21,848.89,232.92,848.89Z"/><path class="cls-1" d="M229.26,815.34c-82.57,0-155-34.32-176.08-83.46l3.46-1.49v-3.78h2.5l1,2.29c19.94,46.45,89.5,78.89,169.14,78.89,48.58,0,102.45-15.5,137.25-39.48l4.29,6.21C334.82,799.32,279.26,815.34,229.26,815.34Z"/><rect class="cls-1" x="66.42" y="672.08" width="16.36" height="65.73"/><rect class="cls-1" x="197" y="708.11" width="16.36" height="65.74"/><rect class="cls-1" x="356.76" y="691.32" width="78.36" height="16.36" transform="translate(-315.93 1072.75) rotate(-88.16)"/><polygon class="cls-1" points="443.25 341.05 397.44 313.06 396.36 278.89 402.65 278.69 403.63 309.47 443.32 333.71 488.28 307.41 488.28 277.26 494.57 277.26 494.57 311.02 443.25 341.05"/><path class="cls-1" d="M443.28,308.22l-57.69-34.14,62.35-35.55,56.53,33.86Zm-42.65-34,42.67,25.26,46.35-27.15-41.8-25Z"/><rect class="cls-1" x="440.77" y="301.79" width="5.04" height="36.19"/><rect class="cls-1" x="462.11" y="301.79" width="15.11" height="19.98"/><path class="cls-1" d="M16.5,583.74V677c-1-1.74-1.9-3.5-2.78-5.29l-2.19,1.08c1.21,1.94,2.48,3.91,3.78,5.83H.14V583.74Z"/><polygon class="cls-1" points="313.1 351.98 530.19 473.44 530.19 490.73 313.1 369.28 313.1 351.98"/><polygon class="cls-1" points="313.1 393.82 530.19 515.28 530.19 532.58 313.1 411.13 313.1 393.82"/><polygon class="cls-1" points="313.1 438.05 530.19 559.52 530.19 576.82 313.1 455.36 313.1 438.05"/><polygon class="cls-1" points="530.19 605.84 530.19 623.14 313.1 501.69 313.1 484.38 530.19 605.84"/><polygon class="cls-1" points="530.19 646.79 530.19 664.1 313.1 542.62 313.1 525.31 530.19 646.79"/><polygon class="cls-1" points="313.1 571.68 530.19 693.15 530.19 710.46 313.1 589 313.1 571.68"/><polygon class="cls-1" points="530.19 735.06 530.19 752.25 423.19 694.12 423.19 676.94 530.19 735.06"/><polygon class="cls-1" points="530.19 777.34 530.19 794.65 423.19 734.78 423.19 717.46 530.19 777.34"/><rect class="cls-1" x="171.03" y="775.72" width="3.78" height="31.77"/><rect class="cls-1" x="90.38" y="750.22" width="3.78" height="24.21"/><rect class="cls-1" x="259.11" y="776.99" width="3.78" height="31.77"/><rect class="cls-1" x="335.41" y="759.85" width="3.78" height="31.77"/><path class="cls-1" d="M238.56,948.72l-3.77-6.54,147.6-84.87-23.16-11.9c-73.82,23.25-145.53,29.49-207.51,18.06C91.16,852.31,45,824.41,21.81,784.91,14.23,772-2.56,736.4,5.15,684.28l7.47,1.1c-7.36,49.74,8.53,83.5,15.7,95.71,22.08,37.57,66.39,64.19,124.77,75,61.18,11.28,132.18,5,205.33-18.31l1.49-.47,38.28,19.66Z"/><polygon class="cls-1" points="310.7 991.72 306.88 985.21 460.9 895.02 544.16 941.11 885.62 741.41 758.8 674.52 762.33 667.84 901.16 741.07 544.26 949.79 461.01 903.71 310.7 991.72"/><rect class="cls-1" x="755.2" y="316.74" width="7.55" height="375.5"/><polygon class="cls-1" points="714.73 781.1 705.42 766.13 751.2 737.67 750.16 691.52 767.78 691.12 769.05 747.33 714.73 781.1"/><rect class="cls-1" x="727.05" y="354.34" width="33.9" height="7.55" transform="translate(-81.09 389.94) rotate(-27.91)"/><rect class="cls-1" x="726.19" y="399.09" width="33.9" height="7.55" transform="translate(-102.14 394.75) rotate(-27.91)"/><rect class="cls-1" x="726.19" y="442.64" width="33.9" height="7.55" transform="translate(-122.52 399.81) rotate(-27.91)"/><rect class="cls-1" x="727.05" y="488.32" width="33.9" height="7.55" transform="translate(-143.81 405.53) rotate(-27.91)"/><rect class="cls-1" x="727.05" y="532.71" width="33.9" height="7.55" transform="translate(-164.6 410.76) rotate(-27.92)"/><rect class="cls-1" x="726.19" y="576.6" width="33.9" height="7.55" transform="translate(-185.24 415.47) rotate(-27.92)"/><rect class="cls-1" x="727.05" y="620.48" width="33.9" height="7.55" transform="translate(-205.69 420.97) rotate(-27.92)"/><rect class="cls-1" x="726.65" y="663.25" width="35.39" height="7.55" transform="translate(-221.35 409.34) rotate(-26.92)"/><polygon class="cls-1" points="609.95 470.72 609.95 771.13 595.38 779.79 594.84 779.79 594.84 479.05 609.95 470.72"/><polygon class="cls-1" points="649.77 448.74 649.77 747.46 634.67 756.43 634.67 457.07 649.77 448.74"/><polygon class="cls-1" points="690.75 426.14 687.15 725.24 671.93 734.29 675.54 434.53 690.75 426.14"/><polygon class="cls-1" points="317.29 215.8 216.72 157.1 220.53 150.58 317.36 207.09 478.63 116.37 482.33 122.95 317.29 215.8"/><polygon class="cls-1" points="320.94 268.7 220.38 210 224.18 203.48 321.01 260 441.44 192.25 445.14 198.83 320.94 268.7"/><rect class="cls-1" x="250.26" y="234.62" width="7.55" height="92.04" transform="translate(-116.4 358.58) rotate(-59.73)"/><rect class="cls-1" x="248.42" y="284.5" width="7.55" height="92.04" transform="translate(-160.38 381.72) rotate(-59.73)"/><rect class="cls-1" x="248.42" y="337.24" width="7.55" height="92.04" transform="matrix(0.5, -0.86, 0.86, 0.5, -205.93, 407.87)"/><rect class="cls-1" x="246.87" y="389.97" width="7.55" height="92.04" transform="translate(-252.25 432.69) rotate(-59.73)"/></g></g></svg>