<?xml version="1.0" encoding="utf-8"?>
<!-- Generator: Adobe Illustrator 24.2.3, SVG Export Plug-In . SVG Version: 6.00 Build 0)  -->
<svg version="1.1" id="Layer_1" xmlns="http://www.w3.org/2000/svg" xmlns:xlink="http://www.w3.org/1999/xlink" x="0px" y="0px"
	 viewBox="0 0 787.9 971" style="enable-background:new 0 0 787.9 971;" xml:space="preserve">
<style type="text/css">
	.st0{fill:none;stroke:#5835F2;stroke-width:24;stroke-linecap:round;stroke-linejoin:round;}
	.st1{fill:none;stroke:#5835F2;stroke-width:24;stroke-miterlimit:10;}
	.st2{fill:none;stroke:#5835F2;stroke-width:24;stroke-linecap:round;stroke-miterlimit:10;}
	.st3{fill:none;stroke:#5835F2;stroke-width:24;stroke-linecap:round;stroke-miterlimit:10;}
	.st4{fill:#231F20;stroke:#5835F2;stroke-width:24;stroke-miterlimit:10;}
</style>
<g id="Layer_2_1_">
	<g id="mobile_app">
		<path class="st0" d="M649.7,662.8h32.6c11.1,0,20.2,9,20.2,20.2v141.8c0,11.2-9,20.2-20.2,20.2l0,0H445.4"/>
		<line class="st0" x1="443.7" y1="662.8" x2="581" y2="662.8"/>
		<path class="st0" d="M588.4,402.5l6.6,29.2c1,4.3,5.3,7,9.6,6c0.8-0.2,1.7-0.5,2.4-1l25.3-16l12,12l-16,25.3
			c-2.3,3.8-1.2,8.7,2.6,11c0.7,0.5,1.6,0.8,2.4,1l29.2,6.6v16.9l-29.2,6.6c-4.3,1-7,5.3-6,9.6c0.2,0.8,0.5,1.7,1,2.4l16,25.3
			l-12,12l-25.3-16c-3.8-2.3-8.7-1.2-11,2.6c-0.5,0.7-0.8,1.6-1,2.4l-6.6,29.2h-16.9l-6.6-29.2c-1-4.3-5.3-7-9.6-6
			c-0.8,0.2-1.7,0.5-2.4,1l-25.3,16l-12-12l16-25.3c2.3-3.8,1.2-8.7-2.6-11c-0.7-0.5-1.6-0.8-2.4-1l-29.2-6.6v-16.9l29.2-6.6
			c4.3-1,7-5.3,6-9.6c-0.2-0.8-0.5-1.7-1-2.4l-16-25.3l12-12l25.3,16c3.8,2.3,8.7,1.2,11-2.6c0.5-0.7,0.8-1.6,1-2.4l6.6-29.2
			L588.4,402.5z"/>
		<circle class="st1" cx="581" cy="485.3" r="20.7"/>
		<path class="st2" d="M690.3,366.4h45.9c11.6,0.1,21,9.5,21,21.2v199.8c0,11.6-9.4,21.1-21,21.2H442.4"/>
		<line class="st2" x1="442.4" y1="366.4" x2="595.9" y2="366.4"/>
		<path class="st0" d="M507.2,237.4h169.1c17.5-4.5,30.4-19.1,32.5-36.4c2.3-19-8.9-37.7-27.3-45c0.3-27.9-14.1-53.3-37-64.9
			c-29.9-15.1-70-4.5-91.7,27.3c-1.2-0.5-18.8-7.3-34.7,4s-15.4,30-15.4,31.3c-22.8,7.5-35.1,32.1-27.6,54.9
			C479.9,223.3,492.2,234.2,507.2,237.4L507.2,237.4z"/>
		<path class="st2" d="M380.3,187.5V41.8c0-16.2,13.1-29.3,29.3-29.3l0,0H746c16.2,0,29.3,13.1,29.3,29.3l0,0v241.4
			c0,16.2-13.1,29.3-29.3,29.3H441.2"/>
		<path class="st0" d="M155.3,549.8h148.9c2.6-43.1-31.9-79.7-73.8-80C188,469.4,152.7,506.2,155.3,549.8z"/>
		
			<ellipse transform="matrix(0.1602 -0.9871 0.9871 0.1602 -234.2707 588.6531)" class="st3" cx="228.8" cy="432" rx="37.8" ry="37.8"/>
		<path class="st2" d="M213.2,858.8H240c2.1,0,3.8,1.7,3.8,3.8v26.8c0,2.1-1.7,3.8-3.8,3.8h-26.8c-2.1,0-3.8-1.7-3.8-3.8v-26.8
			C209.3,860.5,211.1,858.8,213.2,858.8z"/>
		<line class="st2" x1="159" y1="730.2" x2="159" y2="754"/>
		<line class="st2" x1="96.1" y1="667.2" x2="96.1" y2="691"/>
		<line class="st2" x1="83.1" y1="741.6" x2="172.3" y2="741.6"/>
		<polyline class="st0" points="513.8,734.1 472.2,759.2 513.8,787 		"/>
		<polyline class="st0" points="580.5,734.1 618.7,760.3 579,788.4 		"/>
		<line class="st2" x1="565" y1="720.2" x2="530.8" y2="798.1"/>
		<line class="st2" x1="83.1" y1="678.7" x2="172.3" y2="678.7"/>
		<line class="st2" x1="48" y1="829.3" x2="398.5" y2="829.3"/>
		<line class="st2" x1="215.2" y1="761.2" x2="374.4" y2="761.2"/>
		<line class="st2" x1="215.2" y1="723" x2="374.4" y2="723"/>
		<line class="st2" x1="215.2" y1="684.8" x2="374.4" y2="684.8"/>
		<line class="st2" x1="215.2" y1="646.7" x2="374.4" y2="646.7"/>
		<line class="st2" x1="77.9" y1="261.5" x2="122.7" y2="261.5"/>
		<circle class="st4" cx="667" cy="748.9" r="2.3"/>
		<circle class="st4" cx="667" cy="723.1" r="2.3"/>
		<circle class="st4" cx="667" cy="698.4" r="2.3"/>
		<circle class="st4" cx="723.8" cy="451.7" r="2.3"/>
		<circle class="st4" cx="723.8" cy="425.9" r="2.3"/>
		<circle class="st4" cx="723.8" cy="401.1" r="2.3"/>
		<circle class="st4" cx="741.4" cy="111.1" r="2.3"/>
		<circle class="st4" cx="741.4" cy="85.3" r="2.3"/>
		<circle class="st4" cx="741.4" cy="60.5" r="2.3"/>
		<circle class="st4" cx="299.6" cy="262.6" r="2.3"/>
		<circle class="st4" cx="274.8" cy="262.6" r="2.3"/>
		<circle class="st4" cx="249" cy="262.6" r="2.3"/>
		<path class="st1" d="M46.4,198.7h359.2c18.7,0,33.9,15.2,33.9,33.9v691.9c0,18.7-15.2,33.9-33.9,33.9H46.4
			c-18.7,0-33.9-15.2-33.9-33.9V232.6C12.5,213.9,27.7,198.7,46.4,198.7z"/>
		<path class="st2" d="M406,505.5v389.4c0,14.2-11.5,25.7-25.7,25.7H72.8c-14.2,0-25.7-11.5-25.7-25.7V257.1
			c0-14.2,11.5-25.7,25.7-25.7h307.6c14.2,0,25.7,11.5,25.7,25.7l0,0v208.3"/>
		<path class="st1" d="M127.7,358.4h198.4c12.5,0,22.6,10.1,22.6,22.6v198.4c0,12.5-10.1,22.6-22.6,22.6H127.7
			c-12.5,0-22.6-10.1-22.6-22.6V381C105.1,368.5,115.2,358.4,127.7,358.4z"/>
		<path class="st1" d="M335.6,257.1h34.8c5,0,9,4,9,9v0.6c0,5-4,9-9,9h-34.8c-5,0-9-4-9-9v-0.6C326.6,261.1,330.6,257.1,335.6,257.1
			z"/>
	</g>
</g>
</svg>
