<svg xmlns="http://www.w3.org/2000/svg" viewBox="0 0 981.31 802"><defs><style>.cls-1,.cls-2,.cls-6{fill:none;}.cls-1,.cls-2,.cls-3,.cls-4,.cls-5,.cls-6,.cls-7{stroke:#1d1d1b;stroke-miterlimit:10;}.cls-1,.cls-3,.cls-4,.cls-5,.cls-6,.cls-7{stroke-linecap:round;}.cls-1,.cls-2,.cls-3{stroke-width:25px;}.cls-3,.cls-4,.cls-5,.cls-7,.cls-8{fill:#1d1d1b;}.cls-4,.cls-6{stroke-width:20px;}.cls-5{stroke-width:12px;}.cls-7{stroke-width:18px;}</style></defs><g id="Layer_2" data-name="Layer 2"><g id="Layer_3" data-name="Layer 3"><path class="cls-1" d="M12.5,140.57V38.17A25.74,25.74,0,0,1,38.17,12.5h905a25.75,25.75,0,0,1,25.68,25.67V763.83a25.75,25.75,0,0,1-25.68,25.67H834.87"/><path class="cls-1" d="M755.12,789.5H38.17A25.74,25.74,0,0,1,12.5,763.83V224.61"/><line class="cls-2" x1="17.57" y1="608.09" x2="965.2" y2="608.09"/><line class="cls-2" x1="209.29" y1="614.12" x2="209.29" y2="787.76"/><line class="cls-1" x1="78.15" y1="669.3" x2="78.15" y2="728.29"/><line class="cls-1" x1="128.89" y1="669.3" x2="128.89" y2="728.29"/><line class="cls-3" x1="291.59" y1="698.8" x2="891.94" y2="698.8"/><circle class="cls-4" cx="525.32" cy="699.75" r="22.83"/><rect class="cls-5" x="109.83" y="480.74" width="37.14" height="37.14" rx="2.87" transform="translate(-315.46 237.04) rotate(-45)"/><rect class="cls-5" x="830.38" y="480.74" width="37.14" height="37.14" rx="2.87" transform="translate(-104.42 746.54) rotate(-45)"/><circle class="cls-5" cx="218.51" cy="499.82" r="7.48"/><circle class="cls-5" cx="278.13" cy="499.82" r="7.48"/><circle class="cls-5" cx="337.76" cy="499.82" r="7.48"/><circle class="cls-5" cx="397.38" cy="499.82" r="7.48"/><circle class="cls-5" cx="457" cy="499.82" r="7.48"/><circle class="cls-5" cx="516.62" cy="499.82" r="7.48"/><circle class="cls-5" cx="576.25" cy="499.82" r="7.48"/><circle class="cls-5" cx="635.87" cy="499.82" r="7.48"/><circle class="cls-5" cx="695.49" cy="499.82" r="7.48"/><circle class="cls-5" cx="755.12" cy="499.82" r="7.48"/><path class="cls-6" d="M542.15,179.85l58.71,47.06a15,15,0,0,0,9.39,3.3h67.1a15,15,0,0,0,0-30H615.52l-68.7-55.06a15,15,0,0,0-9.38-3.3H443.56a15,15,0,0,0-11.5,5.37l-39.32,46.94a15,15,0,1,0,23,19.26l34.83-41.57h60.17"/><line class="cls-6" x1="542.15" y1="179.85" x2="499.37" y2="237.54"/><path class="cls-6" d="M493.45,273.47v55.91a15,15,0,0,1-15,15H371.75a15,15,0,0,1,0-30h91.7v-73.8a15,15,0,0,1,2.95-8.93l44.33-59.8"/><path class="cls-6" d="M499.37,237.54l77,74A15,15,0,0,1,581,322.4v90.71a15,15,0,0,1-30,0V328.79l-57.53-55.32"/><line class="cls-7" x1="291.48" y1="247" x2="354.48" y2="247"/><line class="cls-7" x1="433.57" y1="454" x2="643.35" y2="454"/><line class="cls-7" x1="375.98" y1="247" x2="382.23" y2="247"/><line class="cls-7" x1="485.79" y1="422" x2="518.42" y2="422"/><line class="cls-7" x1="267.48" y1="279" x2="330.48" y2="279"/><line class="cls-7" x1="238.98" y1="280" x2="245.23" y2="280"/><line class="cls-7" x1="331.48" y1="124" x2="394.48" y2="124"/><line class="cls-7" x1="301.98" y1="124" x2="308.23" y2="124"/><line class="cls-7" x1="271.48" y1="155" x2="334.48" y2="155"/><line class="cls-7" x1="355.98" y1="155" x2="362.23" y2="155"/><circle class="cls-8" cx="565.83" cy="93.83" r="33.56"/></g></g></svg>