<?xml version="1.0" encoding="utf-8"?>
<!-- Generator: Adobe Illustrator 24.2.3, SVG Export Plug-In . SVG Version: 6.00 Build 0)  -->
<svg version="1.1" id="Layer_1" xmlns="http://www.w3.org/2000/svg" xmlns:xlink="http://www.w3.org/1999/xlink" x="0px" y="0px"
	 viewBox="0 0 882.4 986.5" style="enable-background:new 0 0 882.4 986.5;" xml:space="preserve">
<style type="text/css">
	.st0{fill:none;stroke:#5835F2;stroke-width:25;stroke-miterlimit:10;}
	.st1{fill:none;stroke:#5835F2;stroke-width:25;stroke-linejoin:round;}
	.st2{fill:none;stroke:#5835F2;stroke-width:25;stroke-linecap:round;stroke-linejoin:round;}
	.st3{fill:#231F20;stroke:#5835F2;stroke-width:25;stroke-linecap:round;stroke-linejoin:round;}
</style>
<g id="Layer_2_1_">
	<g id="UIUX">
		<path class="st0" d="M621.9,160H811c32.5,0,58.9,26.4,58.9,58.9v504c0,32.5-26.3,58.9-58.9,58.9c0,0,0,0,0,0H71.4
			c-32.5,0-58.9-26.4-58.9-58.9l0,0v-504c0-32.5,26.3-58.9,58.9-58.9c0,0,0,0,0,0h218.1"/>
		<rect x="73.4" y="219.4" class="st1" width="731.3" height="446"/>
		<rect x="306.1" y="548.5" class="st1" width="466.8" height="76.8"/>
		<line class="st2" x1="364.1" y1="551.8" x2="364.1" y2="578.7"/>
		<line class="st2" x1="422.4" y1="551.8" x2="422.4" y2="578.7"/>
		<line class="st2" x1="480.7" y1="551.8" x2="480.7" y2="578.7"/>
		<line class="st2" x1="537.8" y1="551.8" x2="537.8" y2="578.7"/>
		<line class="st2" x1="596.1" y1="551.8" x2="596.1" y2="578.7"/>
		<line class="st2" x1="654.4" y1="551.8" x2="654.4" y2="578.7"/>
		<line class="st2" x1="712.7" y1="551.8" x2="712.7" y2="578.7"/>
		<line class="st2" x1="82.1" y1="568.1" x2="199.1" y2="568.1"/>
		<polyline class="st2" points="133.3,559.4 195.1,395.6 262.7,568.5 		"/>
		<circle class="st2" cx="195.6" cy="385.4" r="39.8"/>
		<line class="st2" x1="194.9" y1="312.1" x2="194.9" y2="336.8"/>
		<path class="st2" d="M652,286.2H271.5c-18.4-2.5-31.3-19.4-28.8-37.7c2-15,13.8-26.8,28.8-28.8H652c15.3,3.3,26.4,16.4,27.2,31.4
			C680.1,267.4,668.6,282.5,652,286.2z"/>
		<polyline class="st2" points="296.3,158.9 296.3,107 377.5,107 377.5,218.5 296.3,218.5 296.3,158.9 		"/>
		<polygon class="st2" points="337.1,12.5 357.3,60.7 377.4,109 337.1,109 296.8,109 316.9,60.7 		"/>
		<path class="st1" d="M574.3,18.6c-1.9,21.1-8.6,35-14.5,43.9c-10.8,16.2-23,21.6-29.1,39.2c-3.1,9.2-3.9,19.1-2.4,28.7
			c4.5,26.7,27.8,45.5,50.1,46c27.9,0.6,58.6-27.2,52.2-63c-2.6-11.7-6.4-23.1-11.4-34C606.5,51.5,588.3,31.4,574.3,18.6z"/>
		<line class="st1" x1="549" y1="169.1" x2="552.7" y2="212"/>
		<line class="st1" x1="615.9" y1="163.9" x2="609.9" y2="215.3"/>
		<rect x="420.6" y="15.2" class="st2" width="69" height="203.3"/>
		<line class="st2" x1="459.2" y1="44.8" x2="483.8" y2="44.8"/>
		<line class="st2" x1="459.2" y1="73.7" x2="483.8" y2="73.7"/>
		<line class="st2" x1="459.2" y1="102.5" x2="483.8" y2="102.5"/>
		<line class="st2" x1="459.2" y1="131.3" x2="483.8" y2="131.3"/>
		<line class="st2" x1="459.2" y1="160.1" x2="483.8" y2="160.1"/>
		<line class="st2" x1="459.2" y1="188.9" x2="483.8" y2="188.9"/>
		<line class="st2" x1="350.8" y1="345.6" x2="374.9" y2="345.6"/>
		<line class="st2" x1="350.8" y1="383.9" x2="374.9" y2="383.9"/>
		<line class="st2" x1="350.8" y1="422.2" x2="374.9" y2="422.2"/>
		<line class="st2" x1="409.9" y1="422.2" x2="442.5" y2="422.2"/>
		<line class="st2" x1="469.1" y1="422.2" x2="548.3" y2="422.2"/>
		<line class="st2" x1="575.1" y1="422.2" x2="624.9" y2="422.2"/>
		<line class="st2" x1="585.1" y1="384.3" x2="636.3" y2="384.3"/>
		<line class="st2" x1="535.6" y1="384.3" x2="559.3" y2="384.3"/>
		<line class="st2" x1="653.2" y1="422.2" x2="675.3" y2="422.2"/>
		<line class="st2" x1="350.8" y1="460.6" x2="374.9" y2="460.6"/>
		<line class="st2" x1="350.8" y1="498.9" x2="374.9" y2="498.9"/>
		<line class="st2" x1="411.1" y1="498.9" x2="461.3" y2="498.9"/>
		<line class="st2" x1="489.2" y1="498.9" x2="539.4" y2="498.9"/>
		<line class="st2" x1="566.2" y1="498.9" x2="587.5" y2="498.9"/>
		<line class="st2" x1="412" y1="345.6" x2="460.8" y2="345.6"/>
		<line class="st2" x1="489" y1="345.6" x2="537.8" y2="345.6"/>
		<line class="st2" x1="410.9" y1="383.5" x2="509.6" y2="383.5"/>
		<line class="st2" x1="477.8" y1="461.6" x2="568.6" y2="461.6"/>
		<line class="st2" x1="410.9" y1="461.6" x2="451.4" y2="461.6"/>
		<line class="st2" x1="595" y1="461.6" x2="617.3" y2="461.6"/>
		<circle class="st3" cx="442.5" cy="724.8" r="10.8"/>
		<circle class="st2" cx="160.6" cy="65.4" r="39.2"/>
		<circle class="st2" cx="242.5" cy="126.7" r="6.2"/>
		<circle class="st2" cx="28.3" cy="107.7" r="6.2"/>
		<circle class="st2" cx="852.8" cy="68.7" r="6.2"/>
		<circle class="st2" cx="722.7" cy="92.6" r="30.4"/>
		<line class="st2" x1="538.8" y1="786.5" x2="538.8" y2="904.3"/>
		<line class="st2" x1="490.9" y1="786.5" x2="490.9" y2="904.3"/>
		<line class="st2" x1="394.9" y1="786.5" x2="394.9" y2="904.3"/>
		<line class="st2" x1="345.8" y1="786.5" x2="345.8" y2="904.3"/>
		<line class="st2" x1="337.6" y1="116.8" x2="337.6" y2="210.5"/>
		<path class="st2" d="M247.8,913.1h386c15.1,0,27.3,12.2,27.3,27.3v6.3c0,15.1-12.2,27.3-27.3,27.3h-386
			c-15.1,0-27.3-12.2-27.3-27.3v-6.3C220.5,925.3,232.7,913.1,247.8,913.1z"/>
	</g>
</g>
</svg>
