<?xml version="1.0" encoding="utf-8"?>
<!-- Generator: Adobe Illustrator 24.2.3, SVG Export Plug-In . SVG Version: 6.00 Build 0)  -->
<svg version="1.1" id="Layer_1" xmlns="http://www.w3.org/2000/svg" xmlns:xlink="http://www.w3.org/1999/xlink" x="0px" y="0px"
	 viewBox="0 0 950 966" style="enable-background:new 0 0 950 966;" xml:space="preserve">
<style type="text/css">
	.st0{fill:none;stroke:#5835F2;stroke-width:25;stroke-linecap:round;stroke-miterlimit:10;}
	.st1{fill:none;stroke:#5835F2;stroke-width:25;stroke-miterlimit:10;}
	.st2{fill:#1D1D1B;stroke:#5835F2;stroke-width:18;stroke-miterlimit:10;}
	.st3{fill:#1D1D1B;stroke:#5835F2;stroke-width:18;stroke-linecap:round;stroke-linejoin:round;}
	.st4{fill:#1D1D1B;stroke:#5835F2;stroke-width:18;stroke-linejoin:round;}
</style>
<g id="Layer_2_1_">
	<g id="Layer_2-2">
		<path class="st0" d="M770.2,736.3H40.5c-15.5,0-28-12.5-28-28v-602c0-15.5,12.5-28,28-28H89"/>
		<path class="st0" d="M872,78.3h37.5c15.5,0,28,12.5,28,28v602c0,15.5-12.5,28-28,28h-85.4"/>
		<path class="st0" d="M296.6,953.5h-35.4c-8.1,0-14.6-6.5-14.6-14.6v-42.8c0-8.1,6.6-14.6,14.6-14.6l0,0h434.3
			c8.1,0,14.6,6.6,14.6,14.6v42.8c0,8.1-6.5,14.6-14.6,14.6h-85.6"/>
		<line class="st0" x1="609.8" y1="953.5" x2="340.5" y2="953.5"/>
		<path class="st1" d="M374,736.3v99c0,0-9.8,45.8-49.5,46.5"/>
		<path class="st1" d="M585,736.3v99c0,0,9.8,45.8,49.5,46.5"/>
		<path class="st1" d="M448.1,736.4h61.5l0,0v60.3c0,17-13.8,30.8-30.8,30.8l0,0c-17,0-30.8-13.8-30.8-30.8V736.4L448.1,736.4z"/>
		<path class="st1" d="M454.5,611.8h45c6.6,0,12,5.4,12,12v45c0,6.6-5.4,12-12,12h-45c-6.6,0-12-5.4-12-12v-45
			C442.5,617.1,447.9,611.8,454.5,611.8z"/>
		<path class="st0" d="M213.9,552.5c0,0-61.9-110.3,58.5-139.5"/>
		<path class="st0" d="M246.5,407.3c0,0-28.5-124.8,102.8-136"/>
		<path class="st0" d="M744.9,552.5c0,0,61.9-110.3-58.5-139.5"/>
		<path class="st0" d="M712.3,407.3c0,0,28.5-124.8-102.8-136"/>
		<path class="st0" d="M405.5,398.8c4.8-41.1,42-70.6,83.1-65.9c34.6,4,61.8,31.3,65.9,65.9"/>
		<path class="st0" d="M356.5,490.8c-17.4-23.8-12.2-57.3,11.6-74.8c18.8-13.7,44.3-13.7,63.1,0"/>
		<path class="st0" d="M344,308.3c7.2-70.5,67.6-124.1,137.5-123c68.2,1.1,126,54.2,133,123"/>
		<path class="st0" d="M588.5,443.8c13.9-8.3,31.3-7,42.8,3c13.3,11.6,16,32.6,5.3,48.4"/>
		<rect x="187.5" y="13.8" class="st2" width="15" height="15"/>
		<rect x="187.5" y="67.8" class="st2" width="15" height="15"/>
		<rect x="214.5" y="40.8" class="st2" width="15" height="15"/>
		<rect x="160.5" y="40.8" class="st2" width="15" height="15"/>
		<rect x="843.5" y="283.8" class="st2" width="15" height="15"/>
		<rect x="843.5" y="337.8" class="st2" width="15" height="15"/>
		<rect x="870.5" y="310.8" class="st2" width="15" height="15"/>
		<rect x="816.5" y="310.8" class="st2" width="15" height="15"/>
		<polygon class="st3" points="748.3,71.1 736.1,73.7 731.8,22.4 731.8,22.4 		"/>
		<polygon class="st4" points="765.7,190.1 765.7,190.1 750.2,146.3 762.4,143.8 		"/>
		<polygon class="st3" points="830,91.9 830,91.9 786.3,107.4 783.7,95.1 		"/>
		<polygon class="st3" points="712.3,110 714.8,122.3 668.5,125.5 668.5,125.5 		"/>
		<polygon class="st3" points="153.6,188.5 141.1,188.8 146.1,137.7 146.1,137.7 		"/>
		<polygon class="st4" points="149.4,308.6 149.4,308.6 142,262.8 154.5,262.5 		"/>
		<polygon class="st3" points="230.3,223.6 230.3,223.6 184.5,231 184.1,218.5 		"/>
		<polygon class="st3" points="111.2,220.3 111.5,232.8 65.3,227.7 65.3,227.7 		"/>
		
			<rect x="638.4" y="192.2" transform="matrix(0.7071 -0.7071 0.7071 0.7071 57.2494 535.1039)" class="st2" width="72.3" height="12.5"/>
		<rect x="458.2" y="69.5" class="st2" width="12.7" height="62.1"/>
		<rect x="458.2" y="9" class="st2" width="12.7" height="19.6"/>
		
			<rect x="546.1" y="110.4" transform="matrix(0.3317 -0.9434 0.9434 0.3317 265.1584 607.8293)" class="st2" width="30.9" height="12.7"/>
		
			<rect x="287.9" y="84.9" transform="matrix(0.7071 -0.7071 0.7071 0.7071 -18.1421 251.1755)" class="st2" width="12.5" height="125.2"/>
		
			<rect x="128.4" y="352.7" transform="matrix(0.6077 -0.7942 0.7942 0.6077 -253.1218 258.0803)" class="st2" width="12.5" height="65"/>
		
			<rect x="113.9" y="465.6" transform="matrix(0.4641 -0.8858 0.8858 0.4641 -357.0761 361.4554)" class="st2" width="12.5" height="20.4"/>
		
			<rect x="813.4" y="454.5" transform="matrix(0.8926 -0.4509 0.4509 0.8926 -119.2324 421.0818)" class="st2" width="21.4" height="12.5"/>
		
			<rect x="777" y="371.8" transform="matrix(0.7071 -0.7071 0.7071 0.7071 -34.799 672.1295)" class="st2" width="33.8" height="12.5"/>
		<line class="st1" x1="15.5" y1="556.8" x2="940.5" y2="556.8"/>
	</g>
</g>
</svg>
