<?xml version="1.0" encoding="UTF-8"?>
<!DOCTYPE svg PUBLIC "-//W3C//DTD SVG 1.1//EN" "http://www.w3.org/Graphics/SVG/1.1/DTD/svg11.dtd">
<!-- Creator: CorelDRAW X7 -->
<svg xmlns="http://www.w3.org/2000/svg" xml:space="preserve" width="43.0914mm" height="43.3492mm" version="1.1" style="shape-rendering:geometricPrecision; text-rendering:geometricPrecision; image-rendering:optimizeQuality; fill-rule:evenodd; clip-rule:evenodd"
viewBox="0 0 2508 2523"
 xmlns:xlink="http://www.w3.org/1999/xlink">
 <defs>
  <style type="text/css">
   <![CDATA[
    .fil0 {fill:#5835F2}
   ]]>
  </style>
 </defs>
 <g id="Layer_x0020_1">
  <metadata id="CorelCorpID_0Corel-Layer"/>
  <path class="fil0" d="M37 2523l29 0c1,0 3,-3 4,-2l465 -128c36,-10 126,-44 156,-30 408,199 885,183 1256,-70 84,-57 210,-161 264,-235 14,-19 30,-37 46,-57 26,-32 58,-80 81,-121 265,-464 219,-1027 -124,-1433 -77,-92 -164,-172 -264,-239 -305,-203 -547,-185 -598,-208l-161 0c-2,1 -162,20 -218,32 -189,45 -280,99 -432,194 -15,10 -25,14 -29,36 -5,31 14,95 103,33 192,-133 436,-203 676,-196 873,24 1395,976 965,1723 -54,94 -144,214 -224,280 -63,52 -72,61 -142,109 -275,191 -667,241 -999,130 -264,-89 -116,-115 -374,-45 -66,18 -133,35 -198,54 -62,17 -134,40 -198,52 16,-82 49,-176 71,-258 23,-83 47,-166 71,-250 16,-57 -6,-73 -29,-117 -150,-285 -164,-628 -57,-924 38,-107 80,-178 139,-265 45,-65 -40,-127 -87,-48 -41,68 -81,126 -117,209 -146,337 -137,723 24,1052 31,64 39,41 17,117l-140 500c-23,86 -15,80 24,105z"/>
  <path class="fil0" d="M405 2122c3,-40 40,-149 53,-195 32,-116 37,-91 -18,-185 -146,-250 -178,-534 -81,-811 46,-134 143,-284 248,-378l66 -57c14,-8 23,-18 37,-27 159,-102 301,-165 511,-172 337,-12 628,158 777,350l52 72c187,287 223,671 51,978 -17,30 -32,53 -48,81 -20,34 -3,72 31,76 50,7 88,-78 115,-132 154,-306 149,-691 -30,-999 -45,-78 -103,-153 -164,-216 -61,-62 -131,-114 -208,-161 -217,-135 -527,-190 -815,-112 -134,36 -286,114 -377,189 -99,83 -126,114 -210,224 -32,41 -67,106 -92,159 -151,313 -122,709 60,999 26,41 14,47 0,96 -14,48 -80,273 -79,292 0,84 119,33 172,18 67,-19 132,-35 198,-54 61,-17 47,-12 95,15 340,190 775,162 1076,-36 21,-14 59,-42 27,-81 -44,-54 -92,23 -250,85 -276,108 -560,76 -815,-60 -97,-51 -76,-41 -190,-10 -66,19 -128,34 -192,52z"/>
  <path class="fil0" d="M908 758c25,68 60,140 90,209 29,66 10,57 -22,98 -21,26 -52,45 -59,89 -16,102 177,277 260,335 56,38 118,86 196,104 90,22 119,-36 176,-112 41,-55 45,-28 193,44 74,36 76,27 74,72 -5,143 -123,194 -264,182 -192,-17 -459,-176 -586,-311 -23,-24 -48,-54 -70,-83 -112,-142 -255,-321 -171,-522 33,-78 77,-120 183,-105zm501 740c-99,-2 -341,-209 -394,-325 24,-55 120,-83 92,-196 -14,-57 -65,-156 -91,-215 -38,-90 -70,-116 -192,-104 -81,7 -142,78 -173,131 -91,156 -44,337 35,472 50,86 128,190 196,257 94,92 118,124 249,204 183,111 510,241 686,85 52,-46 93,-97 97,-200 6,-126 -47,-127 -132,-172 -152,-80 -213,-129 -306,-22 -17,19 -35,51 -67,85z"/>
  <path class="fil0" d="M1947 1916c-59,34 -18,110 41,88 56,-20 20,-122 -41,-88z"/>
  <path class="fil0" d="M386 360c-61,35 -4,111 47,84 52,-29 14,-119 -47,-84z"/>
 </g>
</svg>
