<?xml version="1.0" encoding="utf-8"?>
<!-- Generator: Adobe Illustrator 24.2.3, SVG Export Plug-In . SVG Version: 6.00 Build 0)  -->
<svg version="1.1" id="Layer_1" xmlns="http://www.w3.org/2000/svg" xmlns:xlink="http://www.w3.org/1999/xlink" x="0px" y="0px"
	 viewBox="0 0 987.5 885.7" style="enable-background:new 0 0 987.5 885.7;" xml:space="preserve">
<style type="text/css">
	.st0{fill:none;stroke:#5835F2;stroke-width:25;stroke-miterlimit:10;}
	.st1{fill:#1D1D1B;stroke:#5835F2;stroke-width:25;stroke-miterlimit:10;}
	.st2{fill:#5835F2;stroke:#5835F2;stroke-width:25;stroke-miterlimit:10;}
	.st3{fill:#5835F2;}
</style>
<path class="st0" d="M975,542.6c0,102.2-68.6,189-164.2,221c-25.4,8.4-49.6,20.2-71.8,35.1c-47.5,31.9-132,75.5-241.7,74.5
	C298.5,871.3,137.5,724,86.9,572.7c-0.3-0.9-0.7-2-1.1-3.4c-8.5-26.5-20.7-51.7-36.1-74.8c-23.6-35.3-37.2-76.6-37.2-120.8
	c0-87.9,53.8-164.6,133.5-205c22.5-11.5,43.5-25.7,62.5-42.5C264.3,77.2,365.2,10.1,497.3,12.6C679.1,16,874,150.4,918.3,355.1
	c6.2,28.4,16.3,55.8,30.1,81.4C965.9,469.1,975,505.6,975,542.6z"/>
<path class="st0" d="M129.9,519.6C169,692.3,320.1,813.8,493.8,813.8c100.5,0.1,196.7-40.7,266.5-113"/>
<path class="st0" d="M181.6,240c66.9-97.1,185.3-168,312.2-168c194.9,0,354.6,150.3,369.8,341.3"/>
<path class="st0" d="M408.9,501.4L292.1,527l-74.8,16.4c-52.6,11.5-105.1-22-116.7-74.7L77.4,363.1c-11.6-52.6,22-105.1,74.7-116.7
	l74.7-16.4l152.9-33.6c52.6-11.6,105.1,22,116.7,74.6l19.2,87.6"/>
<line class="st0" x1="408.9" y1="501.4" x2="292.1" y2="527"/>
<path class="st0" d="M596,369.9c0-0.1,0-0.2,0-0.4c-0.4-3.1-0.9-6.1-1.6-9.2l-23.2-105.6c-11.6-52.7-64.1-86.2-116.7-74.7
	l-74.8,16.4L226.8,230"/>
<path class="st0" d="M228.9,316l26.2,119.4c0.4,1.8,2.2,3,4,2.6c0.6-0.1,1.1-0.4,1.6-0.8l90.3-82.4c1.4-1.3,1.5-3.4,0.2-4.8
	c-0.4-0.4-0.9-0.8-1.5-0.9l-116.6-37c-1.8-0.6-3.7,0.4-4.3,2.2C228.8,314.8,228.8,315.4,228.9,316z"/>
<path class="st0" d="M917.7,515.4l-15.6,107c-7.8,53.3-57.8,90.6-111.1,82.8l-230.7-33.6c-53.3-7.8-90.6-57.8-82.8-111.1l11.2-76.7
	l2.1-14.6l2.3-15.7c7.4-50.5,52.7-86.7,102.8-83.7c2.5,0.1,5,0.4,7.5,0.8l0.7,0.1l154.9,22.6l75.7,11
	C888.2,412.1,925.5,462.1,917.7,515.4z"/>
<path class="st0" d="M759.2,393.3l-155.6-22.7l-7.6-1.1l-67.5-9.8c-4.2-0.6-8.5-0.9-12.8-1c-48.3-0.6-91.1,34.8-98.3,83.8l-8.6,58.9
	l-7,48.1c-7.8,53.3,29.5,103.3,82.8,111.1l75.7,11l154.9,22.6"/>
<path class="st0" d="M798.9,610.5l17.6-121c0.3-1.9-1-3.6-2.9-3.8c-0.6-0.1-1.2,0-1.7,0.2L698.3,531c-1.7,0.7-2.6,2.7-1.9,4.4
	c0.2,0.6,0.6,1,1,1.4l96,75.8c1.5,1.1,3.6,0.9,4.8-0.6C798.6,611.6,798.8,611,798.9,610.5z"/>
<path class="st0" d="M679.8,594.4l17.7-121c0.3-1.9-1-3.6-2.9-3.8c-0.6-0.1-1.2,0-1.7,0.2L579.3,515c-1.7,0.7-2.6,2.7-1.9,4.4
	c0.2,0.5,0.6,1,1,1.4l96,75.8c1.5,1.1,3.6,0.9,4.7-0.6C679.5,595.5,679.7,595,679.8,594.4z"/>
<circle class="st1" cx="400.3" cy="127.9" r="11.5"/>
<circle class="st2" cx="552" cy="743.5" r="16.1"/>
<circle class="st0" cx="332.3" cy="156.7" r="7"/>
<circle class="st3" cx="768.6" cy="295.6" r="16.4"/>
<circle class="st3" cx="311.9" cy="695.2" r="21.4"/>
<ellipse transform="matrix(0.655 -0.7556 0.7556 0.655 56.8399 599.1894)" class="st3" cx="684.6" cy="237.3" rx="9" ry="29.7"/>
<ellipse transform="matrix(0.655 -0.7556 0.7556 0.655 56.8399 599.1894)" class="st3" cx="684.6" cy="237.3" rx="29.7" ry="9"/>
<ellipse transform="matrix(6.818936e-02 -0.9977 0.9977 6.818936e-02 -370.2799 834.8857)" class="st3" cx="261.8" cy="615.7" rx="9.5" ry="33.7"/>
<ellipse transform="matrix(7.974526e-02 -0.9968 0.9968 7.974526e-02 -369.3272 827.2875)" class="st3" cx="263.4" cy="613.7" rx="31.4" ry="10.2"/>
</svg>
