<?xml version="1.0" encoding="UTF-8"?>
<!DOCTYPE svg PUBLIC "-//W3C//DTD SVG 1.1//EN" "http://www.w3.org/Graphics/SVG/1.1/DTD/svg11.dtd">
<!-- Creator: CorelDRAW X7 -->
<svg xmlns="http://www.w3.org/2000/svg" xml:space="preserve" width="97.0447mm" height="29.2977mm" version="1.1" style="shape-rendering:geometricPrecision; text-rendering:geometricPrecision; image-rendering:optimizeQuality; fill-rule:evenodd; clip-rule:evenodd"
viewBox="0 0 10656 3217"
 xmlns:xlink="http://www.w3.org/1999/xlink">
 <defs>
  <style type="text/css">
   <![CDATA[
    .str0 {stroke:#5138EE;stroke-width:8.36698}
    .str1 {stroke:#5835F2;stroke-width:8.36698}
    .fil2 {fill:#5138EE}
    .fil0 {fill:#5138EE;fill-rule:nonzero}
    .fil1 {fill:#5835F2;fill-rule:nonzero}
   ]]>
  </style>
 </defs>
 <g id="Layer_x0020_1">
  <metadata id="CorelCorpID_0Corel-Layer"/>
  <path class="fil0 str0" d="M260 190c-39,0 -70,31 -70,70l0 2047c0,39 31,71 70,71l5563 0c39,0 71,-32 71,-71l0 -2047c0,-39 -32,-70 -71,-70l-5563 0zm5563 2374l-5563 0c-141,0 -256,-115 -256,-257l0 -2047c0,-141 115,-256 256,-256l5563 0c141,0 256,115 256,256l0 2047c0,142 -115,257 -256,257z"/>
  <polygon class="fil1" points="1663,416 1663,807 956,807 956,1118 1478,1118 1478,1492 956,1492 956,2184 464,2184 464,416 "/>
  <path class="fil1" d="M3017 1623c72,-82 109,-192 109,-329 0,-141 -37,-251 -109,-332 -73,-82 -172,-122 -298,-122 -127,0 -226,40 -298,122 -72,81 -108,191 -108,332 0,139 36,249 108,330 72,81 171,121 298,121 126,0 225,-41 298,-122zm-754 462c-139,-77 -249,-185 -330,-323 -81,-138 -122,-294 -122,-468 0,-174 41,-330 122,-468 81,-138 191,-245 330,-322 139,-77 291,-116 456,-116 168,0 320,39 458,116 138,77 247,184 328,322 80,138 120,294 120,468 0,174 -40,330 -120,468 -81,138 -190,246 -329,323 -139,78 -291,117 -457,117 -165,0 -317,-39 -456,-117z"/>
  <polygon class="fil1" points="4952,2184 4608,1685 4315,2184 3755,2184 4330,1279 3735,416 4315,416 4648,903 4934,416 5494,416 4927,1306 5531,2184 "/>
  <polygon class="fil1" points="6727,1879 7304,1879 7304,2158 6376,2158 6376,407 6727,407 "/>
  <path class="fil1" d="M8506 1543l-253 -732 -254 732 507 0zm95 281l-697 0 -115 334 -369 0 629 -1753 409 0 630 1753 -371 0 -116 -334z"/>
  <path class="fil1" d="M10228 1812c48,-40 72,-97 72,-171 0,-75 -26,-134 -76,-177 -50,-42 -118,-64 -203,-64l-346 0 0 472 354 0c85,0 151,-20 199,-60zm-553 -683l321 0c84,0 148,-18 193,-56 45,-38 68,-91 68,-162 0,-70 -23,-124 -68,-163 -45,-38 -109,-57 -193,-57l-321 0 0 438zm886 279c63,80 95,172 95,276 0,94 -23,176 -69,247 -46,71 -113,127 -200,167 -87,40 -189,60 -308,60l-755 0 0 -1751 722 0c119,0 221,19 308,58 86,38 151,92 195,160 44,69 67,147 67,234 0,102 -28,187 -82,255 -54,69 -127,118 -217,146 99,18 180,68 244,148z"/>
  <polygon class="fil1" points="2038,2842 2038,2892 1880,2892 1880,3001 2003,3001 2003,3051 1880,3051 1880,3213 1819,3213 1819,2842 "/>
  <path class="fil1" d="M2213 2842l0 237c0,28 7,49 22,63 15,15 35,22 62,22 26,0 47,-7 62,-22 15,-14 22,-35 22,-63l0 -237 61 0 0 236c0,30 -7,56 -20,77 -13,21 -31,36 -53,46 -22,11 -46,16 -73,16 -27,0 -51,-5 -73,-16 -22,-10 -39,-25 -52,-46 -13,-21 -19,-47 -19,-77l0 -236 61 0z"/>
  <path class="fil1" d="M2634 3204c-20,-9 -36,-21 -47,-37 -11,-16 -17,-35 -17,-56l65 0c1,16 8,29 19,39 11,11 27,16 47,16 21,0 38,-5 49,-15 12,-11 18,-24 18,-40 0,-12 -4,-22 -11,-30 -7,-8 -16,-14 -27,-18 -11,-5 -26,-9 -45,-14 -25,-7 -44,-13 -59,-20 -15,-6 -28,-16 -39,-30 -11,-14 -16,-33 -16,-56 0,-21 5,-40 16,-56 11,-16 26,-28 45,-37 19,-8 41,-13 66,-13 36,0 66,9 89,27 23,18 36,43 38,74l-67 0c-1,-13 -8,-25 -19,-34 -12,-10 -28,-15 -47,-15 -17,0 -32,5 -43,14 -11,8 -16,21 -16,38 0,11 3,21 10,28 7,7 16,13 27,17 10,5 25,9 43,14 25,7 45,14 61,20 15,7 28,18 39,32 11,14 16,33 16,56 0,19 -5,37 -15,53 -10,17 -25,31 -44,41 -20,10 -42,15 -69,15 -25,0 -47,-4 -67,-13z"/>
  <polygon class="fil1" points="3020,3213 2960,3213 2960,2842 3020,2842 "/>
  <path class="fil1" d="M3394 3147c19,-11 34,-27 45,-48 11,-21 16,-45 16,-72 0,-28 -5,-52 -16,-72 -11,-21 -26,-37 -45,-48 -20,-11 -42,-16 -66,-16 -25,0 -47,5 -66,16 -19,11 -34,27 -45,48 -11,20 -16,44 -16,72 0,27 5,51 16,72 11,21 26,37 45,48 19,12 41,17 66,17 24,0 46,-5 66,-17zm-161 46c-29,-17 -52,-39 -69,-68 -17,-29 -26,-62 -26,-98 0,-36 9,-69 26,-98 17,-29 40,-51 69,-67 29,-16 60,-25 95,-25 35,0 67,9 96,25 29,16 52,38 68,67 17,29 25,62 25,98 0,36 -8,69 -25,98 -16,29 -39,51 -68,68 -29,16 -61,24 -96,24 -35,0 -66,-8 -95,-24z"/>
  <polygon class="fil1" points="3940,3213 3879,3213 3696,2936 3696,3213 3635,3213 3635,2842 3696,2842 3879,3118 3879,2842 3940,2842 "/>
  <path class="fil1" d="M4667 3147c19,-11 34,-27 45,-48 11,-21 16,-45 16,-72 0,-28 -5,-52 -16,-72 -11,-21 -26,-37 -45,-48 -20,-11 -42,-16 -66,-16 -25,0 -46,5 -66,16 -19,11 -34,27 -45,48 -11,20 -16,44 -16,72 0,27 5,51 16,72 11,21 26,37 45,48 20,12 41,17 66,17 24,0 46,-5 66,-17zm-161 46c-29,-17 -52,-39 -69,-68 -17,-29 -26,-62 -26,-98 0,-36 9,-69 26,-98 17,-29 40,-51 69,-67 29,-16 60,-25 95,-25 35,0 67,9 96,25 29,16 52,38 68,67 17,29 25,62 25,98 0,36 -8,69 -25,98 -16,29 -39,51 -68,68 -29,16 -61,24 -96,24 -35,0 -66,-8 -95,-24z"/>
  <polygon class="fil1" points="5127,2842 5127,2892 4969,2892 4969,3001 5092,3001 5092,3051 4969,3051 4969,3213 4908,3213 4908,2842 "/>
  <polygon class="fil1" points="5764,3028 5880,3213 5811,3213 5727,3079 5649,3213 5581,3213 5697,3028 5581,2842 5649,2842 5733,2978 5812,2842 5880,2842 "/>
  <path class="fil1" d="M6184 2997c12,-10 17,-25 17,-44 0,-41 -22,-61 -68,-61l-68 0 0 121 68 0c23,0 40,-5 51,-16zm67 9c-9,17 -24,30 -43,41 -20,10 -45,16 -75,16l-68 0 0 150 -60 0 0 -371 128 0c28,0 52,5 72,15 20,10 34,23 44,40 10,16 15,35 15,56 0,19 -5,36 -13,53z"/>
  <polygon class="fil1" points="6441,2891 6441,3000 6569,3000 6569,3050 6441,3050 6441,3164 6585,3164 6585,3213 6380,3213 6380,2842 6585,2842 6585,2891 "/>
  <path class="fil1" d="M6779 3016l67 0c23,0 40,-5 52,-17 11,-11 17,-27 17,-46 0,-19 -5,-34 -17,-45 -11,-11 -29,-16 -52,-16l-67 0 0 124zm132 197l-86 -148 -46 0 0 148 -61 0 0 -371 128 0c29,0 53,5 73,15 19,10 34,23 44,40 10,17 15,36 15,56 0,25 -7,46 -21,66 -14,20 -36,33 -65,41l92 153 -73 0z"/>
  <polygon class="fil1" points="7175,3213 7114,3213 7114,2842 7175,2842 "/>
  <polygon class="fil1" points="7374,2891 7374,3000 7502,3000 7502,3050 7374,3050 7374,3164 7518,3164 7518,3213 7313,3213 7313,2842 7518,2842 7518,2891 "/>
  <polygon class="fil1" points="7956,3213 7895,3213 7712,2936 7712,3213 7651,3213 7651,2842 7712,2842 7895,3118 7895,2842 7956,2842 "/>
  <path class="fil1" d="M8099 2929c17,-29 40,-51 69,-67 29,-16 60,-25 95,-25 39,0 75,10 105,30 31,19 54,46 67,82l-73 0c-9,-20 -23,-34 -40,-44 -17,-9 -37,-14 -59,-14 -25,0 -46,5 -66,16 -19,11 -34,27 -45,48 -11,21 -16,45 -16,72 0,27 5,51 16,72 11,21 26,37 45,48 20,11 41,17 66,17 22,0 42,-5 59,-15 17,-9 31,-24 40,-44l73 0c-13,36 -36,63 -67,83 -30,19 -66,28 -105,28 -35,0 -67,-8 -96,-24 -28,-16 -51,-39 -68,-67 -17,-29 -25,-62 -25,-98 0,-36 8,-69 25,-98z"/>
  <polygon class="fil1" points="8625,2891 8625,3000 8754,3000 8754,3050 8625,3050 8625,3164 8770,3164 8770,3213 8565,3213 8565,2842 8770,2842 8770,2891 "/>
  <path class="fil2 str1" d="M190 2307l0 -2047c0,-39 31,-70 70,-70l5563 0c39,0 71,31 71,70l0 2047c0,39 -32,71 -71,71l-5563 0c-39,0 -70,-32 -70,-71zm5633 257c141,0 256,-115 256,-257l0 -2047c0,-141 -115,-256 -256,-256l-5563 0c-141,0 -256,115 -256,256l0 2047c0,142 115,257 256,257l5563 0z"/>
 </g>
</svg>
